<?xml version="1.0" encoding="UTF-8"?>
<svg id="_レイヤー_1" xmlns="http://www.w3.org/2000/svg" xmlns:xlink="http://www.w3.org/1999/xlink" version="1.1" viewBox="0 0 651.44 236.16">
  <!-- Generator: Adobe Illustrator 29.7.1, SVG Export Plug-In . SVG Version: 2.1.1 Build 8)  -->
  <defs>
    <style>
      .st0, .st1, .st2, .st3, .st4, .st5, .st6 {
        fill: none;
      }

      .st7 {
        fill: #add8e6;
      }

      .st7, .st8, .st9, .st10, .st6, .st11 {
        stroke: #000;
      }

      .st8 {
        fill: #ffb6c1;
      }

      .st1 {
        stroke-dasharray: 3.12 3.12;
      }

      .st1, .st2, .st4, .st5 {
        stroke: red;
      }

      .st1, .st2, .st4, .st5, .st6 {
        stroke-miterlimit: 10;
      }

      .st2 {
        stroke-dasharray: 3;
      }

      .st9 {
        fill: khaki;
      }

      .st12 {
        font-family: KozGoPro-Regular-83pv-RKSJ-H, 'Kozuka Gothic Pro';
      }

      .st12, .st13 {
        font-size: 10.96px;
      }

      .st12, .st13, .st14, .st15 {
        isolation: isolate;
      }

      .st3 {
        stroke: #1f77b4;
        stroke-linejoin: round;
        stroke-width: 2px;
      }

      .st13 {
        font-family: CourierNewPSMT, 'Courier New';
      }

      .st16 {
        clip-path: url(#clippath-1);
      }

      .st17 {
        clip-path: url(#clippath-3);
      }

      .st18 {
        clip-path: url(#clippath-4);
      }

      .st19 {
        clip-path: url(#clippath-2);
      }

      .st20 {
        clip-path: url(#clippath-7);
      }

      .st21 {
        clip-path: url(#clippath-6);
      }

      .st22 {
        clip-path: url(#clippath-8);
      }

      .st23 {
        clip-path: url(#clippath-5);
      }

      .st5 {
        stroke-dasharray: 3.09 3.09;
      }

      .st10 {
        fill: #90ee90;
      }

      .st15 {
        fill: gray;
        opacity: .5;
      }

      .st24 {
        clip-path: url(#clippath);
      }

      .st11 {
        fill: #e6e6fa;
      }
    </style>
    <clipPath id="clippath">
      <rect class="st0" x="111.75" y="24.01" width="407.74" height="202.56"/>
    </clipPath>
    <clipPath id="clippath-1">
      <rect class="st0" x="111.75" y="24.01" width="407.74" height="202.56"/>
    </clipPath>
    <clipPath id="clippath-2">
      <rect class="st0" x="111.75" y="24.01" width="407.74" height="202.56"/>
    </clipPath>
    <clipPath id="clippath-3">
      <rect class="st0" x="111.75" y="24.01" width="407.74" height="202.56"/>
    </clipPath>
    <clipPath id="clippath-4">
      <rect class="st0" x="111.75" y="24.01" width="407.74" height="202.56"/>
    </clipPath>
    <clipPath id="clippath-5">
      <rect class="st0" x="111.75" y="24.01" width="407.74" height="202.56"/>
    </clipPath>
    <clipPath id="clippath-6">
      <rect class="st0" x="111.75" y="24.01" width="407.74" height="202.56"/>
    </clipPath>
    <clipPath id="clippath-7">
      <rect class="st0" x="111.75" y="24.01" width="407.74" height="202.56"/>
    </clipPath>
    <clipPath id="clippath-8">
      <rect class="st0" x="111.75" y="24.01" width="407.74" height="202.56"/>
    </clipPath>
  </defs>
  <g id="figure_1">
    <g id="axes_1">
      <g id="patch_2">
        <g class="st24">
          <path class="st7" d="M111.75,57.77h163.1v-27.01H111.75v27.01Z"/>
        </g>
      </g>
      <g id="patch_3">
        <g class="st16">
          <path class="st10" d="M234.08,91.53h163.1v-27.01h-163.1v27.01Z"/>
        </g>
      </g>
      <g id="patch_4">
        <g class="st19">
          <path class="st15" d="M234.08,91.53h40.77v-27.01h-40.77v27.01Z"/>
        </g>
      </g>
      <g id="patch_5">
        <g class="st17">
          <path class="st8" d="M356.4,125.29h163.1v-27.01h-163.1v27.01Z"/>
        </g>
      </g>
      <g id="patch_6">
        <g class="st18">
          <path class="st15" d="M356.4,125.29h40.77v-27.01h-40.77v27.01h0Z"/>
        </g>
      </g>
      <g id="patch_7">
        <g class="st23">
          <path class="st9" d="M478.72,159.05h163.1v-27.01h-163.1v27.01h0Z"/>
        </g>
      </g>
      <g id="patch_8">
        <g class="st21">
          <path class="st15" d="M478.72,159.05h40.77v-27.01h-40.77v27.01h0Z"/>
        </g>
      </g>
      <g id="patch_9">
        <g class="st20">
          <path class="st11" d="M601.04,192.81h163.1v-27.01h-163.1v27.01Z"/>
        </g>
      </g>
      <g id="patch_10">
        <g class="st22">
          <path class="st15" d="M601.04,192.81h40.77v-27.01h-40.77v27.01Z"/>
        </g>
      </g>
      <g id="text_1">
        <g>
          <path id="IPAexGothic-52" d="M121.32,65.88h-.78c-.19-.44-.41-.87-.65-1.3-.18-.34-.37-.58-.55-.71-.22-.16-.49-.25-.82-.25h-.52v2.27h-.64v-5.22h1.6c.54,0,.96.1,1.28.29.42.26.64.63.64,1.14,0,.46-.19.8-.58,1.05-.21.15-.46.24-.75.27v.02c.32.11.59.35.83.7.2.32.52.9.94,1.74h0ZM118,63.12h.79c.94,0,1.42-.34,1.42-1.01,0-.62-.45-.92-1.34-.92h-.86v1.95h0Z"/>
          <path id="IPAexGothic-65" d="M122.39,64.13c.02.42.16.75.39,1,.25.25.55.37.9.37.47,0,.83-.22,1.11-.65l.41.27c-.35.58-.88.87-1.59.87-.54,0-.99-.17-1.33-.52-.35-.35-.52-.81-.52-1.39,0-.61.18-1.1.55-1.46.33-.33.73-.48,1.21-.48.46,0,.84.16,1.15.46.35.35.52.82.52,1.41v.15h-2.8v-.02ZM124.54,63.67c-.04-.33-.16-.59-.35-.78-.19-.19-.43-.29-.69-.29-.31,0-.58.13-.79.39-.15.18-.25.4-.29.68,0,0,2.13,0,2.13,0Z"/>
          <path id="IPAexGothic-61" d="M129.16,65.88h-.55c-.08-.18-.14-.37-.16-.57h-.03c-.27.44-.69.67-1.23.67-.37,0-.69-.12-.92-.36-.21-.21-.31-.47-.31-.77,0-.75.65-1.15,1.95-1.19h.48v-.2c0-.26-.07-.46-.22-.6-.16-.16-.35-.23-.58-.23-.41,0-.71.2-.92.59l-.54-.25c.34-.56.83-.83,1.48-.83.45,0,.79.13,1.03.37.22.22.34.54.34.95v1.33c0,.46.06.81.19,1.07ZM128.4,64.09h-.4c-.94.03-1.42.28-1.42.77,0,.17.05.31.16.42.14.14.32.2.54.2.31,0,.58-.11.81-.34.19-.2.29-.45.29-.73v-.32h0Z"/>
          <path id="IPAexGothic-64" d="M133.45,65.88h-.57v-.63c-.34.49-.78.74-1.3.74-.44,0-.8-.16-1.11-.46-.37-.36-.54-.85-.54-1.47s.17-1.1.52-1.45c.3-.31.68-.46,1.12-.46.48,0,.9.2,1.25.6v-2.27h.62v5.4h0ZM132.83,64.46v-.9c0-.24-.15-.47-.45-.69-.21-.16-.44-.23-.69-.23-.28,0-.52.1-.71.29-.26.26-.38.63-.38,1.11,0,.43.11.79.32,1.06.21.26.47.39.78.39.37,0,.67-.17.92-.53.15-.2.22-.36.22-.48h0Z"/>
          <path id="IPAexGothic-31" d="M136.95,65.88h-.64v-4.61c-.4.14-.82.26-1.27.35l-.12-.49c.64-.16,1.18-.35,1.63-.57h.41v5.33h0Z"/>
        </g>
      </g>
      <g id="text_2">
        <g>
          <path id="IPAexGothic-521" d="M243.64,99.64h-.78c-.19-.44-.41-.87-.65-1.3-.18-.34-.37-.58-.55-.71-.22-.16-.49-.25-.82-.25h-.52v2.27h-.64v-5.22h1.6c.54,0,.96.1,1.28.29.42.26.64.63.64,1.14,0,.46-.19.8-.58,1.05-.21.15-.46.24-.75.27v.02c.32.11.59.35.83.7.2.32.52.9.94,1.74h0ZM240.32,96.88h.79c.94,0,1.42-.34,1.42-1.01,0-.62-.45-.92-1.34-.92h-.86v1.95h0Z"/>
          <path id="IPAexGothic-651" d="M244.71,97.89c.02.42.16.75.39,1,.25.25.55.37.9.37.47,0,.83-.22,1.11-.65l.41.27c-.35.58-.88.87-1.59.87-.54,0-.99-.17-1.33-.52s-.52-.81-.52-1.39c0-.61.18-1.1.55-1.46.33-.33.73-.48,1.21-.48.46,0,.84.16,1.15.46.35.35.52.82.52,1.41v.15h-2.8v-.02ZM246.86,97.42c-.04-.33-.16-.59-.35-.78-.19-.19-.43-.29-.69-.29-.31,0-.58.13-.79.39-.15.18-.25.4-.29.68h2.13Z"/>
          <path id="IPAexGothic-611" d="M251.49,99.64h-.55c-.08-.18-.14-.37-.16-.57h-.03c-.27.44-.69.67-1.23.67-.37,0-.69-.12-.92-.36-.21-.21-.31-.47-.31-.77,0-.75.65-1.15,1.95-1.19h.48v-.2c0-.26-.07-.46-.22-.6-.16-.16-.35-.23-.58-.23-.41,0-.71.2-.92.59l-.54-.25c.34-.56.83-.83,1.48-.83.45,0,.79.13,1.03.37.22.22.34.54.34.95v1.33c0,.46.06.81.19,1.07h0ZM250.72,97.85h-.4c-.94.03-1.42.28-1.42.77,0,.17.05.31.16.42.14.14.32.2.54.2.31,0,.58-.11.81-.34.19-.2.29-.45.29-.73v-.32h0Z"/>
          <path id="IPAexGothic-641" d="M255.77,99.64h-.57v-.63c-.34.49-.78.74-1.3.74-.44,0-.8-.16-1.11-.46-.37-.36-.54-.85-.54-1.47s.17-1.1.52-1.45c.3-.31.68-.46,1.12-.46.48,0,.9.2,1.25.6v-2.27h.62v5.4h0ZM255.15,98.22v-.9c0-.24-.15-.47-.45-.69-.21-.16-.44-.23-.69-.23-.28,0-.52.1-.71.29-.26.26-.38.63-.38,1.11,0,.43.11.79.32,1.06.21.26.47.39.78.39.37,0,.67-.17.92-.53.15-.2.22-.36.22-.48h0Z"/>
          <path id="IPAexGothic-32" d="M260.63,99.64h-3.66v-.6c.28-.67.84-1.28,1.65-1.84l.2-.14c.42-.28.69-.51.82-.67.15-.19.23-.39.23-.61,0-.25-.09-.47-.26-.64-.19-.19-.45-.29-.77-.29-.63,0-1.05.36-1.25,1.06l-.57-.2c.27-.93.89-1.39,1.85-1.39.52,0,.94.16,1.25.47.27.28.41.62.41,1.01,0,.29-.09.57-.26.8-.16.23-.53.53-1.11.9l-.16.09c-.74.46-1.21.95-1.43,1.47h3.06v.58h0Z"/>
        </g>
      </g>
      <g id="text_3">
        <g>
          <path id="IPAexGothic-522" d="M365.96,133.39h-.78c-.19-.44-.41-.87-.65-1.3-.18-.34-.37-.58-.55-.71-.22-.16-.49-.25-.82-.25h-.52v2.27h-.64v-5.22h1.6c.54,0,.96.1,1.28.29.42.26.64.63.64,1.14,0,.46-.19.8-.58,1.05-.21.15-.46.24-.75.27v.02c.32.11.59.35.83.7.2.32.52.9.94,1.74h0ZM362.65,130.64h.79c.94,0,1.42-.34,1.42-1.01,0-.62-.45-.92-1.34-.92h-.86v1.95h0Z"/>
          <path id="IPAexGothic-652" d="M367.03,131.65c.02.42.16.75.39,1,.25.25.55.37.9.37.47,0,.83-.22,1.11-.65l.41.27c-.35.58-.88.87-1.59.87-.54,0-.99-.17-1.33-.52s-.52-.81-.52-1.39c0-.61.18-1.1.55-1.46.33-.33.73-.48,1.21-.48.46,0,.84.16,1.15.46.35.35.52.82.52,1.41v.15h-2.8v-.02ZM369.19,131.18c-.04-.33-.16-.59-.35-.78-.19-.19-.43-.29-.69-.29-.31,0-.58.13-.79.39-.15.18-.25.4-.29.68h2.13Z"/>
          <path id="IPAexGothic-612" d="M373.81,133.39h-.55c-.08-.18-.14-.37-.16-.57h-.03c-.27.44-.69.67-1.23.67-.37,0-.69-.12-.92-.36-.21-.21-.31-.47-.31-.77,0-.75.65-1.15,1.95-1.19h.48v-.2c0-.26-.07-.46-.22-.6-.16-.16-.35-.23-.58-.23-.41,0-.71.2-.92.59l-.54-.25c.34-.56.83-.83,1.48-.83.45,0,.79.13,1.03.37.22.22.34.54.34.95v1.33c0,.46.06.81.19,1.07h0ZM373.04,131.61h-.4c-.94.03-1.42.28-1.42.77,0,.17.05.31.16.42.14.14.32.2.54.2.31,0,.58-.11.81-.34.19-.2.29-.45.29-.73v-.32h0Z"/>
          <path id="IPAexGothic-642" d="M378.09,133.39h-.57v-.63c-.34.49-.78.74-1.3.74-.44,0-.8-.16-1.11-.46-.37-.36-.54-.85-.54-1.47s.17-1.1.52-1.45c.3-.31.68-.46,1.12-.46.48,0,.9.2,1.25.6v-2.27h.62v5.4h0ZM377.47,131.98v-.9c0-.24-.15-.47-.45-.69-.21-.16-.44-.23-.69-.23-.28,0-.52.1-.71.29-.26.26-.38.63-.38,1.11,0,.43.11.79.32,1.06.21.26.47.39.78.39.37,0,.67-.17.92-.53.15-.2.22-.36.22-.48h0Z"/>
          <path id="IPAexGothic-33" d="M381.5,130.7c.86.16,1.29.58,1.29,1.31,0,.43-.15.78-.43,1.05-.32.29-.77.44-1.35.44-.88,0-1.51-.35-1.89-1.04l.53-.28c.26.52.72.79,1.35.79.37,0,.66-.09.86-.28.19-.18.29-.41.29-.69,0-.33-.15-.58-.44-.79-.26-.18-.62-.26-1.05-.26h-.32v-.52h.34c.44,0,.77-.08,1-.25.25-.17.37-.41.37-.71,0-.32-.14-.57-.42-.72-.18-.11-.39-.16-.64-.16-.53,0-.92.26-1.17.79l-.54-.26c.36-.7.92-1.05,1.72-1.05.5,0,.9.13,1.21.37.31.25.47.58.47.98s-.16.7-.46.94c-.19.16-.44.26-.73.3v.03h0Z"/>
        </g>
      </g>
      <g id="text_4">
        <g>
          <path id="IPAexGothic-523" d="M488.28,167.15h-.78c-.19-.44-.41-.87-.65-1.3-.18-.34-.37-.58-.55-.71-.22-.16-.49-.25-.82-.25h-.52v2.27h-.64v-5.22h1.6c.54,0,.96.1,1.28.29.42.26.64.63.64,1.14,0,.46-.19.8-.58,1.05-.21.15-.46.24-.75.27v.02c.32.11.59.35.83.7.2.32.52.9.94,1.74h0ZM484.97,164.4h.79c.94,0,1.42-.34,1.42-1.01,0-.62-.45-.92-1.34-.92h-.86v1.95h0Z"/>
          <path id="IPAexGothic-653" d="M489.35,165.41c.02.42.16.75.39,1,.25.25.55.37.9.37.47,0,.83-.22,1.11-.65l.41.27c-.35.58-.88.87-1.59.87-.54,0-.99-.17-1.33-.52s-.52-.81-.52-1.39c0-.61.18-1.1.55-1.46.33-.33.73-.48,1.21-.48.46,0,.84.16,1.15.46.35.35.52.82.52,1.41v.15h-2.8v-.02ZM491.51,164.94c-.04-.33-.16-.59-.35-.78-.19-.19-.43-.29-.69-.29-.31,0-.58.13-.79.39-.15.18-.25.4-.29.68h2.13Z"/>
          <path id="IPAexGothic-613" d="M496.13,167.15h-.55c-.08-.18-.14-.37-.16-.57h-.03c-.27.44-.69.67-1.23.67-.37,0-.69-.12-.92-.36-.21-.21-.31-.47-.31-.77,0-.75.65-1.15,1.95-1.19h.48v-.2c0-.26-.07-.46-.22-.6-.16-.16-.35-.23-.58-.23-.41,0-.71.2-.92.59l-.54-.25c.34-.56.83-.83,1.48-.83.45,0,.79.13,1.03.37.22.22.34.54.34.95v1.33c0,.46.06.81.19,1.07h0ZM495.36,165.37h-.4c-.94.03-1.42.28-1.42.77,0,.17.05.31.16.42.14.14.32.2.54.2.31,0,.58-.11.81-.34.19-.2.29-.45.29-.73v-.32h0Z"/>
          <path id="IPAexGothic-643" d="M500.41,167.15h-.57v-.63c-.34.49-.78.74-1.3.74-.44,0-.8-.16-1.11-.46-.37-.36-.54-.85-.54-1.47s.17-1.1.52-1.45c.3-.31.68-.46,1.12-.46.48,0,.9.2,1.25.6v-2.27h.62v5.4h0ZM499.79,165.74v-.9c0-.24-.15-.47-.45-.69-.21-.16-.44-.23-.69-.23-.28,0-.52.1-.71.29-.26.26-.38.63-.38,1.11,0,.43.11.79.32,1.06.21.26.47.39.78.39.37,0,.67-.17.92-.53.15-.2.22-.36.22-.48h0Z"/>
          <path id="IPAexGothic-34" d="M505.46,165.9h-.86v1.25h-.58v-1.25h-2.69v-.58l2.58-3.43h.69v3.47h.86v.54h0ZM504.04,162.53h-.02c-.21.35-.43.66-.63.94l-1.42,1.88h2.04v-1.73c0-.26,0-.62.04-1.11h0Z"/>
        </g>
      </g>
      <g class="st14">
        <text class="st13" transform="translate(207.55 145.25)"><tspan x="0" y="0">AAGAAGCC....A</tspan></text>
        <text class="st13" transform="translate(207.55 158.4)"><tspan x="0" y="0" xml:space="preserve">  |||||||||||</tspan></text>
        <text class="st13" transform="translate(207.55 171.56)"><tspan x="0" y="0" xml:space="preserve">  GAAGCC....ATCG</tspan></text>
      </g>
      <g>
        <polyline class="st4" points="282.8 118.45 282.8 119.82 281.43 119.82"/>
        <line class="st1" x1="278.58" y1="119.82" x2="228.69" y2="119.82"/>
        <polyline class="st4" points="227.26 119.82 225.89 119.82 225.89 118.45"/>
        <line class="st5" x1="225.89" y1="115.63" x2="225.89" y2="26.79"/>
        <polyline class="st4" points="225.89 25.39 225.89 24.01 227.26 24.01"/>
        <line class="st1" x1="230.11" y1="24.01" x2="280" y2="24.01"/>
        <polyline class="st4" points="281.43 24.01 282.8 24.01 282.8 25.39"/>
        <line class="st5" x1="282.8" y1="28.21" x2="282.8" y2="117.04"/>
      </g>
      <line class="st2" x1="189.21" y1="145.25" x2="225.89" y2="119.82"/>
      <line class="st2" x1="320.74" y1="145.25" x2="282.8" y2="119.82"/>
      <g>
        <line class="st0" x1="331.7" y1="183.58" x2="331.7" y2="198.19"/>
        <g>
          <line class="st6" x1="331.7" y1="183.58" x2="331.7" y2="192.67"/>
          <path d="M331.7,198.19c-.96-2.59-2.6-5.81-4.35-7.81l4.35,1.57,4.34-1.57c-1.74,1.99-3.38,5.22-4.34,7.81Z"/>
        </g>
      </g>
      <path class="st3" d="M113.26,208.24h406.23"/>
      <g class="st14">
        <text class="st12" transform="translate(339.15 224.41)"><tspan x="0" y="0">繋ぎ合わさった配列</tspan></text>
        <text class="st13" transform="translate(437.8 224.17)"><tspan x="0" y="0" xml:space="preserve"> (de novo</tspan></text>
        <text class="st12" transform="translate(497 224.41)"><tspan x="0" y="0">配列</tspan></text>
        <text class="st13" transform="translate(518.92 224.17)"><tspan x="0" y="0">)</tspan></text>
      </g>
    </g>
  </g>
  <g class="st14">
    <text class="st12" transform="translate(225.89 17.68)"><tspan x="0" y="0">アセンブリ</tspan></text>
    <text class="st13" transform="translate(280.7 17.44)"><tspan x="0" y="0" xml:space="preserve"> (</tspan></text>
    <text class="st12" transform="translate(293.85 17.68)"><tspan x="0" y="0">繋ぎ合わせて配列を生成</tspan></text>
    <text class="st13" transform="translate(414.42 17.44)"><tspan x="0" y="0">)</tspan></text>
  </g>
</svg>