<?xml version="1.0" encoding="UTF-8"?>
<svg id="_レイヤー_1" data-name="レイヤー_1" xmlns="http://www.w3.org/2000/svg" xmlns:xlink="http://www.w3.org/1999/xlink" version="1.1" viewBox="0 0 651.44 236.16">
  <!-- Generator: Adobe Illustrator 29.7.1, SVG Export Plug-In . SVG Version: 2.1.1 Build 8)  -->
  <defs>
    <style>
      .st0, .st1, .st2, .st3, .st4, .st5, .st6 {
        fill: none;
      }

      .st7 {
        fill: #add8e6;
      }

      .st7, .st8, .st9, .st10, .st6, .st11 {
        stroke: #000;
      }

      .st12, .st13 {
        font-size: 12px;
      }

      .st12, .st14 {
        font-family: CourierNewPSMT, 'Courier New';
      }

      .st8 {
        fill: #ffb6c1;
      }

      .st1 {
        stroke-dasharray: 3.09 3.09;
      }

      .st1, .st2, .st3, .st5 {
        stroke: red;
      }

      .st1, .st2, .st3, .st5, .st6 {
        stroke-miterlimit: 10;
      }

      .st2 {
        stroke-dasharray: 3;
      }

      .st3 {
        stroke-dasharray: 3.12 3.12;
      }

      .st9 {
        fill: khaki;
      }

      .st4 {
        stroke: #1f77b4;
        stroke-linejoin: round;
        stroke-width: 2px;
      }

      .st15 {
        clip-path: url(#clippath-1);
      }

      .st16 {
        clip-path: url(#clippath-3);
      }

      .st17 {
        clip-path: url(#clippath-4);
      }

      .st18 {
        clip-path: url(#clippath-2);
      }

      .st19 {
        clip-path: url(#clippath-7);
      }

      .st20 {
        clip-path: url(#clippath-6);
      }

      .st21 {
        clip-path: url(#clippath-8);
      }

      .st22 {
        clip-path: url(#clippath-5);
      }

      .st10 {
        fill: #90ee90;
      }

      .st23 {
        fill: gray;
        isolation: isolate;
        opacity: .5;
      }

      .st24 {
        clip-path: url(#clippath);
      }

      .st25 {
        font-family: KozGoPr6N-Regular-83pv-RKSJ-H, 'Kozuka Gothic Pr6N';
      }

      .st11 {
        fill: #e6e6fa;
      }
    </style>
    <clipPath id="clippath">
      <rect class="st0" x="7.2" y="7.2" width="446.4" height="221.76"/>
    </clipPath>
    <clipPath id="clippath-1">
      <rect class="st0" x="7.2" y="7.2" width="446.4" height="221.76"/>
    </clipPath>
    <clipPath id="clippath-2">
      <rect class="st0" x="7.2" y="7.2" width="446.4" height="221.76"/>
    </clipPath>
    <clipPath id="clippath-3">
      <rect class="st0" x="7.2" y="7.2" width="446.4" height="221.76"/>
    </clipPath>
    <clipPath id="clippath-4">
      <rect class="st0" x="7.2" y="7.2" width="446.4" height="221.76"/>
    </clipPath>
    <clipPath id="clippath-5">
      <rect class="st0" x="7.2" y="7.2" width="446.4" height="221.76"/>
    </clipPath>
    <clipPath id="clippath-6">
      <rect class="st0" x="7.2" y="7.2" width="446.4" height="221.76"/>
    </clipPath>
    <clipPath id="clippath-7">
      <rect class="st0" x="7.2" y="7.2" width="446.4" height="221.76"/>
    </clipPath>
    <clipPath id="clippath-8">
      <rect class="st0" x="7.2" y="7.2" width="446.4" height="221.76"/>
    </clipPath>
  </defs>
  <g id="figure_1">
    <g id="axes_1">
      <g id="patch_2">
        <g class="st24">
          <path class="st7" d="M7.2,44.16h178.56V14.59H7.2v29.57Z"/>
        </g>
      </g>
      <g id="patch_3">
        <g class="st15">
          <path class="st10" d="M141.12,81.12h178.56v-29.57h-178.56v29.57Z"/>
        </g>
      </g>
      <g id="patch_4">
        <g class="st18">
          <path class="st23" d="M141.12,81.12h44.64v-29.57h-44.64v29.57Z"/>
        </g>
      </g>
      <g id="patch_5">
        <g class="st16">
          <path class="st8" d="M275.04,118.08h178.56v-29.57h-178.56v29.57Z"/>
        </g>
      </g>
      <g id="patch_6">
        <g class="st17">
          <path class="st23" d="M275.04,118.08h44.64v-29.57h-44.64v29.57Z"/>
        </g>
      </g>
      <g id="patch_7">
        <g class="st22">
          <path class="st9" d="M408.96,155.04h178.56v-29.57h-178.56v29.57Z"/>
        </g>
      </g>
      <g id="patch_8">
        <g class="st20">
          <path class="st23" d="M408.96,155.04h44.64v-29.57h-44.64v29.57Z"/>
        </g>
      </g>
      <g id="patch_9">
        <g class="st19">
          <path class="st11" d="M542.88,192h178.56v-29.57h-178.56v29.57Z"/>
        </g>
      </g>
      <g id="patch_10">
        <g class="st21">
          <path class="st23" d="M542.88,192h44.64v-29.57h-44.64v29.57Z"/>
        </g>
      </g>
      <g id="text_1">
        <g>
          <path id="IPAexGothic-52" d="M17.67,53.03h-.85c-.21-.48-.45-.95-.71-1.42-.2-.37-.4-.63-.6-.78-.24-.18-.54-.27-.9-.27h-.57v2.48h-.7v-5.71h1.75c.59,0,1.05.11,1.4.32.46.28.7.69.7,1.25,0,.5-.21.88-.63,1.15-.23.16-.5.26-.82.3v.02c.35.12.65.38.91.77.22.35.57.98,1.03,1.9ZM14.04,50.01h.87c1.03,0,1.55-.37,1.55-1.11,0-.68-.49-1.01-1.47-1.01h-.94v2.13Z"/>
          <path id="IPAexGothic-65" d="M18.84,51.12c.02.46.17.82.43,1.09.27.27.6.41.98.41.51,0,.91-.24,1.21-.71l.45.3c-.38.63-.96.95-1.74.95-.59,0-1.08-.19-1.46-.57-.38-.38-.57-.89-.57-1.52,0-.67.2-1.2.6-1.6.36-.36.8-.53,1.33-.53.5,0,.92.17,1.26.5.38.38.57.9.57,1.54v.16h-3.07ZM21.2,50.61c-.04-.36-.17-.65-.38-.85-.21-.21-.47-.32-.76-.32-.34,0-.63.14-.87.43-.16.2-.27.44-.32.74h2.33Z"/>
          <path id="IPAexGothic-61" d="M26.26,53.03h-.6c-.09-.2-.15-.41-.18-.62h-.03c-.3.48-.75.73-1.35.73-.41,0-.75-.13-1.01-.39-.23-.23-.34-.51-.34-.84,0-.82.71-1.26,2.13-1.3h.53v-.22c0-.28-.08-.5-.24-.66-.17-.17-.38-.25-.64-.25-.45,0-.78.22-1.01.65l-.59-.27c.37-.61.91-.91,1.62-.91.49,0,.87.14,1.13.41.24.24.37.59.37,1.04v1.46c0,.5.07.89.21,1.17ZM25.42,51.08h-.44c-1.03.03-1.55.31-1.55.84,0,.19.06.34.18.46.15.15.35.22.59.22.34,0,.64-.12.89-.37.21-.22.32-.49.32-.8v-.35Z"/>
          <path id="IPAexGothic-64" d="M30.95,53.03h-.62v-.69c-.37.54-.85.81-1.42.81-.48,0-.88-.17-1.21-.5-.4-.39-.59-.93-.59-1.61s.19-1.2.57-1.59c.33-.34.74-.5,1.23-.5.53,0,.98.22,1.37.66v-2.48h.68v5.91ZM30.27,51.48v-.99c0-.26-.16-.52-.49-.76-.23-.17-.48-.25-.75-.25-.31,0-.57.11-.78.32-.28.28-.42.69-.42,1.21,0,.47.12.86.35,1.16.23.28.51.43.85.43.4,0,.73-.19,1.01-.58.16-.22.24-.39.24-.53Z"/>
          <path id="IPAexGothic-31" d="M34.78,53.03h-.7v-5.05c-.44.15-.9.28-1.39.38l-.13-.54c.7-.17,1.29-.38,1.78-.62h.45v5.83Z"/>
        </g>
      </g>
      <g id="text_2">
        <g>
          <path id="IPAexGothic-521" data-name="IPAexGothic-52" d="M151.59,89.99h-.85c-.21-.48-.45-.95-.71-1.42-.2-.37-.4-.63-.6-.78-.24-.18-.54-.27-.9-.27h-.57v2.48h-.7v-5.71h1.75c.59,0,1.05.11,1.4.32.46.28.7.69.7,1.25,0,.5-.21.88-.63,1.15-.23.16-.5.26-.82.3v.02c.35.12.65.38.91.77.22.35.57.98,1.03,1.9ZM147.96,86.97h.87c1.03,0,1.55-.37,1.55-1.11,0-.68-.49-1.01-1.47-1.01h-.94v2.13Z"/>
          <path id="IPAexGothic-651" data-name="IPAexGothic-65" d="M152.76,88.08c.02.46.17.82.43,1.09.27.27.6.41.98.41.51,0,.91-.24,1.21-.71l.45.3c-.38.63-.96.95-1.74.95-.59,0-1.08-.19-1.46-.57-.38-.38-.57-.89-.57-1.52,0-.67.2-1.2.6-1.6.36-.36.8-.53,1.33-.53.5,0,.92.17,1.26.5.38.38.57.9.57,1.54v.16h-3.07ZM155.12,87.57c-.04-.36-.17-.65-.38-.85-.21-.21-.47-.32-.76-.32-.34,0-.63.14-.87.43-.16.2-.27.44-.32.74h2.33Z"/>
          <path id="IPAexGothic-611" data-name="IPAexGothic-61" d="M160.18,89.99h-.6c-.09-.2-.15-.41-.18-.62h-.03c-.3.48-.75.73-1.35.73-.41,0-.75-.13-1.01-.39-.23-.23-.34-.51-.34-.84,0-.82.71-1.26,2.13-1.3h.53v-.22c0-.28-.08-.5-.24-.66-.17-.17-.38-.25-.64-.25-.45,0-.78.22-1.01.65l-.59-.27c.37-.61.91-.91,1.62-.91.49,0,.87.14,1.13.41.24.24.37.59.37,1.04v1.46c0,.5.07.89.21,1.17ZM159.34,88.04h-.44c-1.03.03-1.55.31-1.55.84,0,.19.06.34.18.46.15.15.35.22.59.22.34,0,.64-.12.89-.37.21-.22.32-.49.32-.8v-.35Z"/>
          <path id="IPAexGothic-641" data-name="IPAexGothic-64" d="M164.87,89.99h-.62v-.69c-.37.54-.85.81-1.42.81-.48,0-.88-.17-1.21-.5-.4-.39-.59-.93-.59-1.61s.19-1.2.57-1.59c.33-.34.74-.5,1.23-.5.53,0,.98.22,1.37.66v-2.48h.68v5.91ZM164.19,88.44v-.99c0-.26-.16-.52-.49-.76-.23-.17-.48-.25-.75-.25-.31,0-.57.11-.78.32-.28.28-.42.69-.42,1.21,0,.47.12.86.35,1.16.23.28.51.43.85.43.4,0,.73-.19,1.01-.58.16-.22.24-.39.24-.53Z"/>
          <path id="IPAexGothic-32" d="M170.19,89.99h-4.01v-.66c.31-.73.92-1.4,1.81-2.01l.22-.15c.46-.31.76-.56.9-.73.16-.21.25-.43.25-.67,0-.27-.1-.51-.29-.7-.21-.21-.49-.32-.84-.32-.69,0-1.15.39-1.37,1.16l-.62-.22c.3-1.02.97-1.52,2.02-1.52.57,0,1.03.17,1.37.51.3.31.45.68.45,1.11,0,.32-.1.62-.29.88-.18.25-.58.58-1.22.98l-.17.1c-.81.5-1.33,1.04-1.57,1.61h3.35v.63Z"/>
        </g>
      </g>
      <g id="text_3">
        <g>
          <path id="IPAexGothic-522" data-name="IPAexGothic-52" d="M285.51,126.95h-.85c-.21-.48-.45-.95-.71-1.42-.2-.37-.4-.63-.6-.78-.24-.18-.54-.27-.9-.27h-.57v2.48h-.7v-5.71h1.75c.59,0,1.05.11,1.4.32.46.28.7.69.7,1.25,0,.5-.21.88-.63,1.15-.23.16-.5.26-.82.3v.02c.35.12.65.38.91.77.22.35.57.98,1.03,1.9ZM281.88,123.93h.87c1.03,0,1.55-.37,1.55-1.11,0-.68-.49-1.01-1.47-1.01h-.94v2.13Z"/>
          <path id="IPAexGothic-652" data-name="IPAexGothic-65" d="M286.68,125.04c.02.46.17.82.43,1.09.27.27.6.41.98.41.51,0,.91-.24,1.21-.71l.45.3c-.38.63-.96.95-1.74.95-.59,0-1.08-.19-1.46-.57-.38-.38-.57-.89-.57-1.52,0-.67.2-1.2.6-1.6.36-.36.8-.53,1.33-.53.5,0,.92.17,1.26.5.38.38.57.9.57,1.54v.16h-3.07ZM289.04,124.53c-.04-.36-.17-.65-.38-.85-.21-.21-.47-.32-.76-.32-.34,0-.63.14-.87.43-.16.2-.27.44-.32.74h2.33Z"/>
          <path id="IPAexGothic-612" data-name="IPAexGothic-61" d="M294.1,126.95h-.6c-.09-.2-.15-.41-.18-.62h-.03c-.3.48-.75.73-1.35.73-.41,0-.75-.13-1.01-.39-.23-.23-.34-.51-.34-.84,0-.82.71-1.26,2.13-1.3h.53v-.22c0-.28-.08-.5-.24-.66-.17-.17-.38-.25-.64-.25-.45,0-.78.22-1.01.65l-.59-.27c.37-.61.91-.91,1.62-.91.49,0,.87.14,1.13.41.24.24.37.59.37,1.04v1.46c0,.5.07.89.21,1.17ZM293.26,125h-.44c-1.03.03-1.55.31-1.55.84,0,.19.06.34.18.46.15.15.35.22.59.22.34,0,.64-.12.89-.37.21-.22.32-.49.32-.8v-.35Z"/>
          <path id="IPAexGothic-642" data-name="IPAexGothic-64" d="M298.79,126.95h-.62v-.69c-.37.54-.85.81-1.42.81-.48,0-.88-.17-1.21-.5-.4-.39-.59-.93-.59-1.61s.19-1.2.57-1.59c.33-.34.74-.5,1.23-.5.53,0,.98.22,1.37.66v-2.48h.68v5.91ZM298.11,125.4v-.99c0-.26-.16-.52-.49-.76-.23-.17-.48-.25-.75-.25-.31,0-.57.11-.78.32-.28.28-.42.69-.42,1.21,0,.47.12.86.35,1.16.23.28.51.43.85.43.4,0,.73-.19,1.01-.58.16-.22.24-.39.24-.53Z"/>
          <path id="IPAexGothic-33" d="M302.52,124c.94.17,1.41.64,1.41,1.43,0,.47-.16.85-.47,1.15-.35.32-.84.48-1.48.48-.96,0-1.65-.38-2.07-1.14l.58-.31c.29.57.79.86,1.48.86.41,0,.72-.1.94-.31.21-.2.32-.45.32-.75,0-.36-.16-.64-.48-.86-.29-.2-.68-.29-1.15-.29h-.35v-.57h.37c.48,0,.84-.09,1.1-.27.27-.19.41-.45.41-.78,0-.35-.15-.62-.46-.79-.2-.12-.43-.17-.7-.17-.58,0-1.01.29-1.28.87l-.59-.28c.39-.77,1.01-1.15,1.88-1.15.55,0,.99.14,1.33.41.34.27.51.63.51,1.07,0,.42-.17.77-.5,1.03-.21.17-.48.28-.8.33v.03Z"/>
        </g>
      </g>
      <g id="text_4">
        <g>
          <path id="IPAexGothic-523" data-name="IPAexGothic-52" d="M419.43,163.91h-.85c-.21-.48-.45-.95-.71-1.42-.2-.37-.4-.63-.6-.78-.24-.18-.54-.27-.9-.27h-.57v2.48h-.7v-5.71h1.75c.59,0,1.05.11,1.4.32.46.28.7.69.7,1.25,0,.5-.21.88-.63,1.15-.23.16-.5.26-.82.3v.02c.35.12.65.38.91.77.22.35.57.98,1.03,1.9ZM415.8,160.89h.87c1.03,0,1.55-.37,1.55-1.11,0-.68-.49-1.01-1.47-1.01h-.94v2.13Z"/>
          <path id="IPAexGothic-653" data-name="IPAexGothic-65" d="M420.6,162c.02.46.17.82.43,1.09.27.27.6.41.98.41.51,0,.91-.24,1.21-.71l.45.3c-.38.63-.96.95-1.74.95-.59,0-1.08-.19-1.46-.57-.38-.38-.57-.89-.57-1.52,0-.67.2-1.2.6-1.6.36-.36.8-.53,1.33-.53.5,0,.92.17,1.26.5.38.38.57.9.57,1.54v.16h-3.07ZM422.96,161.49c-.04-.36-.17-.65-.38-.85-.21-.21-.47-.32-.76-.32-.34,0-.63.14-.87.43-.16.2-.27.44-.32.74h2.33Z"/>
          <path id="IPAexGothic-613" data-name="IPAexGothic-61" d="M428.02,163.91h-.6c-.09-.2-.15-.41-.18-.62h-.03c-.3.48-.75.73-1.35.73-.41,0-.75-.13-1.01-.39-.23-.23-.34-.51-.34-.84,0-.82.71-1.26,2.13-1.3h.53v-.22c0-.28-.08-.5-.24-.66-.17-.17-.38-.25-.64-.25-.45,0-.78.22-1.01.65l-.59-.27c.37-.61.91-.91,1.62-.91.49,0,.87.14,1.13.41.24.24.37.59.37,1.04v1.46c0,.5.07.89.21,1.17ZM427.18,161.96h-.44c-1.03.03-1.55.31-1.55.84,0,.19.06.34.18.46.15.15.35.22.59.22.34,0,.64-.12.89-.37.21-.22.32-.49.32-.8v-.35Z"/>
          <path id="IPAexGothic-643" data-name="IPAexGothic-64" d="M432.71,163.91h-.62v-.69c-.37.54-.85.81-1.42.81-.48,0-.88-.17-1.21-.5-.4-.39-.59-.93-.59-1.61s.19-1.2.57-1.59c.33-.34.74-.5,1.23-.5.53,0,.98.22,1.37.66v-2.48h.68v5.91ZM432.03,162.36v-.99c0-.26-.16-.52-.49-.76-.23-.17-.48-.25-.75-.25-.31,0-.57.11-.78.32-.28.28-.42.69-.42,1.21,0,.47.12.86.35,1.16.23.28.51.43.85.43.4,0,.73-.19,1.01-.58.16-.22.24-.39.24-.53Z"/>
          <path id="IPAexGothic-34" d="M438.23,162.54h-.94v1.37h-.64v-1.37h-2.94v-.64l2.82-3.76h.75v3.8h.94v.59ZM436.68,158.85h-.02c-.23.38-.47.72-.69,1.03l-1.55,2.06h2.23v-1.89c0-.28.01-.68.04-1.21Z"/>
        </g>
      </g>
      <text class="st12" transform="translate(112.08 139.93)"><tspan x="0" y="0">AAGAAGCC....A</tspan><tspan x="0" y="14.4" xml:space="preserve">  |||||||||||</tspan><tspan x="0" y="28.8" xml:space="preserve">  GAAGCC....ATCG</tspan></text>
      <g>
        <polyline class="st5" points="194.46 110.59 194.46 112.09 192.96 112.09"/>
        <line class="st3" x1="189.84" y1="112.09" x2="135.22" y2="112.09"/>
        <polyline class="st5" points="133.66 112.09 132.16 112.09 132.16 110.59"/>
        <line class="st1" x1="132.16" y1="107.5" x2="132.16" y2="10.24"/>
        <polyline class="st5" points="132.16 8.7 132.16 7.2 133.66 7.2"/>
        <line class="st3" x1="136.78" y1="7.2" x2="191.4" y2="7.2"/>
        <polyline class="st5" points="192.96 7.2 194.46 7.2 194.46 8.7"/>
        <line class="st1" x1="194.46" y1="11.79" x2="194.46" y2="109.05"/>
      </g>
      <line class="st2" x1="92" y1="139.93" x2="132.16" y2="112.09"/>
      <line class="st2" x1="236" y1="139.93" x2="194.46" y2="112.09"/>
      <g>
        <line x1="248" y1="181.89" x2="248" y2="197.89"/>
        <g>
          <line class="st6" x1="248" y1="181.89" x2="248" y2="191.85"/>
          <path d="M248,197.89c-1.05-2.84-2.85-6.36-4.76-8.55l4.76,1.72,4.75-1.72c-1.9,2.18-3.7,5.71-4.75,8.55Z"/>
        </g>
      </g>
      <path class="st4" d="M8.85,208.89h444.75"/>
      <text class="st13" transform="translate(256.16 226.33)"><tspan class="st25" x="0" y="0">繋ぎ合わさった配列</tspan><tspan class="st14" x="108" y="0" xml:space="preserve"> (de novo</tspan><tspan class="st25" x="172.81" y="0">配列</tspan><tspan class="st14" x="196.81" y="0">)</tspan></text>
    </g>
  </g>
  <text class="st13" transform="translate(132.16)"><tspan class="st25" x="0" y="0">アセンブリ</tspan><tspan class="st14" x="60" y="0" xml:space="preserve"> (</tspan><tspan class="st25" x="74.4" y="0">繋ぎ合わせて配列を生成</tspan><tspan class="st14" x="206.4" y="0">)</tspan></text>
</svg>