<?xml version="1.0" encoding="UTF-8"?>
<svg id="_レイヤー_1" data-name="レイヤー_1" xmlns="http://www.w3.org/2000/svg" xmlns:xlink="http://www.w3.org/1999/xlink" version="1.1" viewBox="0 0 516.6 208.44">
  <!-- Generator: Adobe Illustrator 29.7.1, SVG Export Plug-In . SVG Version: 2.1.1 Build 8)  -->
  <defs>
    <style>
      .st0, .st1, .st2, .st3 {
        fill: none;
      }

      .st1 {
        stroke-width: 8px;
      }

      .st1, .st2, .st3, .st4 {
        stroke: #1f77b4;
        stroke-linejoin: round;
      }

      .st2 {
        stroke-linecap: square;
        stroke-width: 1.5px;
      }

      .st3 {
        stroke-width: 2px;
      }

      .st5 {
        clip-path: url(#clippath-1);
      }

      .st6 {
        clip-path: url(#clippath-3);
      }

      .st7 {
        clip-path: url(#clippath-4);
      }

      .st8 {
        clip-path: url(#clippath-2);
      }

      .st9 {
        clip-path: url(#clippath-7);
      }

      .st10 {
        clip-path: url(#clippath-6);
      }

      .st11 {
        clip-path: url(#clippath-5);
      }

      .st4 {
        fill: #1f77b4;
      }

      .st12 {
        fill: #fff;
      }

      .st13 {
        clip-path: url(#clippath);
      }
    </style>
    <clipPath id="clippath">
      <rect class="st0" x="7.2" y="7.2" width="502.2" height="194.04"/>
    </clipPath>
    <clipPath id="clippath-1">
      <rect class="st0" x="7.2" y="7.2" width="502.2" height="194.04"/>
    </clipPath>
    <clipPath id="clippath-2">
      <rect class="st0" x="7.2" y="7.2" width="502.2" height="194.04"/>
    </clipPath>
    <clipPath id="clippath-3">
      <rect class="st0" x="7.2" y="7.2" width="502.2" height="194.04"/>
    </clipPath>
    <clipPath id="clippath-4">
      <rect class="st0" x="7.2" y="7.2" width="502.2" height="194.04"/>
    </clipPath>
    <clipPath id="clippath-5">
      <rect class="st0" x="7.2" y="7.2" width="502.2" height="194.04"/>
    </clipPath>
    <clipPath id="clippath-6">
      <rect class="st0" x="7.2" y="7.2" width="502.2" height="194.04"/>
    </clipPath>
    <clipPath id="clippath-7">
      <rect class="st0" x="7.2" y="7.2" width="502.2" height="194.04"/>
    </clipPath>
  </defs>
  <g id="figure_1">
    <g id="patch_1">
      <path class="st12" d="M0,208.44h516.6V0H0v208.44Z"/>
    </g>
    <g id="axes_1">
      <g id="LineCollection_1">
        <g class="st13">
          <path class="st3" d="M11.98,77.27h478.29"/>
        </g>
      </g>
      <g id="LineCollection_2">
        <g class="st5">
          <path class="st1" d="M31.11,104.22h95.66"/>
        </g>
      </g>
      <g id="LineCollection_3">
        <g class="st8">
          <path class="st1" d="M93.29,136.56h114.79"/>
        </g>
      </g>
      <g id="LineCollection_4">
        <g class="st6">
          <path class="st1" d="M198.51,168.9h133.92"/>
        </g>
      </g>
      <g id="LineCollection_5">
        <g class="st7">
          <path class="st1" d="M294.17,104.22h133.92"/>
        </g>
      </g>
      <g id="LineCollection_6">
        <g class="st11">
          <path class="st1" d="M365.91,136.56h110.01"/>
        </g>
      </g>
      <g id="line2d_1">
        <g class="st10">
          <path class="st2" d="M153.08,136.56"/>
        </g>
        <g class="st9">
          <path id="m14a10bd55b" class="st4" d="M149.08,140.56l8-8M149.08,132.56l8,8"/>
        </g>
      </g>
      <g id="text_1">
        <g>
          <path id="IPAexGothic-52" d="M16.21,71.94h-1.06c-.27-.6-.56-1.19-.88-1.77-.25-.46-.51-.79-.76-.98-.31-.23-.68-.34-1.12-.34h-.71v3.1h-.88v-7.14h2.19c.73,0,1.32.13,1.75.4.58.35.87.87.87,1.56,0,.62-.26,1.1-.79,1.44-.29.19-.63.32-1.03.38v.03c.44.15.81.47,1.13.96.28.43.71,1.22,1.29,2.37ZM11.68,68.16h1.09c1.29,0,1.93-.46,1.93-1.39,0-.85-.61-1.27-1.84-1.27h-1.18v2.66Z"/>
          <path id="IPAexGothic-65" d="M17.68,69.54c.03.58.21,1.03.54,1.36.34.34.75.51,1.23.51.63,0,1.14-.3,1.51-.89l.56.37c-.47.79-1.2,1.19-2.17,1.19-.74,0-1.35-.24-1.82-.71-.48-.48-.72-1.12-.72-1.9,0-.84.25-1.51.75-2.01.45-.45,1-.67,1.67-.67.63,0,1.15.21,1.58.62.48.48.71,1.12.71,1.93v.2h-3.84ZM20.63,68.91c-.05-.45-.21-.81-.48-1.07-.27-.27-.58-.4-.95-.4-.42,0-.78.18-1.08.54-.21.24-.34.55-.4.93h2.91Z"/>
          <path id="IPAexGothic-66" d="M25.85,64.81l-.36.59c-.25-.19-.5-.28-.76-.28-.58,0-.87.39-.87,1.17v.66h1.36v.61h-1.36v4.37h-.85v-4.37h-.81v-.61h.81v-.64c0-.55.13-.98.39-1.29.32-.38.75-.56,1.28-.56.42,0,.81.12,1.17.35Z"/>
          <path id="IPAexGothic-651" data-name="IPAexGothic-65" d="M26.43,69.54c.03.58.21,1.03.54,1.36.34.34.75.51,1.23.51.63,0,1.14-.3,1.51-.89l.56.37c-.47.79-1.2,1.19-2.17,1.19-.74,0-1.35-.24-1.82-.71-.48-.48-.72-1.12-.72-1.9,0-.84.25-1.51.75-2.01.45-.45,1-.67,1.67-.67.63,0,1.15.21,1.58.62.48.48.71,1.12.71,1.93v.2h-3.84ZM29.38,68.91c-.05-.45-.21-.81-.48-1.07-.27-.27-.58-.4-.95-.4-.42,0-.78.18-1.08.54-.21.24-.34.55-.4.93h2.91Z"/>
          <path id="IPAexGothic-72" d="M34.37,66.85l-.15.85c-.11-.02-.21-.03-.3-.03-.38,0-.7.18-.95.54-.31.46-.47.86-.47,1.2v2.52h-.86v-4.98h.81l-.04,1.48h.02c.37-1.08.9-1.62,1.61-1.62.11,0,.22.01.33.04Z"/>
          <path id="IPAexGothic-652" data-name="IPAexGothic-65" d="M35.81,69.54c.03.58.21,1.03.54,1.36.34.34.75.51,1.23.51.63,0,1.14-.3,1.51-.89l.56.37c-.47.79-1.2,1.19-2.17,1.19-.74,0-1.35-.24-1.82-.71-.48-.48-.72-1.12-.72-1.9,0-.84.25-1.51.75-2.01.45-.45,1-.67,1.67-.67.63,0,1.15.21,1.58.62.48.48.71,1.12.71,1.93v.2h-3.84ZM38.77,68.91c-.05-.45-.21-.81-.48-1.07-.27-.27-.58-.4-.95-.4-.42,0-.78.18-1.08.54-.21.24-.34.55-.4.93h2.91Z"/>
          <path id="IPAexGothic-6e" d="M45.35,71.94h-.86v-3.09c0-.85-.35-1.27-1.05-1.27s-1.22.42-1.55,1.27v3.09h-.86v-4.98h.8v.9c.47-.67,1.07-1,1.79-1,1.15,0,1.73.65,1.73,1.94v3.14Z"/>
          <path id="IPAexGothic-63" d="M51.3,70.81c-.45.85-1.17,1.27-2.14,1.27-.7,0-1.28-.23-1.74-.69-.49-.5-.74-1.16-.74-1.96s.25-1.45.74-1.95c.45-.45,1.02-.68,1.71-.68.97,0,1.66.42,2.07,1.26l-.69.36c-.29-.62-.74-.92-1.35-.92-.4,0-.75.15-1.04.44-.37.37-.55.87-.55,1.51,0,.61.18,1.09.53,1.44.31.31.69.47,1.15.47.62,0,1.08-.31,1.39-.92l.66.36Z"/>
          <path id="IPAexGothic-653" data-name="IPAexGothic-65" d="M52.98,69.54c.03.58.21,1.03.54,1.36.34.34.75.51,1.23.51.63,0,1.14-.3,1.51-.89l.56.37c-.47.79-1.2,1.19-2.17,1.19-.74,0-1.35-.24-1.82-.71-.48-.48-.72-1.12-.72-1.9,0-.84.25-1.51.75-2.01.45-.45,1-.67,1.67-.67.63,0,1.15.21,1.58.62.48.48.71,1.12.71,1.93v.2h-3.84ZM55.94,68.91c-.05-.45-.21-.81-.48-1.07-.27-.27-.58-.4-.95-.4-.42,0-.78.18-1.08.54-.21.24-.34.55-.4.93h2.91Z"/>
        </g>
      </g>
      <g id="text_2">
        <g>
          <path id="IPAexGothic-721" data-name="IPAexGothic-72" d="M71.11,111.51l-.12.68c-.09-.02-.17-.03-.24-.03-.31,0-.56.14-.76.43-.25.36-.37.69-.37.96v2.01h-.69v-3.98h.65l-.03,1.18h.02c.29-.86.72-1.3,1.28-1.3.09,0,.18.01.26.03Z"/>
          <path id="IPAexGothic-654" data-name="IPAexGothic-65" d="M72.27,113.66c.02.46.17.82.43,1.09.27.27.6.41.98.41.51,0,.91-.24,1.21-.71l.45.3c-.38.63-.96.95-1.74.95-.59,0-1.08-.19-1.46-.57-.38-.38-.57-.89-.57-1.52,0-.67.2-1.2.6-1.6.36-.36.8-.53,1.33-.53.5,0,.92.17,1.26.5.38.38.57.9.57,1.54v.16h-3.07ZM74.63,113.16c-.04-.36-.17-.65-.38-.85-.21-.21-.47-.32-.76-.32-.34,0-.63.14-.87.43-.16.2-.27.44-.32.74h2.33Z"/>
          <path id="IPAexGothic-61" d="M79.68,115.58h-.6c-.09-.2-.15-.41-.18-.62h-.03c-.3.48-.75.73-1.35.73-.41,0-.75-.13-1.01-.39-.23-.23-.34-.51-.34-.84,0-.82.71-1.26,2.13-1.3h.53v-.22c0-.28-.08-.5-.24-.66-.17-.17-.38-.25-.64-.25-.45,0-.78.22-1.01.65l-.59-.27c.37-.61.91-.91,1.62-.91.49,0,.87.14,1.13.41.24.24.37.59.37,1.04v1.46c0,.5.07.89.21,1.17ZM78.85,113.62h-.44c-1.03.03-1.55.31-1.55.84,0,.19.06.34.18.46.15.15.35.22.59.22.34,0,.64-.12.89-.37.21-.22.32-.49.32-.8v-.35Z"/>
          <path id="IPAexGothic-64" d="M84.38,115.58h-.62v-.69c-.37.54-.85.81-1.42.81-.48,0-.88-.17-1.21-.5-.4-.39-.59-.93-.59-1.61s.19-1.2.57-1.59c.33-.34.74-.5,1.23-.5.53,0,.98.22,1.37.66v-2.48h.68v5.91ZM83.7,114.03v-.99c0-.26-.16-.52-.49-.76-.23-.17-.48-.25-.75-.25-.31,0-.57.11-.78.32-.28.28-.42.69-.42,1.21,0,.47.12.86.35,1.16.23.28.51.43.85.43.4,0,.73-.19,1.01-.58.16-.22.24-.39.24-.53Z"/>
          <path id="IPAexGothic-31" d="M88.21,115.58h-.7v-5.05c-.44.15-.9.28-1.39.38l-.13-.54c.7-.17,1.29-.38,1.78-.62h.45v5.83Z"/>
        </g>
      </g>
      <g id="text_3">
        <g>
          <path id="IPAexGothic-722" data-name="IPAexGothic-72" d="M142.86,143.85l-.12.68c-.09-.02-.17-.03-.24-.03-.31,0-.56.14-.76.43-.25.36-.37.69-.37.96v2.01h-.69v-3.98h.65l-.03,1.18h.02c.29-.86.72-1.3,1.28-1.3.09,0,.18.01.26.03Z"/>
          <path id="IPAexGothic-655" data-name="IPAexGothic-65" d="M144.01,146c.02.46.17.82.43,1.09.27.27.6.41.98.41.51,0,.91-.24,1.21-.71l.45.3c-.38.63-.96.95-1.74.95-.59,0-1.08-.19-1.46-.57-.38-.38-.57-.89-.57-1.52,0-.67.2-1.2.6-1.6.36-.36.8-.53,1.33-.53.5,0,.92.17,1.26.5.38.38.57.9.57,1.54v.16h-3.07ZM146.38,145.5c-.04-.36-.17-.65-.38-.85-.21-.21-.47-.32-.76-.32-.34,0-.63.14-.87.43-.16.2-.27.44-.32.74h2.33Z"/>
          <path id="IPAexGothic-611" data-name="IPAexGothic-61" d="M151.43,147.92h-.6c-.09-.2-.15-.41-.18-.62h-.03c-.3.48-.75.73-1.35.73-.41,0-.75-.13-1.01-.39-.23-.23-.34-.51-.34-.84,0-.82.71-1.26,2.13-1.3h.53v-.22c0-.28-.08-.5-.24-.66-.17-.17-.38-.25-.64-.25-.45,0-.78.22-1.01.65l-.59-.27c.37-.61.91-.91,1.62-.91.49,0,.87.14,1.13.41.24.24.37.59.37,1.04v1.46c0,.5.07.89.21,1.17ZM150.6,145.96h-.44c-1.03.03-1.55.31-1.55.84,0,.19.06.34.18.46.15.15.35.22.59.22.34,0,.64-.12.89-.37.21-.22.32-.49.32-.8v-.35Z"/>
          <path id="IPAexGothic-641" data-name="IPAexGothic-64" d="M156.12,147.92h-.62v-.69c-.37.54-.85.81-1.42.81-.48,0-.88-.17-1.21-.5-.4-.39-.59-.93-.59-1.61s.19-1.2.57-1.59c.33-.34.74-.5,1.23-.5.53,0,.98.22,1.37.66v-2.48h.68v5.91ZM155.44,146.37v-.99c0-.26-.16-.52-.49-.76-.23-.17-.48-.25-.75-.25-.31,0-.57.11-.78.32-.28.28-.42.69-.42,1.21,0,.47.12.86.35,1.16.23.28.51.43.85.43.4,0,.73-.19,1.01-.58.16-.22.24-.39.24-.53Z"/>
          <path id="IPAexGothic-32" d="M161.45,147.92h-4.01v-.66c.31-.73.92-1.4,1.81-2.01l.22-.15c.46-.31.76-.56.9-.73.16-.21.25-.43.25-.67,0-.27-.1-.51-.29-.7-.21-.21-.49-.32-.84-.32-.69,0-1.15.39-1.37,1.16l-.62-.22c.3-1.02.97-1.52,2.02-1.52.57,0,1.03.17,1.37.51.3.31.45.68.45,1.11,0,.32-.1.62-.29.88-.18.25-.58.58-1.22.98l-.17.1c-.81.5-1.33,1.04-1.57,1.61h3.35v.63Z"/>
        </g>
      </g>
      <g id="text_4">
        <g>
          <path id="IPAexGothic-723" data-name="IPAexGothic-72" d="M257.65,176.19l-.12.68c-.09-.02-.17-.03-.24-.03-.31,0-.56.14-.76.43-.25.36-.37.69-.37.96v2.01h-.69v-3.98h.65l-.03,1.18h.02c.29-.86.72-1.3,1.28-1.3.09,0,.18.01.26.03Z"/>
          <path id="IPAexGothic-656" data-name="IPAexGothic-65" d="M258.8,178.34c.02.46.17.82.43,1.09.27.27.6.41.98.41.51,0,.91-.24,1.21-.71l.45.3c-.38.63-.96.95-1.74.95-.59,0-1.08-.19-1.46-.57-.38-.38-.57-.89-.57-1.52,0-.67.2-1.2.6-1.6.36-.36.8-.53,1.33-.53.5,0,.92.17,1.26.5.38.38.57.9.57,1.54v.16h-3.07ZM261.16,177.84c-.04-.36-.17-.65-.38-.85-.21-.21-.47-.32-.76-.32-.34,0-.63.14-.87.43-.16.2-.27.44-.32.74h2.33Z"/>
          <path id="IPAexGothic-612" data-name="IPAexGothic-61" d="M266.22,180.26h-.6c-.09-.2-.15-.41-.18-.62h-.03c-.3.48-.75.73-1.35.73-.41,0-.75-.13-1.01-.39-.23-.23-.34-.51-.34-.84,0-.82.71-1.26,2.13-1.3h.53v-.22c0-.28-.08-.5-.24-.66-.17-.17-.38-.25-.64-.25-.45,0-.78.22-1.01.65l-.59-.27c.37-.61.91-.91,1.62-.91.49,0,.87.14,1.13.41.24.24.37.59.37,1.04v1.46c0,.5.07.89.21,1.17ZM265.38,178.3h-.44c-1.03.03-1.55.31-1.55.84,0,.19.06.34.18.46.15.15.35.22.59.22.34,0,.64-.12.89-.37.21-.22.32-.49.32-.8v-.35Z"/>
          <path id="IPAexGothic-642" data-name="IPAexGothic-64" d="M270.91,180.26h-.62v-.69c-.37.54-.85.81-1.42.81-.48,0-.88-.17-1.21-.5-.4-.39-.59-.93-.59-1.61s.19-1.2.57-1.59c.33-.34.74-.5,1.23-.5.53,0,.98.22,1.37.66v-2.48h.68v5.91ZM270.23,178.71v-.99c0-.26-.16-.52-.49-.76-.23-.17-.48-.25-.75-.25-.31,0-.57.11-.78.32-.28.28-.42.69-.42,1.21,0,.47.12.86.35,1.16.23.28.51.43.85.43.4,0,.73-.19,1.01-.58.16-.22.24-.39.24-.53Z"/>
          <path id="IPAexGothic-33" d="M274.64,177.31c.94.17,1.41.64,1.41,1.43,0,.47-.16.85-.47,1.15-.35.32-.84.48-1.48.48-.96,0-1.65-.38-2.07-1.14l.58-.31c.29.57.79.86,1.48.86.41,0,.72-.1.94-.31.21-.2.32-.45.32-.75,0-.36-.16-.64-.48-.86-.29-.2-.68-.29-1.15-.29h-.35v-.57h.37c.48,0,.84-.09,1.1-.27.27-.19.41-.45.41-.78,0-.35-.15-.62-.46-.79-.2-.12-.43-.17-.7-.17-.58,0-1.01.29-1.28.87l-.59-.28c.39-.77,1.01-1.15,1.88-1.15.55,0,.99.14,1.33.41.34.27.51.63.51,1.07,0,.42-.17.77-.5,1.03-.21.17-.48.28-.8.33v.03Z"/>
        </g>
      </g>
      <g id="text_5">
        <g>
          <path id="IPAexGothic-724" data-name="IPAexGothic-72" d="M353.3,111.51l-.12.68c-.09-.02-.17-.03-.24-.03-.31,0-.56.14-.76.43-.25.36-.37.69-.37.96v2.01h-.69v-3.98h.65l-.03,1.18h.02c.29-.86.72-1.3,1.28-1.3.09,0,.18.01.26.03Z"/>
          <path id="IPAexGothic-657" data-name="IPAexGothic-65" d="M354.46,113.66c.02.46.17.82.43,1.09.27.27.6.41.98.41.51,0,.91-.24,1.21-.71l.45.3c-.38.63-.96.95-1.74.95-.59,0-1.08-.19-1.46-.57-.38-.38-.57-.89-.57-1.52,0-.67.2-1.2.6-1.6.36-.36.8-.53,1.33-.53.5,0,.92.17,1.26.5.38.38.57.9.57,1.54v.16h-3.07ZM356.82,113.16c-.04-.36-.17-.65-.38-.85-.21-.21-.47-.32-.76-.32-.34,0-.63.14-.87.43-.16.2-.27.44-.32.74h2.33Z"/>
          <path id="IPAexGothic-613" data-name="IPAexGothic-61" d="M361.87,115.58h-.6c-.09-.2-.15-.41-.18-.62h-.03c-.3.48-.75.73-1.35.73-.41,0-.75-.13-1.01-.39-.23-.23-.34-.51-.34-.84,0-.82.71-1.26,2.13-1.3h.53v-.22c0-.28-.08-.5-.24-.66-.17-.17-.38-.25-.64-.25-.45,0-.78.22-1.01.65l-.59-.27c.37-.61.91-.91,1.62-.91.49,0,.87.14,1.13.41.24.24.37.59.37,1.04v1.46c0,.5.07.89.21,1.17ZM361.04,113.62h-.44c-1.03.03-1.55.31-1.55.84,0,.19.06.34.18.46.15.15.35.22.59.22.34,0,.64-.12.89-.37.21-.22.32-.49.32-.8v-.35Z"/>
          <path id="IPAexGothic-643" data-name="IPAexGothic-64" d="M366.56,115.58h-.62v-.69c-.37.54-.85.81-1.42.81-.48,0-.88-.17-1.21-.5-.4-.39-.59-.93-.59-1.61s.19-1.2.57-1.59c.33-.34.74-.5,1.23-.5.53,0,.98.22,1.37.66v-2.48h.68v5.91ZM365.88,114.03v-.99c0-.26-.16-.52-.49-.76-.23-.17-.48-.25-.75-.25-.31,0-.57.11-.78.32-.28.28-.42.69-.42,1.21,0,.47.12.86.35,1.16.23.28.51.43.85.43.4,0,.73-.19,1.01-.58.16-.22.24-.39.24-.53Z"/>
          <path id="IPAexGothic-34" d="M372.08,114.21h-.94v1.37h-.64v-1.37h-2.94v-.64l2.82-3.76h.75v3.8h.94v.59ZM370.54,110.52h-.02c-.23.38-.47.72-.69,1.03l-1.55,2.06h2.23v-1.89c0-.28.01-.68.04-1.21Z"/>
        </g>
      </g>
      <g id="text_6">
        <g>
          <path id="IPAexGothic-725" data-name="IPAexGothic-72" d="M413.09,143.85l-.12.68c-.09-.02-.17-.03-.24-.03-.31,0-.56.14-.76.43-.25.36-.37.69-.37.96v2.01h-.69v-3.98h.65l-.03,1.18h.02c.29-.86.72-1.3,1.28-1.3.09,0,.18.01.26.03Z"/>
          <path id="IPAexGothic-658" data-name="IPAexGothic-65" d="M414.24,146c.02.46.17.82.43,1.09.27.27.6.41.98.41.51,0,.91-.24,1.21-.71l.45.3c-.38.63-.96.95-1.74.95-.59,0-1.08-.19-1.46-.57-.38-.38-.57-.89-.57-1.52,0-.67.2-1.2.6-1.6.36-.36.8-.53,1.33-.53.5,0,.92.17,1.26.5.38.38.57.9.57,1.54v.16h-3.07ZM416.61,145.5c-.04-.36-.17-.65-.38-.85-.21-.21-.47-.32-.76-.32-.34,0-.63.14-.87.43-.16.2-.27.44-.32.74h2.33Z"/>
          <path id="IPAexGothic-614" data-name="IPAexGothic-61" d="M421.66,147.92h-.6c-.09-.2-.15-.41-.18-.62h-.03c-.3.48-.75.73-1.35.73-.41,0-.75-.13-1.01-.39-.23-.23-.34-.51-.34-.84,0-.82.71-1.26,2.13-1.3h.53v-.22c0-.28-.08-.5-.24-.66-.17-.17-.38-.25-.64-.25-.45,0-.78.22-1.01.65l-.59-.27c.37-.61.91-.91,1.62-.91.49,0,.87.14,1.13.41.24.24.37.59.37,1.04v1.46c0,.5.07.89.21,1.17ZM420.83,145.96h-.44c-1.03.03-1.55.31-1.55.84,0,.19.06.34.18.46.15.15.35.22.59.22.34,0,.64-.12.89-.37.21-.22.32-.49.32-.8v-.35Z"/>
          <path id="IPAexGothic-644" data-name="IPAexGothic-64" d="M426.35,147.92h-.62v-.69c-.37.54-.85.81-1.42.81-.48,0-.88-.17-1.21-.5-.4-.39-.59-.93-.59-1.61s.19-1.2.57-1.59c.33-.34.74-.5,1.23-.5.53,0,.98.22,1.37.66v-2.48h.68v5.91ZM425.67,146.37v-.99c0-.26-.16-.52-.49-.76-.23-.17-.48-.25-.75-.25-.31,0-.57.11-.78.32-.28.28-.42.69-.42,1.21,0,.47.12.86.35,1.16.23.28.51.43.85.43.4,0,.73-.19,1.01-.58.16-.22.24-.39.24-.53Z"/>
          <path id="IPAexGothic-35" d="M428.58,144.74c.38-.3.79-.45,1.24-.45.54,0,.98.18,1.34.54.33.35.5.78.5,1.29,0,.47-.14.88-.43,1.23-.36.45-.88.68-1.58.68-.89,0-1.54-.34-1.95-1.02l.59-.3c.31.49.76.74,1.34.74.38,0,.69-.12.94-.35.26-.25.39-.58.39-.98,0-.39-.11-.69-.34-.92s-.55-.36-.94-.36c-.54,0-.95.21-1.23.62l-.6-.08.37-3.18h3.15v.6h-2.58l-.26,1.94h.05Z"/>
        </g>
      </g>
      <g id="text_8">
        <g>
          <path id="IPAexGothic-30de" d="M129.29,31.81l.53.56c-1.3,1.66-2.75,3.15-4.34,4.45.53.57,1.06,1.16,1.58,1.78l-.81.71c-1.16-1.57-2.48-2.95-3.95-4.12l.71-.6c.52.4,1.13.95,1.86,1.63,1.38-1.16,2.52-2.33,3.43-3.5l-7.78.07v-.9l8.77-.07Z"/>
          <path id="IPAexGothic-30c3" d="M134.45,35.82c-.28-.85-.59-1.6-.94-2.23l.83-.4c.4.66.73,1.39,1,2.22l-.88.42ZM136.76,35.23c-.24-.85-.54-1.58-.9-2.2l.85-.4c.39.64.71,1.37.95,2.17l-.9.42ZM134.74,38.84c1.46-.46,2.58-1.21,3.38-2.24.68-.87,1.14-2.09,1.38-3.67l.95.22c-.3,1.79-.9,3.22-1.8,4.29-.76.91-1.86,1.64-3.28,2.18l-.63-.78Z"/>
          <path id="IPAexGothic-30d4" d="M145.62,30.62h.98v3.74c2.09-.47,3.88-1.16,5.37-2.09l.72.78c-1.86.99-3.89,1.73-6.09,2.21v2.31c0,.4.12.64.36.74.24.1.92.16,2.05.16,1.25,0,2.65-.08,4.18-.25v.96c-1.42.13-2.75.2-4,.2-1.66,0-2.67-.12-3.04-.37-.36-.23-.54-.65-.54-1.26v-7.14ZM153.4,29.75c.39,0,.71.15.97.44.23.25.34.54.34.88,0,.39-.15.72-.44.98-.25.23-.54.35-.88.35-.39,0-.72-.15-.98-.44-.23-.25-.34-.55-.34-.89,0-.39.15-.71.44-.98.25-.23.55-.34.89-.34ZM153.4,30.28c-.24,0-.44.09-.6.26-.14.15-.2.33-.2.53,0,.24.09.44.26.6.15.14.33.2.54.2.23,0,.43-.09.59-.26.14-.15.2-.33.2-.54,0-.23-.09-.42-.26-.58-.15-.14-.33-.21-.53-.21Z"/>
          <path id="IPAexGothic-30f3" d="M159.71,33.76c-.78-.71-1.65-1.34-2.6-1.87l.61-.82c.85.41,1.75,1.01,2.69,1.8l-.7.89ZM157.19,38.4c3.61-.62,6.18-2.63,7.72-6.04l.76.67c-1.51,3.34-4.12,5.45-7.85,6.31l-.63-.95Z"/>
          <path id="IPAexGothic-30b0" d="M176.07,31.8l.63.47c-.47,2.01-1.25,3.66-2.32,4.95-.95,1.14-2.2,2.09-3.76,2.86l-.7-.77c1.52-.63,2.76-1.53,3.72-2.7.95-1.16,1.61-2.48,1.97-3.95h-3.35c-.89,1.35-1.86,2.45-2.9,3.32l-.71-.66c1.69-1.36,2.91-3.06,3.66-5.08l.92.26c-.07.26-.25.69-.53,1.3h3.36ZM178.39,31.25c-.45-.68-.93-1.23-1.42-1.63l.57-.43c.48.39.96.9,1.45,1.55l-.6.52ZM177.28,32.12c-.36-.61-.82-1.17-1.38-1.66l.59-.46c.46.38.94.92,1.42,1.61l-.62.52Z"/>
          <path id="IPAexGothic-ff08" d="M189.29,40.35c-1.53-1.5-2.29-3.3-2.29-5.38s.76-3.86,2.29-5.37h.94c-1.55,1.53-2.33,3.32-2.33,5.39s.78,3.83,2.33,5.36h-.94Z"/>
          <path id="IPAexGothic-30ea" d="M194.27,30.56h1.02v5.41h-1.02v-5.41ZM198.78,30.34h1.02v4.04c0,1.49-.3,2.71-.9,3.67-.53.84-1.39,1.56-2.58,2.15l-.71-.81c1.18-.52,1.99-1.15,2.46-1.9.47-.76.71-1.78.71-3.06v-4.09Z"/>
          <path id="IPAexGothic-30d5" d="M212.44,31.49l.56.52c-.55,3.91-2.62,6.48-6.18,7.72l-.69-.84c3.29-1,5.22-3.17,5.78-6.5l-6.82.12v-.91l7.35-.09Z"/>
          <path id="IPAexGothic-30a1" d="M224.24,32.88l.55.56c-.67,1.33-1.52,2.45-2.54,3.37l-.7-.6c.91-.79,1.6-1.62,2.06-2.48l-6.05.15v-.85l6.67-.15ZM217.96,39.22c1.03-.51,1.71-1.14,2.04-1.9.21-.51.32-1.44.33-2.77h.89c-.01,1.52-.17,2.62-.49,3.3-.36.79-1.07,1.48-2.13,2.05l-.64-.68Z"/>
          <path id="IPAexGothic-30ec" d="M230.01,30.72h1.01v7.66c2.48-.94,4.42-2.36,5.81-4.26l.58.87c-.7.94-1.67,1.82-2.91,2.65-1.27.86-2.52,1.51-3.76,1.97l-.73-.56v-8.32Z"/>
          <path id="IPAexGothic-30f31" data-name="IPAexGothic-30f3" d="M243.71,33.76c-.78-.71-1.65-1.34-2.6-1.87l.61-.82c.85.41,1.75,1.01,2.69,1.8l-.7.89ZM241.19,38.4c3.61-.62,6.18-2.63,7.72-6.04l.76.67c-1.51,3.34-4.12,5.45-7.85,6.31l-.63-.95Z"/>
          <path id="IPAexGothic-30b9" d="M259.3,31.14l.67.63c-.48,1.34-1.15,2.59-2,3.74,1.26.9,2.52,1.96,3.77,3.18l-.8.81c-1.22-1.34-2.4-2.44-3.53-3.3-1.23,1.48-2.67,2.61-4.33,3.39l-.73-.81c3.09-1.31,5.25-3.56,6.46-6.74l-5.35.07-.02-.92,5.87-.05Z"/>
          <path id="IPAexGothic-306b" d="M265.17,39.61c-.21-1.3-.31-2.63-.31-3.97,0-1.43.26-3.12.77-5.09l.9.21c-.53,1.96-.79,3.64-.79,5.03,0,.7.02,1.24.06,1.6.01-.04.26-.59.73-1.63l.58.41c-.41.9-.68,1.54-.81,1.94-.14.39-.21.7-.21.93s0,.4.01.49l-.94.08ZM268.44,31.97c1.42-.22,2.97-.3,4.65-.25l.05.92c-1.72-.06-3.27.02-4.63.25l-.07-.92ZM273.72,39.06c-.76.1-1.56.16-2.4.16-1.14,0-1.96-.16-2.48-.49-.33-.2-.56-.45-.7-.76-.13-.29-.19-.67-.19-1.14,0-.15,0-.28.01-.39l.89-.05c0,.09,0,.19-.02.29,0,.06,0,.1,0,.12,0,.33.05.59.15.77.07.14.19.26.36.38.32.22.93.32,1.81.32.77,0,1.59-.05,2.46-.16l.12.95Z"/>
          <path id="IPAexGothic-30ea1" data-name="IPAexGothic-30ea" d="M278.27,30.56h1.02v5.41h-1.02v-5.41ZM282.78,30.34h1.02v4.04c0,1.49-.3,2.71-.9,3.67-.53.84-1.39,1.56-2.58,2.15l-.71-.81c1.18-.52,1.99-1.15,2.46-1.9.47-.76.71-1.78.71-3.06v-4.09Z"/>
          <path id="IPAexGothic-30fc" d="M288.23,34.5h9.79v.96h-9.79v-.96Z"/>
          <path id="IPAexGothic-30c9" d="M303.34,30.24h.97v3.36c1.6.73,3.11,1.56,4.52,2.47l-.63.97c-1.32-1.01-2.62-1.83-3.89-2.47v5.39h-.97v-9.72ZM308.99,32.33c-.45-.68-.93-1.22-1.42-1.63l.56-.43c.48.39.97.9,1.45,1.55l-.6.52ZM307.87,33.21c-.36-.61-.82-1.17-1.38-1.67l.59-.46c.46.38.94.92,1.42,1.61l-.63.52Z"/>
          <path id="IPAexGothic-3092" d="M313.18,31.55c.56.05,1.35.08,2.37.08.28-.64.49-1.23.64-1.76l.89.25c-.22.61-.42,1.09-.59,1.45.82-.03,1.72-.16,2.69-.38l.12.82c-.94.19-2,.31-3.19.37-.33.67-.7,1.31-1.12,1.92.59-.5,1.15-.76,1.69-.76.84,0,1.4.51,1.68,1.54.87-.38,1.8-.74,2.77-1.07l.44.79c-1.17.34-2.19.7-3.06,1.07.05.35.08.93.1,1.74l-.9.07c0-.58-.01-1.06-.04-1.43-1.38.7-2.07,1.35-2.07,1.94,0,.36.23.6.68.73.39.11,1.05.16,1.97.16.73,0,1.59-.06,2.57-.19l.07.88c-.98.11-1.95.16-2.93.16-1.25,0-2.13-.16-2.64-.48-.41-.25-.62-.62-.62-1.11,0-.58.27-1.12.81-1.62.46-.43,1.13-.86,2.03-1.28-.2-.77-.55-1.15-1.03-1.15-.8,0-1.84.86-3.13,2.58l-.7-.52c.98-1.28,1.81-2.59,2.48-3.95-.8,0-1.47-.02-2.02-.05v-.82Z"/>
          <path id="IPAexGothic-8cbc" d="M328.06,30.21v7.42h-3.78v-7.42h3.78ZM325.06,30.94v1.47h2.22v-1.47h-2.22ZM325.06,33.11v1.46h2.22v-1.46h-2.22ZM325.06,35.27v1.62h2.22v-1.62h-2.22ZM331.57,31.92h2.82v.76h-2.82v2.31h2.37v5.39h-.85v-.67h-3.36v.67h-.85v-5.39h1.81v-5.23h.88v2.16ZM329.74,35.74v3.24h3.36v-3.24h-3.36ZM323.61,39.83c.6-.57,1.09-1.28,1.47-2.13l.74.38c-.45,1-.98,1.8-1.57,2.4l-.64-.65ZM327.75,40.16c-.41-.84-.86-1.52-1.35-2.04l.69-.43c.52.52,1,1.13,1.43,1.83l-.77.63Z"/>
          <path id="IPAexGothic-308a" d="M340.52,34.06c-.47.79-.79,1.34-.95,1.66-.19.36-.32.73-.39,1.09l-.84-.08c-.26-.78-.39-1.78-.39-2.98,0-.82.1-1.93.29-3.34l.97.12c-.22,1.58-.33,2.7-.33,3.36,0,.5.02.98.05,1.42.1-.19.28-.51.53-.95.21-.37.38-.67.5-.88l.56.59ZM339.79,39.3c1.31-.47,2.21-1.13,2.7-1.98.38-.66.57-1.78.57-3.36,0-1.12-.07-2.34-.21-3.66h1.02c.12,1.42.17,2.64.17,3.66,0,1.82-.25,3.16-.76,4-.55.93-1.49,1.63-2.82,2.12l-.68-.78Z"/>
          <path id="IPAexGothic-4ed8" d="M350.28,32.47v7.9h-.88v-6.13c-.37.64-.77,1.24-1.19,1.8l-.49-.73c1.16-1.51,1.99-3.34,2.51-5.5l.89.22c-.25.86-.51,1.62-.77,2.27l-.07.17ZM356.66,32.38h1.7v.8h-1.65v5.95c0,.36-.06.62-.19.76-.15.16-.45.24-.9.24-.62,0-1.25-.03-1.9-.1l-.15-.94c.68.12,1.29.18,1.82.18.29,0,.43-.15.43-.46v-5.63h-4.89v-.8h4.84v-2.51h.89v2.51ZM353.56,37.34c-.5-1.03-1.05-1.9-1.66-2.61l.72-.48c.62.74,1.2,1.58,1.73,2.53l-.79.56Z"/>
          <path id="IPAexGothic-3051" d="M363.91,33.01c.42.02.84.03,1.25.03.59,0,1.29-.03,2.1-.08-.04-1.16-.1-2.03-.16-2.61h.96c0,.16.05.99.12,2.5.62-.08,1.17-.2,1.66-.33l.07.85c-.49.16-1.06.28-1.7.34,0,.29.01.61.01.94,0,1.47-.17,2.56-.5,3.28-.41.9-1.17,1.63-2.3,2.19l-.77-.69c1.09-.48,1.81-1.07,2.17-1.78.34-.65.5-1.66.5-3.04,0-.28,0-.56,0-.81-.8.06-1.54.09-2.22.09-.48,0-.85,0-1.09-.02l-.07-.86ZM362.74,35.62l.61.39c-.69,1.26-1.05,2.33-1.08,3.22l-.79.18c-.4-1.39-.6-2.76-.6-4.12,0-1.14.25-2.76.76-4.87l.89.23c-.5,1.98-.76,3.6-.76,4.85,0,.55.05,1.14.14,1.76l.81-1.62Z"/>
          <path id="IPAexGothic-ff09" d="M372.03,40.35c1.55-1.53,2.33-3.32,2.33-5.37s-.78-3.84-2.33-5.38h.94c1.53,1.5,2.29,3.3,2.29,5.38s-.76,3.87-2.29,5.37h-.94Z"/>
        </g>
      </g>
    </g>
  </g>
</svg>