<?xml version="1.0" encoding="utf-8" standalone="no"?>
<!DOCTYPE svg PUBLIC "-//W3C//DTD SVG 1.1//EN"
  "http://www.w3.org/Graphics/SVG/1.1/DTD/svg11.dtd">
<svg xmlns:xlink="http://www.w3.org/1999/xlink" width="572.4pt" height="253.815pt" viewBox="0 0 572.4 253.815" xmlns="http://www.w3.org/2000/svg" version="1.1">
 <metadata>
  <rdf:RDF xmlns:dc="http://purl.org/dc/elements/1.1/" xmlns:cc="http://creativecommons.org/ns#" xmlns:rdf="http://www.w3.org/1999/02/22-rdf-syntax-ns#">
   <cc:Work>
    <dc:type rdf:resource="http://purl.org/dc/dcmitype/StillImage"/>
    <dc:date>2025-08-19T00:28:42.328139</dc:date>
    <dc:format>image/svg+xml</dc:format>
    <dc:creator>
     <cc:Agent>
      <dc:title>Matplotlib v3.10.0, https://matplotlib.org/</dc:title>
     </cc:Agent>
    </dc:creator>
   </cc:Work>
  </rdf:RDF>
 </metadata>
 <defs>
  <style type="text/css">*{stroke-linejoin: round; stroke-linecap: butt}</style>
 </defs>
 <g id="figure_1">
  <g id="patch_1">
   <path d="M 0 253.815 
L 572.4 253.815 
L 572.4 0 
L 0 0 
z
" style="fill: #ffffff"/>
  </g>
  <g id="axes_1">
   <g id="LineCollection_1">
    <path d="M 14.004878 241.687 
L 558.395122 241.687 
" clip-path="url(#p8b2cc145bf)" style="fill: none; stroke: #1f77b4; stroke-width: 2"/>
   </g>
   <g id="LineCollection_2">
    <path d="M 248.092683 221.975 
L 302.531707 221.975 
" clip-path="url(#p8b2cc145bf)" style="fill: none; stroke: #1f77b4; stroke-width: 6"/>
   </g>
   <g id="LineCollection_3">
    <path d="M 77.970732 200.855 
L 132.409756 200.855 
" clip-path="url(#p8b2cc145bf)" style="fill: none; stroke: #1f77b4; stroke-width: 6"/>
   </g>
   <g id="LineCollection_4">
    <path d="M 173.239024 179.735 
L 227.678049 179.735 
" clip-path="url(#p8b2cc145bf)" style="fill: none; stroke: #1f77b4; stroke-width: 6"/>
   </g>
   <g id="LineCollection_5">
    <path d="M 275.312195 158.615 
L 329.75122 158.615 
" clip-path="url(#p8b2cc145bf)" style="fill: none; stroke: #1f77b4; stroke-width: 6"/>
   </g>
   <g id="LineCollection_6">
    <path d="M 453.6 137.495 
L 508.039024 137.495 
" clip-path="url(#p8b2cc145bf)" style="fill: none; stroke: #1f77b4; stroke-width: 6"/>
   </g>
   <g id="LineCollection_7">
    <path d="M 355.609756 116.375 
L 410.04878 116.375 
" clip-path="url(#p8b2cc145bf)" style="fill: none; stroke: #1f77b4; stroke-width: 6"/>
   </g>
   <g id="LineCollection_8">
    <path d="M 279.395122 95.255 
L 333.834146 95.255 
" clip-path="url(#p8b2cc145bf)" style="fill: none; stroke: #1f77b4; stroke-width: 6"/>
   </g>
   <g id="LineCollection_9">
    <path d="M 502.595122 74.135 
L 557.034146 74.135 
" clip-path="url(#p8b2cc145bf)" style="fill: none; stroke: #1f77b4; stroke-width: 6"/>
   </g>
   <g id="LineCollection_10">
    <path d="M 26.253659 221.975 
L 80.692683 221.975 
" clip-path="url(#p8b2cc145bf)" style="fill: none; stroke: #1f77b4; stroke-width: 6"/>
   </g>
   <g id="LineCollection_11">
    <path d="M 301.170732 200.855 
L 355.609756 200.855 
" clip-path="url(#p8b2cc145bf)" style="fill: none; stroke: #1f77b4; stroke-width: 6"/>
   </g>
   <g id="LineCollection_12">
    <path d="M 390.995122 179.735 
L 445.434146 179.735 
" clip-path="url(#p8b2cc145bf)" style="fill: none; stroke: #1f77b4; stroke-width: 6"/>
   </g>
   <g id="LineCollection_13">
    <path d="M 343.360976 158.615 
L 397.8 158.615 
" clip-path="url(#p8b2cc145bf)" style="fill: none; stroke: #1f77b4; stroke-width: 6"/>
   </g>
   <g id="LineCollection_14">
    <path d="M 411.409756 137.495 
L 465.84878 137.495 
" clip-path="url(#p8b2cc145bf)" style="fill: none; stroke: #1f77b4; stroke-width: 6"/>
   </g>
   <g id="LineCollection_15">
    <path d="M 132.409756 116.375 
L 186.84878 116.375 
" clip-path="url(#p8b2cc145bf)" style="fill: none; stroke: #1f77b4; stroke-width: 6"/>
   </g>
   <g id="LineCollection_16">
    <path d="M 109.273171 95.255 
L 163.712195 95.255 
" clip-path="url(#p8b2cc145bf)" style="fill: none; stroke: #1f77b4; stroke-width: 6"/>
   </g>
   <g id="LineCollection_17">
    <path d="M 133.770732 74.135 
L 188.209756 74.135 
" clip-path="url(#p8b2cc145bf)" style="fill: none; stroke: #1f77b4; stroke-width: 6"/>
   </g>
   <g id="LineCollection_18">
    <path d="M 441.35122 221.975 
L 495.790244 221.975 
" clip-path="url(#p8b2cc145bf)" style="fill: none; stroke: #1f77b4; stroke-width: 6"/>
   </g>
   <g id="LineCollection_19">
    <path d="M 276.673171 200.855 
L 331.112195 200.855 
" clip-path="url(#p8b2cc145bf)" style="fill: none; stroke: #1f77b4; stroke-width: 6"/>
   </g>
   <g id="LineCollection_20">
    <path d="M 67.082927 179.735 
L 121.521951 179.735 
" clip-path="url(#p8b2cc145bf)" style="fill: none; stroke: #1f77b4; stroke-width: 6"/>
   </g>
   <g id="LineCollection_21">
    <path d="M 132.409756 158.615 
L 186.84878 158.615 
" clip-path="url(#p8b2cc145bf)" style="fill: none; stroke: #1f77b4; stroke-width: 6"/>
   </g>
   <g id="LineCollection_22">
    <path d="M 250.814634 137.495 
L 305.253659 137.495 
" clip-path="url(#p8b2cc145bf)" style="fill: none; stroke: #1f77b4; stroke-width: 6"/>
   </g>
   <g id="LineCollection_23">
    <path d="M 133.770732 116.375 
L 188.209756 116.375 
" clip-path="url(#p8b2cc145bf)" style="fill: none; stroke: #1f77b4; stroke-width: 6"/>
   </g>
   <g id="LineCollection_24">
    <path d="M 472.653659 95.255 
L 527.092683 95.255 
" clip-path="url(#p8b2cc145bf)" style="fill: none; stroke: #1f77b4; stroke-width: 6"/>
   </g>
   <g id="LineCollection_25">
    <path d="M 238.565854 74.135 
L 293.004878 74.135 
" clip-path="url(#p8b2cc145bf)" style="fill: none; stroke: #1f77b4; stroke-width: 6"/>
   </g>
   <g id="LineCollection_26">
    <path d="M 48.029268 221.975 
L 102.468293 221.975 
" clip-path="url(#p8b2cc145bf)" style="fill: none; stroke: #1f77b4; stroke-width: 6"/>
   </g>
   <g id="LineCollection_27">
    <path d="M 467.209756 200.855 
L 521.64878 200.855 
" clip-path="url(#p8b2cc145bf)" style="fill: none; stroke: #1f77b4; stroke-width: 6"/>
   </g>
   <g id="LineCollection_28">
    <path d="M 111.995122 179.735 
L 166.434146 179.735 
" clip-path="url(#p8b2cc145bf)" style="fill: none; stroke: #1f77b4; stroke-width: 6"/>
   </g>
   <g id="LineCollection_29">
    <path d="M 374.663415 158.615 
L 429.102439 158.615 
" clip-path="url(#p8b2cc145bf)" style="fill: none; stroke: #1f77b4; stroke-width: 6"/>
   </g>
   <g id="LineCollection_30">
    <path d="M 170.517073 137.495 
L 224.956098 137.495 
" clip-path="url(#p8b2cc145bf)" style="fill: none; stroke: #1f77b4; stroke-width: 6"/>
   </g>
   <g id="LineCollection_31">
    <path d="M 344.721951 116.375 
L 399.160976 116.375 
" clip-path="url(#p8b2cc145bf)" style="fill: none; stroke: #1f77b4; stroke-width: 6"/>
   </g>
   <g id="LineCollection_32">
    <path d="M 282.117073 95.255 
L 336.556098 95.255 
" clip-path="url(#p8b2cc145bf)" style="fill: none; stroke: #1f77b4; stroke-width: 6"/>
   </g>
   <g id="LineCollection_33">
    <path d="M 469.931707 74.135 
L 524.370732 74.135 
" clip-path="url(#p8b2cc145bf)" style="fill: none; stroke: #1f77b4; stroke-width: 6"/>
   </g>
   <g id="LineCollection_34">
    <path d="M 474.014634 221.975 
L 528.453659 221.975 
" clip-path="url(#p8b2cc145bf)" style="fill: none; stroke: #1f77b4; stroke-width: 6"/>
   </g>
   <g id="LineCollection_35">
    <path d="M 148.741463 200.855 
L 203.180488 200.855 
" clip-path="url(#p8b2cc145bf)" style="fill: none; stroke: #1f77b4; stroke-width: 6"/>
   </g>
   <g id="LineCollection_36">
    <path d="M 254.897561 179.735 
L 309.336585 179.735 
" clip-path="url(#p8b2cc145bf)" style="fill: none; stroke: #1f77b4; stroke-width: 6"/>
   </g>
   <g id="LineCollection_37">
    <path d="M 344.721951 158.615 
L 399.160976 158.615 
" clip-path="url(#p8b2cc145bf)" style="fill: none; stroke: #1f77b4; stroke-width: 6"/>
   </g>
   <g id="LineCollection_38">
    <path d="M 401.882927 137.495 
L 456.321951 137.495 
" clip-path="url(#p8b2cc145bf)" style="fill: none; stroke: #1f77b4; stroke-width: 6"/>
   </g>
   <g id="LineCollection_39">
    <path d="M 214.068293 116.375 
L 268.507317 116.375 
" clip-path="url(#p8b2cc145bf)" style="fill: none; stroke: #1f77b4; stroke-width: 6"/>
   </g>
   <g id="LineCollection_40">
    <path d="M 214.068293 95.255 
L 268.507317 95.255 
" clip-path="url(#p8b2cc145bf)" style="fill: none; stroke: #1f77b4; stroke-width: 6"/>
   </g>
   <g id="LineCollection_41">
    <path d="M 405.965854 74.135 
L 460.404878 74.135 
" clip-path="url(#p8b2cc145bf)" style="fill: none; stroke: #1f77b4; stroke-width: 6"/>
   </g>
   <g id="LineCollection_42">
    <path d="M 374.663415 221.975 
L 429.102439 221.975 
" clip-path="url(#p8b2cc145bf)" style="fill: none; stroke: #1f77b4; stroke-width: 6"/>
   </g>
   <g id="LineCollection_43">
    <path d="M 265.785366 200.855 
L 320.22439 200.855 
" clip-path="url(#p8b2cc145bf)" style="fill: none; stroke: #1f77b4; stroke-width: 6"/>
   </g>
   <g id="LineCollection_44">
    <path d="M 186.84878 179.735 
L 241.287805 179.735 
" clip-path="url(#p8b2cc145bf)" style="fill: none; stroke: #1f77b4; stroke-width: 6"/>
   </g>
   <g id="LineCollection_45">
    <path d="M 57.556098 158.615 
L 111.995122 158.615 
" clip-path="url(#p8b2cc145bf)" style="fill: none; stroke: #1f77b4; stroke-width: 6"/>
   </g>
   <g id="LineCollection_46">
    <path d="M 56.195122 137.495 
L 110.634146 137.495 
" clip-path="url(#p8b2cc145bf)" style="fill: none; stroke: #1f77b4; stroke-width: 6"/>
   </g>
   <g id="LineCollection_47">
    <path d="M 288.921951 116.375 
L 343.360976 116.375 
" clip-path="url(#p8b2cc145bf)" style="fill: none; stroke: #1f77b4; stroke-width: 6"/>
   </g>
   <g id="LineCollection_48">
    <path d="M 346.082927 95.255 
L 400.521951 95.255 
" clip-path="url(#p8b2cc145bf)" style="fill: none; stroke: #1f77b4; stroke-width: 6"/>
   </g>
   <g id="LineCollection_49">
    <path d="M 219.512195 74.135 
L 273.95122 74.135 
" clip-path="url(#p8b2cc145bf)" style="fill: none; stroke: #1f77b4; stroke-width: 6"/>
   </g>
   <g id="LineCollection_50">
    <path d="M 235.843902 221.975 
L 290.282927 221.975 
" clip-path="url(#p8b2cc145bf)" style="fill: none; stroke: #1f77b4; stroke-width: 6"/>
   </g>
   <g id="LineCollection_51">
    <path d="M 263.063415 200.855 
L 317.502439 200.855 
" clip-path="url(#p8b2cc145bf)" style="fill: none; stroke: #1f77b4; stroke-width: 6"/>
   </g>
   <g id="LineCollection_52">
    <path d="M 52.112195 179.735 
L 106.55122 179.735 
" clip-path="url(#p8b2cc145bf)" style="fill: none; stroke: #1f77b4; stroke-width: 6"/>
   </g>
   <g id="LineCollection_53">
    <path d="M 408.687805 158.615 
L 463.126829 158.615 
" clip-path="url(#p8b2cc145bf)" style="fill: none; stroke: #1f77b4; stroke-width: 6"/>
   </g>
   <g id="LineCollection_54">
    <path d="M 188.209756 137.495 
L 242.64878 137.495 
" clip-path="url(#p8b2cc145bf)" style="fill: none; stroke: #1f77b4; stroke-width: 6"/>
   </g>
   <g id="LineCollection_55">
    <path d="M 188.209756 116.375 
L 242.64878 116.375 
" clip-path="url(#p8b2cc145bf)" style="fill: none; stroke: #1f77b4; stroke-width: 6"/>
   </g>
   <g id="LineCollection_56">
    <path d="M 86.136585 95.255 
L 140.57561 95.255 
" clip-path="url(#p8b2cc145bf)" style="fill: none; stroke: #1f77b4; stroke-width: 6"/>
   </g>
   <g id="LineCollection_57">
    <path d="M 65.721951 74.135 
L 120.160976 74.135 
" clip-path="url(#p8b2cc145bf)" style="fill: none; stroke: #1f77b4; stroke-width: 6"/>
   </g>
   <g id="LineCollection_58">
    <path d="M 346.082927 221.975 
L 400.521951 221.975 
" clip-path="url(#p8b2cc145bf)" style="fill: none; stroke: #1f77b4; stroke-width: 6"/>
   </g>
   <g id="LineCollection_59">
    <path d="M 385.55122 200.855 
L 439.990244 200.855 
" clip-path="url(#p8b2cc145bf)" style="fill: none; stroke: #1f77b4; stroke-width: 6"/>
   </g>
   <g id="LineCollection_60">
    <path d="M 469.931707 179.735 
L 524.370732 179.735 
" clip-path="url(#p8b2cc145bf)" style="fill: none; stroke: #1f77b4; stroke-width: 6"/>
   </g>
   <g id="LineCollection_61">
    <path d="M 156.907317 158.615 
L 211.346341 158.615 
" clip-path="url(#p8b2cc145bf)" style="fill: none; stroke: #1f77b4; stroke-width: 6"/>
   </g>
   <g id="LineCollection_62">
    <path d="M 71.165854 137.495 
L 125.604878 137.495 
" clip-path="url(#p8b2cc145bf)" style="fill: none; stroke: #1f77b4; stroke-width: 6"/>
   </g>
   <g id="LineCollection_63">
    <path d="M 56.195122 116.375 
L 110.634146 116.375 
" clip-path="url(#p8b2cc145bf)" style="fill: none; stroke: #1f77b4; stroke-width: 6"/>
   </g>
   <g id="LineCollection_64">
    <path d="M 363.77561 95.255 
L 418.214634 95.255 
" clip-path="url(#p8b2cc145bf)" style="fill: none; stroke: #1f77b4; stroke-width: 6"/>
   </g>
   <g id="LineCollection_65">
    <path d="M 450.878049 74.135 
L 505.317073 74.135 
" clip-path="url(#p8b2cc145bf)" style="fill: none; stroke: #1f77b4; stroke-width: 6"/>
   </g>
   <g id="LineCollection_66">
    <path d="M 91.580488 221.975 
L 146.019512 221.975 
" clip-path="url(#p8b2cc145bf)" style="fill: none; stroke: #1f77b4; stroke-width: 6"/>
   </g>
   <g id="LineCollection_67">
    <path d="M 410.04878 200.855 
L 464.487805 200.855 
" clip-path="url(#p8b2cc145bf)" style="fill: none; stroke: #1f77b4; stroke-width: 6"/>
   </g>
   <g id="LineCollection_68">
    <path d="M 501.234146 179.735 
L 555.673171 179.735 
" clip-path="url(#p8b2cc145bf)" style="fill: none; stroke: #1f77b4; stroke-width: 6"/>
   </g>
   <g id="LineCollection_69">
    <path d="M 175.960976 158.615 
L 230.4 158.615 
" clip-path="url(#p8b2cc145bf)" style="fill: none; stroke: #1f77b4; stroke-width: 6"/>
   </g>
   <g id="LineCollection_70">
    <path d="M 377.385366 137.495 
L 431.82439 137.495 
" clip-path="url(#p8b2cc145bf)" style="fill: none; stroke: #1f77b4; stroke-width: 6"/>
   </g>
   <g id="LineCollection_71">
    <path d="M 125.604878 116.375 
L 180.043902 116.375 
" clip-path="url(#p8b2cc145bf)" style="fill: none; stroke: #1f77b4; stroke-width: 6"/>
   </g>
   <g id="LineCollection_72">
    <path d="M 137.853659 95.255 
L 192.292683 95.255 
" clip-path="url(#p8b2cc145bf)" style="fill: none; stroke: #1f77b4; stroke-width: 6"/>
   </g>
   <g id="LineCollection_73">
    <path d="M 148.741463 74.135 
L 203.180488 74.135 
" clip-path="url(#p8b2cc145bf)" style="fill: none; stroke: #1f77b4; stroke-width: 6"/>
   </g>
   <g id="LineCollection_74">
    <path d="M 86.136585 221.975 
L 140.57561 221.975 
" clip-path="url(#p8b2cc145bf)" style="fill: none; stroke: #1f77b4; stroke-width: 6"/>
   </g>
   <g id="LineCollection_75">
    <path d="M 178.682927 200.855 
L 233.121951 200.855 
" clip-path="url(#p8b2cc145bf)" style="fill: none; stroke: #1f77b4; stroke-width: 6"/>
   </g>
   <g id="LineCollection_76">
    <path d="M 128.326829 179.735 
L 182.765854 179.735 
" clip-path="url(#p8b2cc145bf)" style="fill: none; stroke: #1f77b4; stroke-width: 6"/>
   </g>
   <g id="LineCollection_77">
    <path d="M 290.282927 158.615 
L 344.721951 158.615 
" clip-path="url(#p8b2cc145bf)" style="fill: none; stroke: #1f77b4; stroke-width: 6"/>
   </g>
   <g id="LineCollection_78">
    <path d="M 454.960976 137.495 
L 509.4 137.495 
" clip-path="url(#p8b2cc145bf)" style="fill: none; stroke: #1f77b4; stroke-width: 6"/>
   </g>
   <g id="LineCollection_79">
    <path d="M 370.580488 116.375 
L 425.019512 116.375 
" clip-path="url(#p8b2cc145bf)" style="fill: none; stroke: #1f77b4; stroke-width: 6"/>
   </g>
   <g id="LineCollection_80">
    <path d="M 77.970732 95.255 
L 132.409756 95.255 
" clip-path="url(#p8b2cc145bf)" style="fill: none; stroke: #1f77b4; stroke-width: 6"/>
   </g>
   <g id="LineCollection_81">
    <path d="M 186.84878 74.135 
L 241.287805 74.135 
" clip-path="url(#p8b2cc145bf)" style="fill: none; stroke: #1f77b4; stroke-width: 6"/>
   </g>
   <g id="text_1">
    <!-- 参照ゲノム領域 (例) -->
    <g transform="translate(16.726829 54.423) scale(0.1 -0.1)">
     <defs>
      <path id="Meiryo-53c2" d="M 2328 3150 
Q 1522 2372 334 1875 
L 125 2191 
Q 975 2522 1722 3150 
L 303 3150 
L 303 3522 
L 2109 3522 
Q 2328 3763 2491 4038 
L 766 3972 
L 700 4363 
Q 916 4363 1466 4372 
Q 1997 4947 2228 5363 
L 2731 5250 
Q 2497 4906 1972 4381 
Q 3778 4422 4591 4481 
Q 4347 4706 4016 4997 
L 4369 5213 
Q 4541 5103 5603 4088 
L 5213 3872 
Q 5075 4022 4909 4181 
Q 4275 4128 3013 4063 
Q 2872 3781 2669 3522 
L 6125 3522 
L 6125 3150 
L 4319 3150 
Q 5197 2541 6244 2228 
L 5981 1850 
Q 5509 1994 4798 2397 
Q 4088 2800 3728 3150 
L 2328 3150 
z
M 688 1222 
L 531 1538 
Q 1078 1691 1834 2072 
Q 2591 2453 3109 2919 
L 3481 2672 
Q 3025 2259 2214 1840 
Q 1403 1422 688 1222 
z
M 850 413 
L 706 747 
Q 2750 1225 4141 2234 
L 4513 1941 
Q 3922 1503 2919 1072 
Q 1916 641 850 413 
z
M 994 -422 
L 856 -56 
Q 2106 125 3307 548 
Q 4509 972 5184 1478 
L 5575 1184 
Q 4850 653 3594 204 
Q 2338 -244 994 -422 
z
" transform="scale(0.015625)"/>
      <path id="Meiryo-7167" d="M 2613 3041 
L 2444 3372 
Q 3591 3769 3744 4738 
L 2678 4738 
L 2678 5103 
L 5934 5103 
Q 5934 4419 5892 4083 
Q 5850 3747 5740 3572 
Q 5631 3397 5482 3300 
Q 5334 3203 5167 3176 
Q 5000 3150 4519 3150 
L 4331 3150 
L 4272 3550 
L 4813 3550 
Q 5175 3550 5317 3773 
Q 5459 3997 5459 4738 
L 4219 4738 
Q 4125 4113 3748 3702 
Q 3372 3291 2613 3041 
z
M 941 1475 
L 941 1219 
L 491 1219 
L 491 5056 
L 2209 5056 
L 2209 1475 
L 941 1475 
z
M 1756 4706 
L 941 4706 
L 941 3509 
L 1756 3509 
L 1756 4706 
z
M 941 3166 
L 941 1841 
L 1756 1841 
L 1756 3166 
L 941 3166 
z
M 2703 1088 
L 2703 2806 
L 5753 2806 
L 5753 1088 
L 2703 1088 
z
M 3169 1453 
L 5284 1453 
L 5284 2453 
L 3169 2453 
L 3169 1453 
z
M 5584 -347 
Q 5209 338 4878 756 
L 5341 925 
Q 5653 519 6094 -153 
L 5584 -347 
z
M 688 -419 
L 269 -209 
Q 422 -47 639 283 
Q 856 613 963 834 
L 1406 678 
Q 1322 475 1069 92 
Q 816 -291 688 -419 
z
M 3841 -369 
Q 3672 56 3397 703 
L 3859 816 
Q 3966 603 4356 -256 
L 3841 -369 
z
M 2266 -394 
L 1928 684 
L 2391 781 
Q 2503 509 2769 -288 
L 2266 -394 
z
" transform="scale(0.015625)"/>
      <path id="Meiryo-30b2" d="M 4641 3384 
Q 4547 1763 3683 872 
Q 2819 -19 1106 -275 
L 947 159 
Q 2563 413 3286 1214 
Q 4009 2016 4075 3384 
L 1913 3384 
Q 1331 2534 366 1944 
L 91 2297 
Q 881 2816 1387 3553 
Q 1894 4291 2094 5119 
L 2656 5050 
Q 2519 4453 2191 3847 
L 6309 3847 
L 6309 3384 
L 4641 3384 
z
M 6144 4466 
L 5784 4319 
Q 5572 4816 5338 5184 
L 5663 5338 
Q 5916 4947 6144 4466 
z
M 5234 4275 
L 4878 4116 
Q 4663 4606 4422 4991 
L 4763 5144 
Q 5031 4728 5234 4275 
z
" transform="scale(0.015625)"/>
      <path id="Meiryo-30ce" d="M 5388 4825 
Q 5153 2669 3987 1401 
Q 2822 134 863 -219 
L 684 244 
Q 1991 491 2897 1141 
Q 3803 1791 4284 2812 
Q 4766 3834 4825 4856 
L 5388 4825 
z
" transform="scale(0.015625)"/>
      <path id="Meiryo-30e0" d="M 5341 334 
Q 3566 53 263 -103 
L 184 391 
Q 459 394 866 409 
Q 1294 1231 1851 2632 
Q 2409 4034 2669 4953 
L 3231 4850 
Q 2878 3791 2361 2506 
Q 1844 1222 1428 431 
Q 4150 581 5128 734 
Q 4600 1691 3841 2706 
L 4256 2938 
Q 5175 1850 6150 -47 
L 5600 -231 
Q 5478 63 5341 334 
z
" transform="scale(0.015625)"/>
      <path id="Meiryo-9818" d="M 3216 3841 
L 2934 3509 
Q 2231 4028 1731 4884 
Q 1438 4316 1089 3919 
Q 741 3522 278 3156 
L 41 3475 
Q 441 3784 819 4257 
Q 1197 4731 1394 5266 
L 2013 5266 
Q 2184 4850 2565 4436 
Q 2947 4022 3216 3841 
z
M 3397 794 
L 3397 4141 
L 4219 4141 
L 4381 4744 
L 3116 4744 
L 3116 5100 
L 6163 5100 
L 6163 4744 
L 4875 4744 
L 4650 4141 
L 5916 4141 
L 5916 794 
L 3397 794 
z
M 3872 3163 
L 5434 3163 
L 5434 3791 
L 3872 3791 
L 3872 3163 
z
M 3872 2184 
L 5434 2184 
L 5434 2822 
L 3872 2822 
L 3872 2184 
z
M 5434 1844 
L 3872 1844 
L 3872 1144 
L 5434 1144 
L 5434 1844 
z
M 766 3188 
L 766 3553 
L 2606 3553 
L 2606 3188 
L 766 3188 
z
M 1041 -388 
L 1041 2144 
L 356 2144 
L 356 2503 
L 2850 2503 
L 2850 656 
Q 2850 450 2709 314 
Q 2569 178 2359 178 
L 1891 178 
L 1838 578 
L 2156 578 
Q 2384 578 2384 788 
L 2384 2144 
L 1525 2144 
L 1525 -388 
L 1041 -388 
z
M 2925 -369 
L 2709 -56 
Q 3372 166 4003 688 
L 4303 363 
Q 3503 -219 2925 -369 
z
M 6091 -381 
Q 5866 -291 5480 -45 
Q 5094 200 4897 369 
L 5203 681 
Q 5713 250 6378 -31 
L 6091 -381 
z
" transform="scale(0.015625)"/>
      <path id="Meiryo-57df" d="M 5228 1106 
Q 5294 919 5444 626 
Q 5594 334 5651 271 
Q 5709 209 5763 209 
L 5772 209 
Q 5875 228 5909 538 
L 5909 534 
L 5947 881 
Q 5966 1069 5969 1222 
L 6347 1144 
L 6306 466 
Q 6284 97 6237 -65 
Q 6191 -228 6087 -303 
Q 5984 -378 5825 -378 
Q 5691 -378 5583 -312 
Q 5475 -247 5272 33 
Q 5069 313 4913 669 
Q 4422 50 3822 -384 
L 3528 -134 
Q 4206 403 4731 1147 
Q 4419 2131 4384 3894 
L 2194 3894 
L 2194 4303 
L 4378 4303 
L 4375 5350 
L 4872 5350 
L 4869 4513 
L 4869 4303 
L 6197 4303 
L 6197 3894 
L 4872 3894 
Q 4881 2603 5069 1694 
Q 5409 2322 5591 3025 
L 6041 2906 
Q 5978 2628 5747 2084 
Q 5516 1541 5228 1106 
z
M 119 603 
L 28 1022 
Q 419 1094 875 1203 
L 875 3559 
L 222 3559 
L 222 3938 
L 875 3938 
L 875 5291 
L 1366 5291 
L 1366 3938 
L 1941 3938 
L 1941 3559 
L 1366 3559 
L 1366 1331 
Q 1794 1450 2025 1528 
L 2056 1163 
Q 1363 884 119 603 
z
M 5650 4397 
Q 5516 4691 5250 5119 
L 5650 5278 
Q 5797 5047 6066 4572 
L 5650 4397 
z
M 2234 1484 
L 2234 3306 
L 3978 3306 
L 3978 1484 
L 2234 1484 
z
M 3522 2953 
L 2684 2953 
L 2684 1838 
L 3522 1838 
L 3522 2953 
z
M 1875 106 
L 1750 538 
Q 3453 894 4219 1144 
L 4303 784 
Q 3731 556 1875 106 
z
" transform="scale(0.015625)"/>
      <path id="Meiryo-20" transform="scale(0.015625)"/>
      <path id="Meiryo-28" d="M 2397 -1303 
L 1731 -1303 
Q 1094 -563 808 184 
Q 522 931 522 1809 
Q 522 3506 1731 4919 
L 2397 4919 
L 2397 4888 
Q 1775 4341 1401 3523 
Q 1028 2706 1028 1809 
Q 1028 909 1400 95 
Q 1772 -719 2397 -1272 
L 2397 -1303 
z
" transform="scale(0.015625)"/>
      <path id="Meiryo-4f8b" d="M 863 -388 
L 863 2656 
Q 625 2197 359 1838 
L 47 2053 
Q 538 2838 883 3781 
Q 1228 4725 1300 5284 
L 1772 5231 
Q 1716 4822 1606 4473 
Q 1497 4125 1153 3281 
L 1322 3281 
L 1322 -388 
L 863 -388 
z
M 5309 -303 
L 4681 -303 
L 4616 141 
L 5153 141 
Q 5413 141 5413 363 
L 5413 5244 
L 5903 5244 
L 5903 191 
Q 5903 -303 5309 -303 
z
M 2091 -363 
L 1816 -81 
Q 2625 528 3113 1641 
Q 2694 1981 2259 2288 
Q 2109 1981 1947 1741 
L 1600 1947 
Q 1897 2400 2125 3150 
Q 2353 3900 2425 4663 
L 1966 4663 
L 1966 5022 
L 4088 5022 
L 4088 4663 
L 2891 4663 
Q 2844 4244 2772 3847 
L 4003 3847 
Q 4003 2544 3522 1420 
Q 3041 297 2091 -363 
z
M 3275 2066 
Q 3506 2778 3506 3503 
L 2700 3503 
Q 2600 3084 2422 2650 
Q 3078 2225 3275 2066 
z
M 4403 1066 
L 4403 4722 
L 4866 4722 
L 4866 1066 
L 4403 1066 
z
" transform="scale(0.015625)"/>
      <path id="Meiryo-29" d="M 1081 -1303 
L 416 -1303 
L 416 -1272 
Q 1044 -713 1414 98 
Q 1784 909 1784 1809 
Q 1784 2706 1412 3520 
Q 1041 4334 416 4888 
L 416 4919 
L 1081 4919 
Q 2291 3506 2291 1809 
Q 2291 934 2008 190 
Q 1725 -553 1081 -1303 
z
" transform="scale(0.015625)"/>
     </defs>
     <use xlink:href="#Meiryo-53c2"/>
     <use xlink:href="#Meiryo-7167" transform="translate(100 0)"/>
     <use xlink:href="#Meiryo-30b2" transform="translate(200 0)"/>
     <use xlink:href="#Meiryo-30ce" transform="translate(300 0)"/>
     <use xlink:href="#Meiryo-30e0" transform="translate(400 0)"/>
     <use xlink:href="#Meiryo-9818" transform="translate(500 0)"/>
     <use xlink:href="#Meiryo-57df" transform="translate(600 0)"/>
     <use xlink:href="#Meiryo-20" transform="translate(700 0)"/>
     <use xlink:href="#Meiryo-28" transform="translate(733.984375 0)"/>
     <use xlink:href="#Meiryo-4f8b" transform="translate(777.929688 0)"/>
     <use xlink:href="#Meiryo-29" transform="translate(877.929688 0)"/>
    </g>
   </g>
   <g id="text_2">
    <!-- NGS: 多数の短いリード（short reads）が全ゲノムを覆う -->
    <g transform="translate(140.965625 237.2518) scale(0.11 -0.11)">
     <defs>
      <path id="Meiryo-4e" d="M 4166 0 
L 3491 0 
L 1119 4088 
L 1119 0 
L 578 0 
L 578 4709 
L 1384 4709 
L 3625 847 
L 3625 4709 
L 4166 4709 
L 4166 0 
z
" transform="scale(0.015625)"/>
      <path id="Meiryo-47" d="M 4319 350 
Q 3306 -91 2663 -91 
Q 1538 -91 914 546 
Q 291 1184 291 2359 
Q 291 3500 925 4147 
Q 1559 4794 2663 4794 
Q 3478 4794 4316 4366 
L 4316 3681 
L 4272 3681 
Q 3506 4303 2563 4303 
Q 1788 4303 1342 3784 
Q 897 3266 897 2378 
Q 897 1450 1361 926 
Q 1825 403 2634 403 
Q 3228 403 3744 628 
L 3744 1841 
L 2522 1841 
L 2522 2347 
L 4319 2347 
L 4319 350 
z
" transform="scale(0.015625)"/>
      <path id="Meiryo-53" d="M 2022 -84 
Q 1228 -84 356 309 
L 356 1019 
L 397 1019 
Q 1116 406 2028 406 
Q 2591 406 2911 636 
Q 3231 866 3231 1247 
Q 3231 1541 3095 1708 
Q 2959 1875 2622 1969 
L 1572 2181 
Q 988 2303 686 2623 
Q 384 2944 384 3456 
Q 384 4038 853 4416 
Q 1322 4794 2075 4794 
Q 2863 4794 3650 4447 
L 3650 3763 
L 3606 3763 
Q 2956 4303 2075 4303 
Q 1588 4303 1289 4087 
Q 991 3872 991 3522 
Q 991 2938 1672 2769 
Q 2066 2697 2548 2589 
Q 3031 2481 3239 2364 
Q 3447 2247 3576 2097 
Q 3706 1947 3770 1756 
Q 3834 1566 3834 1334 
Q 3834 722 3337 319 
Q 2841 -84 2022 -84 
z
" transform="scale(0.015625)"/>
      <path id="Meiryo-3a" d="M 1731 2678 
L 1022 2678 
L 1022 3531 
L 1731 3531 
L 1731 2678 
z
M 1731 0 
L 1022 0 
L 1022 853 
L 1731 853 
L 1731 0 
z
" transform="scale(0.015625)"/>
      <path id="Meiryo-591a" d="M 5100 4722 
Q 4481 3850 3043 2984 
Q 1606 2119 447 1803 
L 263 2163 
Q 1375 2503 2525 3159 
Q 2181 3425 1569 3831 
Q 991 3491 472 3272 
L 263 3597 
Q 2066 4422 2894 5431 
L 3384 5334 
Q 3247 5122 3066 4950 
L 4853 4950 
L 5100 4722 
z
M 4434 4597 
L 2688 4597 
Q 2338 4319 1944 4063 
Q 2525 3694 2928 3397 
Q 3903 4000 4434 4597 
z
M 6119 2475 
Q 5481 1350 4072 572 
Q 2663 -206 641 -416 
L 538 -25 
Q 2325 178 3606 834 
Q 3153 1181 2556 1588 
Q 1834 1191 1156 953 
L 969 1275 
Q 1788 1578 2670 2120 
Q 3553 2663 4134 3325 
L 4578 3194 
Q 4403 2963 4178 2731 
L 5850 2731 
L 6119 2475 
z
M 5478 2372 
L 3769 2372 
Q 3391 2084 2947 1816 
Q 3369 1547 4041 1072 
Q 5019 1659 5478 2372 
z
" transform="scale(0.015625)"/>
      <path id="Meiryo-6570" d="M 4825 931 
Q 4203 97 3278 -403 
L 3056 -81 
Q 4009 500 4566 1353 
Q 4038 2316 3869 3147 
Q 3744 2897 3625 2713 
L 3266 2934 
Q 3550 3397 3792 4086 
Q 4034 4775 4128 5322 
L 4609 5263 
Q 4516 4763 4325 4231 
L 6144 4231 
L 6144 3866 
L 5803 3866 
Q 5731 2459 5097 1350 
Q 5603 559 6256 22 
L 5934 -331 
Q 5269 284 4825 931 
z
M 4822 1800 
Q 5328 2797 5344 3863 
L 4181 3853 
L 4153 3781 
Q 4303 2741 4822 1800 
z
M 322 2634 
L 156 2928 
Q 456 3053 892 3331 
Q 1328 3609 1619 3881 
L 366 3881 
L 366 4206 
L 1738 4206 
L 1738 5231 
L 2194 5231 
L 2194 4206 
L 3488 4206 
L 3488 3881 
L 2222 3881 
Q 2650 3534 3194 3278 
L 2972 2966 
Q 2656 3125 2194 3481 
L 2194 2606 
L 1738 2606 
L 1738 3491 
Q 1031 2925 322 2634 
z
M 3069 4344 
L 2709 4434 
L 2997 5134 
L 3391 5050 
L 3069 4344 
z
M 888 4356 
L 634 5009 
L 1013 5122 
L 1275 4469 
L 888 4356 
z
M 2094 141 
Q 1378 -300 388 -397 
L 294 -69 
Q 1113 50 1675 347 
Q 984 675 688 753 
Q 616 753 616 866 
Q 616 888 628 909 
Q 784 1188 1000 1653 
L 269 1653 
L 269 2006 
L 1156 2006 
Q 1300 2338 1353 2491 
L 1809 2419 
Q 1753 2278 1628 2006 
L 3566 2006 
L 3566 1653 
L 3178 1653 
Q 3000 919 2450 409 
Q 2809 238 3003 134 
L 2744 -219 
Q 2522 -78 2094 141 
z
M 2053 597 
Q 2572 1038 2713 1653 
L 1466 1653 
Q 1219 1138 1131 1000 
Q 1372 919 2053 597 
z
" transform="scale(0.015625)"/>
      <path id="Meiryo-306e" d="M 3338 -128 
L 3216 294 
Q 4222 384 4936 878 
Q 5650 1372 5650 2353 
Q 5650 3228 5073 3706 
Q 4497 4184 3466 4213 
Q 3431 2531 2862 1406 
Q 2294 281 1438 281 
Q 906 281 601 732 
Q 297 1184 297 1834 
Q 297 2906 1222 3761 
Q 2147 4616 3413 4616 
Q 4603 4616 5375 4020 
Q 6147 3425 6147 2394 
Q 6147 1219 5369 597 
Q 4591 -25 3338 -128 
z
M 2975 4172 
Q 2069 4034 1416 3351 
Q 763 2669 763 1809 
Q 763 1353 953 1036 
Q 1144 719 1484 719 
Q 2069 719 2503 1811 
Q 2938 2903 2975 4172 
z
" transform="scale(0.015625)"/>
      <path id="Meiryo-77ed" d="M 281 -381 
L 47 -75 
Q 1247 769 1366 2294 
L 281 2294 
L 281 2659 
L 1372 2659 
L 1372 4063 
L 1025 4063 
Q 800 3438 616 3156 
L 250 3313 
Q 434 3650 628 4261 
Q 822 4872 863 5309 
L 1334 5272 
Q 1269 4834 1150 4434 
L 2547 4434 
L 2547 4063 
L 1856 4063 
L 1856 2659 
L 2653 2659 
L 2653 2294 
L 1853 2294 
Q 1853 2253 1844 2181 
Q 2091 1522 2725 934 
L 2409 603 
Q 2003 1009 1722 1553 
Q 1341 247 281 -381 
z
M 2744 4578 
L 2744 4963 
L 6113 4963 
L 6113 4578 
L 2744 4578 
z
M 2953 1875 
L 2953 3859 
L 5903 3859 
L 5903 1875 
L 2953 1875 
z
M 5406 3488 
L 3441 3488 
L 3441 2247 
L 5406 2247 
L 5406 3488 
z
M 2469 -266 
L 2469 113 
L 3497 113 
Q 3253 1016 3097 1484 
L 3553 1603 
Q 3725 1034 3975 113 
L 4819 113 
Q 5031 719 5256 1603 
L 5747 1497 
Q 5609 953 5269 113 
L 6275 113 
L 6275 -266 
L 2469 -266 
z
" transform="scale(0.015625)"/>
      <path id="Meiryo-3044" d="M 3150 1650 
Q 3044 1353 2814 925 
Q 2584 497 2345 211 
Q 2106 -75 1850 -75 
Q 1694 -75 1572 0 
Q 1450 75 1253 290 
Q 1056 506 892 882 
Q 728 1259 650 1671 
Q 572 2084 572 2475 
Q 572 2825 644 3466 
Q 719 4138 725 4447 
L 1250 4447 
Q 1238 4166 1150 3466 
Q 1072 2841 1072 2478 
Q 1072 1934 1186 1501 
Q 1300 1069 1517 756 
Q 1734 444 1834 444 
Q 1997 444 2272 889 
Q 2547 1334 2766 1850 
L 3150 1650 
z
M 6009 731 
L 5484 716 
L 5484 772 
Q 5484 1697 5184 2572 
Q 4884 3447 4328 4134 
L 4713 4378 
Q 5988 2919 6009 731 
z
" transform="scale(0.015625)"/>
      <path id="Meiryo-30ea" d="M 5344 2509 
Q 5344 1775 4997 1176 
Q 4650 578 3848 197 
Q 3047 -184 1766 -269 
L 1644 184 
Q 3294 316 4047 912 
Q 4800 1509 4800 2631 
L 4800 5003 
L 5344 5003 
L 5344 2509 
z
M 1709 1741 
L 1166 1741 
L 1166 4897 
L 1709 4897 
L 1709 1741 
z
" transform="scale(0.015625)"/>
      <path id="Meiryo-30fc" d="M 5756 2069 
L 588 2069 
L 588 2531 
L 5756 2531 
L 5756 2069 
z
" transform="scale(0.015625)"/>
      <path id="Meiryo-30c9" d="M 5947 1944 
L 5619 1509 
Q 4969 1944 4066 2362 
Q 3163 2781 2456 2994 
L 2456 -322 
L 1900 -322 
L 1900 5150 
L 2463 5150 
L 2463 3475 
Q 4316 2919 5947 1944 
z
M 5656 4122 
L 5300 3975 
Q 5100 4447 4850 4838 
L 5178 4991 
Q 5425 4609 5656 4122 
z
M 4750 3928 
L 4391 3769 
Q 4163 4288 3938 4647 
L 4275 4800 
Q 4550 4375 4750 3928 
z
" transform="scale(0.015625)"/>
      <path id="Meiryo-ff08" d="M 6003 -453 
L 5388 -453 
Q 4300 853 4300 2459 
Q 4300 4053 5388 5369 
L 6003 5369 
L 6003 5338 
Q 5491 4863 5169 4178 
Q 4788 3366 4788 2459 
Q 4788 1547 5169 731 
Q 5491 47 6003 -428 
L 6003 -453 
z
" transform="scale(0.015625)"/>
      <path id="Meiryo-73" d="M 1528 -84 
Q 866 -84 284 206 
L 284 844 
L 306 844 
Q 938 375 1559 375 
Q 2431 375 2431 925 
Q 2431 1141 2315 1259 
Q 2200 1378 1834 1463 
Q 1528 1522 1131 1615 
Q 734 1709 517 1945 
Q 300 2181 300 2550 
Q 300 3019 681 3317 
Q 1063 3616 1700 3616 
Q 2356 3616 2853 3359 
L 2853 2753 
L 2831 2753 
Q 2284 3156 1672 3156 
Q 1294 3156 1075 3017 
Q 856 2878 856 2631 
Q 856 2413 973 2297 
Q 1091 2181 1441 2094 
L 2131 1944 
Q 2559 1850 2775 1614 
Q 2991 1378 2991 1003 
Q 2991 519 2594 217 
Q 2197 -84 1528 -84 
z
" transform="scale(0.015625)"/>
      <path id="Meiryo-68" d="M 3450 0 
L 2900 0 
L 2900 1975 
Q 2900 2666 2719 2889 
Q 2538 3113 2122 3113 
Q 1634 3113 1081 2659 
L 1081 0 
L 531 0 
L 531 4919 
L 1081 4919 
L 1081 3109 
Q 1700 3631 2309 3631 
Q 2856 3631 3153 3289 
Q 3450 2947 3450 2300 
L 3450 0 
z
" transform="scale(0.015625)"/>
      <path id="Meiryo-6f" d="M 1900 -97 
Q 1147 -97 709 401 
Q 272 900 272 1763 
Q 272 2625 712 3128 
Q 1153 3631 1900 3631 
Q 2647 3631 3087 3131 
Q 3528 2631 3528 1763 
Q 3528 894 3089 398 
Q 2650 -97 1900 -97 
z
M 1900 3163 
Q 1391 3163 1116 2803 
Q 841 2444 841 1763 
Q 841 1091 1116 731 
Q 1391 372 1900 372 
Q 2409 372 2684 731 
Q 2959 1091 2959 1763 
Q 2959 3163 1900 3163 
z
" transform="scale(0.015625)"/>
      <path id="Meiryo-72" d="M 531 0 
L 531 3531 
L 1081 3531 
L 1081 2988 
Q 1744 3531 2303 3531 
Q 2500 3531 2700 3500 
L 2700 2925 
L 2678 2925 
Q 2419 2988 2153 2988 
Q 1622 2988 1081 2538 
L 1081 0 
L 531 0 
z
" transform="scale(0.015625)"/>
      <path id="Meiryo-74" d="M 1647 -69 
Q 553 -69 553 1134 
L 553 3081 
L 150 3081 
L 150 3531 
L 556 3531 
L 556 4547 
L 1103 4547 
L 1103 3531 
L 2341 3531 
L 2341 3081 
L 1103 3081 
L 1103 1447 
Q 1103 891 1179 727 
Q 1256 563 1412 486 
Q 1569 409 1813 409 
Q 2044 409 2322 522 
L 2341 522 
L 2341 22 
Q 1969 -69 1647 -69 
z
" transform="scale(0.015625)"/>
      <path id="Meiryo-65" d="M 834 2131 
L 2906 2131 
Q 2881 3184 1941 3184 
Q 1466 3184 1172 2903 
Q 878 2622 834 2131 
z
M 2125 -81 
Q 1244 -81 758 395 
Q 272 872 272 1744 
Q 272 2609 737 3120 
Q 1203 3631 1972 3631 
Q 2672 3631 3058 3212 
Q 3444 2794 3444 2019 
L 3444 1716 
L 834 1716 
Q 834 1078 1179 736 
Q 1525 394 2134 394 
Q 2741 394 3347 816 
L 3372 816 
L 3372 219 
Q 2619 -81 2125 -81 
z
" transform="scale(0.015625)"/>
      <path id="Meiryo-61" d="M 2663 841 
L 2663 1866 
Q 1497 1813 1164 1608 
Q 831 1403 831 1044 
Q 831 409 1600 409 
Q 2122 409 2663 841 
z
M 2663 0 
L 2663 394 
Q 2222 75 1937 -11 
Q 1653 -97 1359 -97 
Q 888 -97 575 215 
Q 263 528 263 1009 
Q 263 1625 727 1936 
Q 1191 2247 2663 2306 
L 2663 2413 
Q 2663 2781 2444 2957 
Q 2225 3134 1675 3134 
Q 1191 3134 597 2884 
L 572 2884 
L 572 3456 
Q 1156 3616 1697 3616 
Q 2481 3616 2845 3323 
Q 3209 3031 3209 2416 
L 3209 0 
L 2663 0 
z
" transform="scale(0.015625)"/>
      <path id="Meiryo-64" d="M 2813 838 
L 2813 2928 
Q 2350 3141 1947 3141 
Q 1428 3141 1137 2777 
Q 847 2413 847 1753 
Q 847 422 1800 422 
Q 2334 422 2813 838 
z
M 2813 0 
L 2813 391 
Q 2209 -97 1644 -97 
Q 1019 -97 648 393 
Q 278 884 278 1734 
Q 278 2575 725 3103 
Q 1172 3631 1828 3631 
Q 2288 3631 2813 3353 
L 2813 4919 
L 3363 4919 
L 3363 0 
L 2813 0 
z
" transform="scale(0.015625)"/>
      <path id="Meiryo-ff09" d="M 2059 2463 
Q 2059 856 972 -450 
L 359 -450 
L 359 -425 
Q 872 50 1194 734 
Q 1575 1550 1575 2463 
Q 1575 3369 1194 4181 
Q 872 4866 359 5341 
L 359 5375 
L 972 5375 
Q 2059 4059 2059 2463 
z
" transform="scale(0.015625)"/>
      <path id="Meiryo-304c" d="M 2150 4494 
Q 2150 4213 2122 3853 
L 3322 3853 
Q 3766 3853 4017 3536 
Q 4269 3219 4269 2706 
Q 4269 1447 4003 619 
Q 3738 -209 3072 -209 
Q 2684 -209 1984 159 
L 2138 556 
Q 2306 475 2607 376 
Q 2909 278 3022 278 
Q 3278 275 3429 548 
Q 3581 822 3679 1317 
Q 3778 1813 3778 2494 
Q 3778 3116 3611 3280 
Q 3444 3444 3169 3444 
L 2081 3444 
Q 1972 2381 1576 1406 
Q 1181 431 578 -244 
L 225 13 
Q 631 494 1032 1351 
Q 1434 2209 1575 3378 
L 353 3378 
L 353 3797 
L 1625 3797 
Q 1647 4016 1647 5056 
L 2150 5056 
L 2150 4494 
z
M 5984 1903 
L 5497 1775 
Q 5072 3341 4256 4213 
L 4622 4463 
Q 5050 4025 5444 3279 
Q 5838 2534 5984 1903 
z
M 6313 4591 
L 5953 4444 
Q 5744 4928 5506 5309 
L 5838 5469 
Q 6053 5134 6313 4591 
z
M 5416 4463 
L 5056 4303 
Q 4831 4806 4603 5178 
L 4941 5334 
Q 5213 4913 5416 4463 
z
" transform="scale(0.015625)"/>
      <path id="Meiryo-5168" d="M 6075 2775 
Q 5391 3063 4553 3686 
Q 3716 4309 3172 4975 
Q 2619 4241 1801 3639 
Q 984 3038 278 2738 
L 50 3069 
Q 847 3428 1625 4053 
Q 2403 4678 2806 5281 
L 3503 5281 
Q 4013 4622 4828 4033 
Q 5644 3444 6356 3169 
L 6075 2775 
z
M 384 -266 
L 384 125 
L 2909 125 
L 2909 1431 
L 769 1431 
L 769 1828 
L 2909 1828 
L 2909 2978 
L 1506 2978 
L 1506 3356 
L 4841 3356 
L 4841 2978 
L 3406 2978 
L 3406 1828 
L 5578 1828 
L 5578 1431 
L 3406 1431 
L 3406 125 
L 6016 125 
L 6016 -266 
L 384 -266 
z
" transform="scale(0.015625)"/>
      <path id="Meiryo-3092" d="M 4059 794 
L 3597 794 
L 3597 1819 
Q 3597 2000 3588 2128 
Q 2150 1406 2150 819 
Q 2150 525 2472 351 
Q 2794 178 3828 178 
Q 5056 178 5788 294 
L 5819 -159 
Q 5075 -247 4100 -247 
Q 2597 -247 2140 15 
Q 1684 278 1684 766 
Q 1681 1200 2086 1625 
Q 2491 2050 3494 2544 
Q 3366 2825 3034 2825 
Q 2659 2825 2226 2689 
Q 1794 2553 1153 2006 
L 634 1569 
L 366 1888 
Q 1509 2775 2072 3938 
L 616 3938 
L 616 4344 
L 2244 4344 
Q 2388 4716 2466 5094 
L 2984 5050 
Q 2906 4691 2772 4344 
L 5094 4344 
L 5094 3938 
L 2606 3938 
Q 2431 3578 1997 2988 
L 2044 2963 
Q 2166 3041 2525 3114 
Q 2884 3188 3078 3188 
Q 3684 3188 3906 2734 
L 5747 3444 
L 5953 3022 
Q 5303 2809 4022 2331 
Q 4059 2097 4059 1741 
L 4059 794 
z
" transform="scale(0.015625)"/>
      <path id="Meiryo-8986" d="M 2181 4463 
L 2181 4816 
L 303 4816 
L 303 5109 
L 6053 5109 
L 6053 4816 
L 4122 4816 
L 4122 4463 
L 5722 4463 
L 5722 3600 
L 656 3600 
L 656 4463 
L 2181 4463 
z
M 2613 4816 
L 2613 4463 
L 3691 4463 
L 3691 4816 
L 2613 4816 
z
M 2181 3822 
L 2181 4228 
L 1078 4228 
L 1078 3822 
L 2181 3822 
z
M 2613 4228 
L 2613 3822 
L 3691 3822 
L 3691 4228 
L 2613 4228 
z
M 5303 4228 
L 4122 4228 
L 4122 3822 
L 5303 3822 
L 5303 4228 
z
M 2681 713 
Q 2319 553 2038 475 
L 1903 722 
Q 2559 906 3219 1344 
L 2625 1344 
L 2625 2597 
Q 2419 2419 2253 2309 
L 2013 2544 
Q 2744 3088 3013 3550 
L 3403 3444 
Q 3347 3347 3244 3222 
L 5963 3222 
L 5963 2956 
L 3003 2956 
Q 2831 2778 2669 2634 
L 5566 2634 
L 5566 1344 
L 3728 1344 
Q 3534 1178 3288 1034 
L 5459 1034 
L 5634 894 
Q 5244 475 4547 150 
Q 5247 -19 6100 -69 
L 5928 -394 
Q 4969 -328 4066 -44 
Q 3172 -347 2038 -388 
L 1959 -100 
Q 2903 -63 3603 128 
Q 3038 381 2681 713 
z
M 3038 2088 
L 5141 2088 
L 5141 2425 
L 3038 2425 
L 3038 2088 
z
M 5141 1884 
L 3038 1884 
L 3038 1559 
L 5141 1559 
L 5141 1884 
z
M 4084 284 
Q 4563 466 5047 794 
L 3059 794 
Q 3488 488 4084 284 
z
M 578 2309 
L 328 2556 
Q 1031 2934 1516 3419 
L 1881 3244 
Q 1688 3047 1283 2756 
Q 878 2466 578 2309 
z
M 1053 -394 
L 1053 1359 
Q 681 1050 453 919 
L 203 1159 
Q 566 1397 986 1800 
Q 1406 2203 1575 2466 
L 1947 2291 
Q 1728 1975 1328 1597 
L 1484 1597 
L 1484 -394 
L 1053 -394 
z
" transform="scale(0.015625)"/>
      <path id="Meiryo-3046" d="M 4872 4569 
L 4763 4128 
Q 3534 4369 1222 4416 
L 1244 4838 
Q 1931 4838 2725 4789 
Q 3519 4741 4872 4569 
z
M 1759 -250 
L 1672 159 
Q 3056 256 3812 584 
Q 4569 913 4816 1289 
Q 5063 1666 5063 2181 
Q 5063 2628 4706 2883 
Q 4350 3138 3797 3138 
Q 3500 3138 3150 3105 
Q 2800 3072 2565 3034 
Q 2331 2997 859 2728 
L 775 3175 
L 1997 3375 
Q 2575 3472 3014 3512 
Q 3453 3553 3803 3553 
Q 4603 3553 5079 3189 
Q 5556 2825 5556 2156 
Q 5556 1031 4551 418 
Q 3547 -194 1759 -250 
z
" transform="scale(0.015625)"/>
     </defs>
     <use xlink:href="#Meiryo-4e"/>
     <use xlink:href="#Meiryo-47" transform="translate(74.121094 0)"/>
     <use xlink:href="#Meiryo-53" transform="translate(146.923828 0)"/>
     <use xlink:href="#Meiryo-3a" transform="translate(210.400391 0)"/>
     <use xlink:href="#Meiryo-20" transform="translate(253.369141 0)"/>
     <use xlink:href="#Meiryo-591a" transform="translate(287.353516 0)"/>
     <use xlink:href="#Meiryo-6570" transform="translate(387.353516 0)"/>
     <use xlink:href="#Meiryo-306e" transform="translate(487.353516 0)"/>
     <use xlink:href="#Meiryo-77ed" transform="translate(587.353516 0)"/>
     <use xlink:href="#Meiryo-3044" transform="translate(687.353516 0)"/>
     <use xlink:href="#Meiryo-30ea" transform="translate(787.353516 0)"/>
     <use xlink:href="#Meiryo-30fc" transform="translate(887.353516 0)"/>
     <use xlink:href="#Meiryo-30c9" transform="translate(987.353516 0)"/>
     <use xlink:href="#Meiryo-ff08" transform="translate(1087.353516 0)"/>
     <use xlink:href="#Meiryo-73" transform="translate(1187.353516 0)"/>
     <use xlink:href="#Meiryo-68" transform="translate(1237.158203 0)"/>
     <use xlink:href="#Meiryo-6f" transform="translate(1298.974609 0)"/>
     <use xlink:href="#Meiryo-72" transform="translate(1358.349609 0)"/>
     <use xlink:href="#Meiryo-74" transform="translate(1401.033203 0)"/>
     <use xlink:href="#Meiryo-20" transform="translate(1438.923828 0)"/>
     <use xlink:href="#Meiryo-72" transform="translate(1472.908203 0)"/>
     <use xlink:href="#Meiryo-65" transform="translate(1514.216797 0)"/>
     <use xlink:href="#Meiryo-61" transform="translate(1571.931641 0)"/>
     <use xlink:href="#Meiryo-64" transform="translate(1629.939453 0)"/>
     <use xlink:href="#Meiryo-73" transform="translate(1690.779297 0)"/>
     <use xlink:href="#Meiryo-ff09" transform="translate(1740.583984 0)"/>
     <use xlink:href="#Meiryo-304c" transform="translate(1840.583984 0)"/>
     <use xlink:href="#Meiryo-5168" transform="translate(1940.583984 0)"/>
     <use xlink:href="#Meiryo-30b2" transform="translate(2040.583984 0)"/>
     <use xlink:href="#Meiryo-30ce" transform="translate(2140.583984 0)"/>
     <use xlink:href="#Meiryo-30e0" transform="translate(2240.583984 0)"/>
     <use xlink:href="#Meiryo-3092" transform="translate(2340.583984 0)"/>
     <use xlink:href="#Meiryo-8986" transform="translate(2440.583984 0)"/>
     <use xlink:href="#Meiryo-3046" transform="translate(2540.583984 0)"/>
    </g>
   </g>
   <g id="text_3">
    <!-- 第二世代 — 次世代シーケンサー (NGS): 出力のイメージ -->
    <g transform="translate(105.794687 18.855) scale(0.14 -0.14)">
     <defs>
      <path id="Meiryo-7b2c" d="M 6028 4525 
L 4828 4525 
L 5103 4016 
L 4666 3919 
L 4359 4525 
L 3809 4525 
Q 3497 4094 3234 3881 
L 2909 4088 
Q 3378 4566 3744 5316 
L 4213 5219 
Q 4153 5097 4025 4859 
L 6028 4859 
L 6028 4525 
z
M 3006 4525 
L 2188 4525 
L 2438 4031 
L 2013 3931 
L 1731 4525 
L 1213 4525 
Q 831 4031 453 3738 
L 178 3972 
Q 884 4644 1178 5303 
L 1641 5219 
Q 1553 5031 1447 4859 
L 3006 4859 
L 3006 4525 
z
M 5991 1713 
Q 5991 1128 5934 779 
Q 5878 431 5790 293 
Q 5703 156 5570 82 
Q 5438 9 5283 -14 
Q 5128 -38 4719 -38 
L 4300 -38 
L 4247 375 
L 4900 375 
Q 5144 375 5287 487 
Q 5431 600 5468 789 
Q 5506 978 5506 1359 
L 3438 1359 
L 3438 -397 
L 2959 -397 
L 2959 1194 
Q 1994 278 447 -241 
L 266 100 
Q 1722 650 2488 1359 
L 1075 1359 
L 1047 1209 
L 584 1209 
L 825 2763 
L 2959 2763 
L 2959 3391 
L 741 3391 
L 741 3738 
L 5681 3738 
L 5681 2425 
L 3438 2425 
L 3438 1713 
L 5991 1713 
z
M 5213 2763 
L 5213 3391 
L 3438 3391 
L 3438 2763 
L 5213 2763 
z
M 2959 1713 
L 2959 2425 
L 1256 2425 
L 1131 1713 
L 2959 1713 
z
" transform="scale(0.015625)"/>
      <path id="Meiryo-4e8c" d="M 772 3950 
L 772 4356 
L 5603 4356 
L 5603 3950 
L 772 3950 
z
M 353 34 
L 353 459 
L 6013 459 
L 6013 34 
L 353 34 
z
" transform="scale(0.015625)"/>
      <path id="Meiryo-4e16" d="M 1466 250 
L 5981 250 
L 5981 -147 
L 1466 -147 
L 1466 -369 
L 975 -369 
L 975 3259 
L 203 3259 
L 203 3647 
L 975 3647 
L 975 5147 
L 1466 5147 
L 1466 3647 
L 2738 3647 
L 2738 5225 
L 3213 5225 
L 3213 3647 
L 4584 3647 
L 4584 5219 
L 5069 5219 
L 5069 3647 
L 6106 3647 
L 6106 3259 
L 5069 3259 
L 5069 1447 
L 2738 1447 
L 2738 3259 
L 1466 3259 
L 1466 250 
z
M 4584 3259 
L 3213 3259 
L 3213 1831 
L 4584 1831 
L 4584 3259 
z
" transform="scale(0.015625)"/>
      <path id="Meiryo-4ee3" d="M 6147 1322 
Q 6084 353 5981 29 
Q 5878 -294 5538 -325 
L 5503 -325 
Q 5266 -325 5084 -211 
Q 4903 -97 4561 311 
Q 4219 719 3937 1406 
Q 3656 2094 3506 3028 
L 2053 2922 
L 2019 3313 
L 3450 3416 
Q 3384 3981 3384 4978 
L 3384 5278 
L 3888 5278 
L 3888 4997 
Q 3888 3956 3947 3453 
L 5963 3600 
L 6009 3216 
L 4003 3066 
Q 4250 1634 4701 929 
Q 5153 225 5416 225 
Q 5563 225 5623 484 
Q 5684 744 5728 1419 
L 6147 1322 
z
M 2191 5166 
Q 1991 4541 1413 3416 
L 1634 3416 
L 1634 -397 
L 1153 -397 
L 1153 2944 
Q 847 2428 416 1884 
L 75 2138 
Q 469 2622 976 3580 
Q 1484 4538 1681 5259 
L 2191 5166 
z
M 5603 4141 
L 5225 3869 
Q 4788 4375 4350 4756 
L 4691 5022 
Q 5169 4628 5603 4141 
z
" transform="scale(0.015625)"/>
      <path id="Meiryo-2014" d="M 5922 1828 
L 478 1828 
L 478 2291 
L 5922 2291 
L 5922 1828 
z
" transform="scale(0.015625)"/>
      <path id="Meiryo-6b21" d="M 2872 4009 
Q 2519 3184 2038 2594 
L 1678 2809 
Q 2459 3906 2803 5328 
L 3313 5250 
Q 3234 4938 3028 4403 
L 5969 4403 
L 6066 4303 
Q 5969 3903 5742 3325 
Q 5516 2747 5369 2497 
L 4931 2606 
Q 5322 3391 5441 4009 
L 2872 4009 
z
M 1275 3516 
Q 847 4097 334 4638 
L 731 4913 
Q 1247 4397 1672 3809 
L 1275 3516 
z
M 3756 2063 
Q 3547 1175 2926 540 
Q 2306 -94 1634 -375 
L 1391 -56 
Q 1972 253 2370 623 
Q 2769 994 3022 1462 
Q 3275 1931 3365 2376 
Q 3456 2822 3456 3375 
L 3456 3697 
L 3950 3697 
L 3953 3381 
Q 3956 3100 3938 2944 
Q 4047 2122 4648 1300 
Q 5250 478 6178 -9 
L 5856 -397 
Q 5131 6 4532 693 
Q 3934 1381 3756 2063 
z
M 659 63 
L 203 316 
Q 425 622 747 1308 
Q 1069 1994 1209 2431 
L 1653 2281 
Q 1522 1834 1198 1109 
Q 875 384 659 63 
z
" transform="scale(0.015625)"/>
      <path id="Meiryo-30b7" d="M 3803 4109 
L 3541 3666 
Q 2763 4041 1113 4506 
L 1325 4888 
Q 1766 4800 2495 4575 
Q 3225 4350 3803 4109 
z
M 3150 2559 
L 2894 2106 
Q 1922 2528 459 2900 
L 653 3309 
Q 1709 3109 3150 2559 
z
M 6163 2822 
Q 5438 1547 4067 759 
Q 2697 -28 909 -200 
L 781 263 
Q 1844 394 2669 675 
Q 3494 956 4053 1339 
Q 4613 1722 4963 2065 
Q 5313 2409 5716 3047 
L 6163 2822 
z
" transform="scale(0.015625)"/>
      <path id="Meiryo-30b1" d="M 4641 3384 
Q 4547 1763 3683 872 
Q 2819 -19 1106 -275 
L 947 159 
Q 2563 413 3286 1214 
Q 4009 2016 4075 3384 
L 1913 3384 
Q 1331 2534 366 1944 
L 91 2297 
Q 881 2816 1387 3553 
Q 1894 4291 2094 5119 
L 2656 5050 
Q 2519 4453 2191 3847 
L 6309 3847 
L 6309 3384 
L 4641 3384 
z
" transform="scale(0.015625)"/>
      <path id="Meiryo-30f3" d="M 3334 3622 
L 2981 3213 
Q 1866 3900 756 4372 
L 1025 4763 
Q 2194 4325 3334 3622 
z
M 6059 2828 
Q 5534 1913 4696 1245 
Q 3859 578 2954 251 
Q 2050 -75 825 -206 
L 716 275 
Q 1734 378 2540 648 
Q 3347 919 3908 1301 
Q 4469 1684 4853 2061 
Q 5238 2438 5631 3097 
L 6059 2828 
z
" transform="scale(0.015625)"/>
      <path id="Meiryo-30b5" d="M 1972 1644 
L 1428 1644 
L 1428 3225 
L 191 3225 
L 191 3678 
L 1428 3678 
L 1428 4997 
L 1972 4997 
L 1972 3678 
L 4563 3678 
L 4563 5088 
L 5106 5088 
L 5106 3678 
L 6284 3678 
L 6284 3225 
L 5106 3225 
L 5106 2469 
Q 5106 -150 1491 -269 
L 1388 197 
Q 3138 259 3850 864 
Q 4563 1469 4563 2456 
L 4563 3225 
L 1972 3225 
L 1972 1644 
z
" transform="scale(0.015625)"/>
      <path id="Meiryo-51fa" d="M 503 -309 
L 503 2209 
L 981 2209 
L 981 375 
L 2863 375 
L 2866 2744 
L 806 2744 
L 806 4822 
L 1300 4822 
L 1300 3116 
L 2866 3116 
L 2869 5213 
L 3363 5213 
L 3363 3116 
L 4975 3116 
L 4975 4822 
L 5478 4822 
L 5478 2744 
L 3359 2744 
L 3356 375 
L 5347 375 
L 5347 2209 
L 5844 2209 
L 5844 -309 
L 5347 -309 
L 5347 -9 
L 981 -9 
L 981 -309 
L 503 -309 
z
" transform="scale(0.015625)"/>
      <path id="Meiryo-529b" d="M 2950 3559 
Q 2916 2259 2314 1246 
Q 1713 234 509 -291 
L 269 69 
Q 1325 544 1876 1478 
Q 2428 2413 2428 3481 
L 2428 3559 
L 553 3559 
L 553 3959 
L 2428 3959 
L 2428 5225 
L 2950 5225 
L 2950 3959 
L 5641 3959 
L 5641 2841 
Q 5641 1953 5564 1358 
Q 5488 763 5331 353 
Q 5250 134 5061 -11 
Q 4872 -156 4650 -203 
Q 4503 -234 3734 -234 
L 3375 -234 
L 3309 219 
L 4238 219 
Q 4809 219 4967 853 
Q 5125 1488 5125 2900 
L 5125 3559 
L 2950 3559 
z
" transform="scale(0.015625)"/>
      <path id="Meiryo-30a4" d="M 3994 -300 
L 3438 -300 
L 3438 2813 
Q 2066 2084 513 1722 
L 347 2150 
Q 2375 2672 3547 3459 
Q 4719 4247 5306 5088 
L 5819 4888 
Q 5250 4038 3994 3175 
L 3994 -300 
z
" transform="scale(0.015625)"/>
      <path id="Meiryo-30e1" d="M 5228 4922 
Q 4984 3556 4119 2313 
Q 5069 1666 5766 1063 
L 5356 672 
Q 4922 1103 3803 1897 
Q 2500 309 603 -231 
L 384 203 
Q 2109 703 3375 2203 
Q 2656 2703 1228 3456 
L 1528 3834 
Q 2794 3181 3681 2606 
Q 4450 3716 4691 4991 
L 5228 4922 
z
" transform="scale(0.015625)"/>
      <path id="Meiryo-30b8" d="M 3803 4109 
L 3541 3666 
Q 2763 4041 1113 4506 
L 1325 4888 
Q 1766 4800 2495 4575 
Q 3225 4350 3803 4109 
z
M 3150 2559 
L 2894 2106 
Q 1922 2528 459 2900 
L 653 3309 
Q 1709 3109 3150 2559 
z
M 6163 2822 
Q 5438 1547 4067 759 
Q 2697 -28 909 -200 
L 781 263 
Q 1844 394 2669 675 
Q 3494 956 4053 1339 
Q 4613 1722 4963 2065 
Q 5313 2409 5716 3047 
L 6163 2822 
z
M 5991 4069 
L 5631 3922 
Q 5419 4419 5184 4788 
L 5509 4941 
Q 5763 4550 5991 4069 
z
M 5081 3878 
L 4722 3719 
Q 4497 4228 4269 4594 
L 4609 4747 
Q 4878 4331 5081 3878 
z
" transform="scale(0.015625)"/>
     </defs>
     <use xlink:href="#Meiryo-7b2c"/>
     <use xlink:href="#Meiryo-4e8c" transform="translate(100 0)"/>
     <use xlink:href="#Meiryo-4e16" transform="translate(200 0)"/>
     <use xlink:href="#Meiryo-4ee3" transform="translate(300 0)"/>
     <use xlink:href="#Meiryo-20" transform="translate(400 0)"/>
     <use xlink:href="#Meiryo-2014" transform="translate(433.984375 0)"/>
     <use xlink:href="#Meiryo-20" transform="translate(533.984375 0)"/>
     <use xlink:href="#Meiryo-6b21" transform="translate(567.96875 0)"/>
     <use xlink:href="#Meiryo-4e16" transform="translate(667.96875 0)"/>
     <use xlink:href="#Meiryo-4ee3" transform="translate(767.96875 0)"/>
     <use xlink:href="#Meiryo-30b7" transform="translate(867.96875 0)"/>
     <use xlink:href="#Meiryo-30fc" transform="translate(967.96875 0)"/>
     <use xlink:href="#Meiryo-30b1" transform="translate(1067.96875 0)"/>
     <use xlink:href="#Meiryo-30f3" transform="translate(1167.96875 0)"/>
     <use xlink:href="#Meiryo-30b5" transform="translate(1267.96875 0)"/>
     <use xlink:href="#Meiryo-30fc" transform="translate(1367.96875 0)"/>
     <use xlink:href="#Meiryo-20" transform="translate(1467.96875 0)"/>
     <use xlink:href="#Meiryo-28" transform="translate(1501.953125 0)"/>
     <use xlink:href="#Meiryo-4e" transform="translate(1545.898438 0)"/>
     <use xlink:href="#Meiryo-47" transform="translate(1620.019531 0)"/>
     <use xlink:href="#Meiryo-53" transform="translate(1692.822266 0)"/>
     <use xlink:href="#Meiryo-29" transform="translate(1756.298828 0)"/>
     <use xlink:href="#Meiryo-3a" transform="translate(1800.244141 0)"/>
     <use xlink:href="#Meiryo-20" transform="translate(1843.212891 0)"/>
     <use xlink:href="#Meiryo-51fa" transform="translate(1877.197266 0)"/>
     <use xlink:href="#Meiryo-529b" transform="translate(1977.197266 0)"/>
     <use xlink:href="#Meiryo-306e" transform="translate(2077.197266 0)"/>
     <use xlink:href="#Meiryo-30a4" transform="translate(2177.197266 0)"/>
     <use xlink:href="#Meiryo-30e1" transform="translate(2277.197266 0)"/>
     <use xlink:href="#Meiryo-30fc" transform="translate(2377.197266 0)"/>
     <use xlink:href="#Meiryo-30b8" transform="translate(2477.197266 0)"/>
    </g>
   </g>
  </g>
 </g>
 <defs>
  <clipPath id="p8b2cc145bf">
   <rect x="7.2" y="24.855" width="558" height="221.76"/>
  </clipPath>
 </defs>
</svg>
