<?xml version="1.0" encoding="utf-8" standalone="no"?>
<!DOCTYPE svg PUBLIC "-//W3C//DTD SVG 1.1//EN"
  "http://www.w3.org/Graphics/SVG/1.1/DTD/svg11.dtd">
<svg xmlns:xlink="http://www.w3.org/1999/xlink" width="572.4pt" height="253.685937pt" viewBox="0 0 572.4 253.685937" xmlns="http://www.w3.org/2000/svg" version="1.1">
 <metadata>
  <rdf:RDF xmlns:dc="http://purl.org/dc/elements/1.1/" xmlns:cc="http://creativecommons.org/ns#" xmlns:rdf="http://www.w3.org/1999/02/22-rdf-syntax-ns#">
   <cc:Work>
    <dc:type rdf:resource="http://purl.org/dc/dcmitype/StillImage"/>
    <dc:date>2025-08-10T22:59:24.126450</dc:date>
    <dc:format>image/svg+xml</dc:format>
    <dc:creator>
     <cc:Agent>
      <dc:title>Matplotlib v3.10.0, https://matplotlib.org/</dc:title>
     </cc:Agent>
    </dc:creator>
   </cc:Work>
  </rdf:RDF>
 </metadata>
 <defs>
  <style type="text/css">*{stroke-linejoin: round; stroke-linecap: butt}</style>
 </defs>
 <g id="figure_1">
  <g id="patch_1">
   <path d="M 0 253.685937 
L 572.4 253.685937 
L 572.4 0 
L 0 0 
z
" style="fill: #ffffff"/>
  </g>
  <g id="axes_1">
   <g id="LineCollection_1">
    <path d="M 14.004878 241.557938 
L 558.395122 241.557938 
" clip-path="url(#pe44391bd05)" style="fill: none; stroke: #1f77b4; stroke-width: 2"/>
   </g>
   <g id="LineCollection_2">
    <path d="M 248.092683 221.845937 
L 302.531707 221.845937 
" clip-path="url(#pe44391bd05)" style="fill: none; stroke: #1f77b4; stroke-width: 6"/>
   </g>
   <g id="LineCollection_3">
    <path d="M 77.970732 200.725937 
L 132.409756 200.725937 
" clip-path="url(#pe44391bd05)" style="fill: none; stroke: #1f77b4; stroke-width: 6"/>
   </g>
   <g id="LineCollection_4">
    <path d="M 173.239024 179.605937 
L 227.678049 179.605937 
" clip-path="url(#pe44391bd05)" style="fill: none; stroke: #1f77b4; stroke-width: 6"/>
   </g>
   <g id="LineCollection_5">
    <path d="M 275.312195 158.485938 
L 329.75122 158.485938 
" clip-path="url(#pe44391bd05)" style="fill: none; stroke: #1f77b4; stroke-width: 6"/>
   </g>
   <g id="LineCollection_6">
    <path d="M 453.6 137.365938 
L 508.039024 137.365938 
" clip-path="url(#pe44391bd05)" style="fill: none; stroke: #1f77b4; stroke-width: 6"/>
   </g>
   <g id="LineCollection_7">
    <path d="M 355.609756 116.245937 
L 410.04878 116.245937 
" clip-path="url(#pe44391bd05)" style="fill: none; stroke: #1f77b4; stroke-width: 6"/>
   </g>
   <g id="LineCollection_8">
    <path d="M 279.395122 95.125938 
L 333.834146 95.125938 
" clip-path="url(#pe44391bd05)" style="fill: none; stroke: #1f77b4; stroke-width: 6"/>
   </g>
   <g id="LineCollection_9">
    <path d="M 502.595122 74.005937 
L 557.034146 74.005937 
" clip-path="url(#pe44391bd05)" style="fill: none; stroke: #1f77b4; stroke-width: 6"/>
   </g>
   <g id="LineCollection_10">
    <path d="M 26.253659 221.845937 
L 80.692683 221.845937 
" clip-path="url(#pe44391bd05)" style="fill: none; stroke: #1f77b4; stroke-width: 6"/>
   </g>
   <g id="LineCollection_11">
    <path d="M 301.170732 200.725937 
L 355.609756 200.725937 
" clip-path="url(#pe44391bd05)" style="fill: none; stroke: #1f77b4; stroke-width: 6"/>
   </g>
   <g id="LineCollection_12">
    <path d="M 390.995122 179.605937 
L 445.434146 179.605937 
" clip-path="url(#pe44391bd05)" style="fill: none; stroke: #1f77b4; stroke-width: 6"/>
   </g>
   <g id="LineCollection_13">
    <path d="M 343.360976 158.485938 
L 397.8 158.485938 
" clip-path="url(#pe44391bd05)" style="fill: none; stroke: #1f77b4; stroke-width: 6"/>
   </g>
   <g id="LineCollection_14">
    <path d="M 411.409756 137.365938 
L 465.84878 137.365938 
" clip-path="url(#pe44391bd05)" style="fill: none; stroke: #1f77b4; stroke-width: 6"/>
   </g>
   <g id="LineCollection_15">
    <path d="M 132.409756 116.245937 
L 186.84878 116.245937 
" clip-path="url(#pe44391bd05)" style="fill: none; stroke: #1f77b4; stroke-width: 6"/>
   </g>
   <g id="LineCollection_16">
    <path d="M 109.273171 95.125938 
L 163.712195 95.125938 
" clip-path="url(#pe44391bd05)" style="fill: none; stroke: #1f77b4; stroke-width: 6"/>
   </g>
   <g id="LineCollection_17">
    <path d="M 133.770732 74.005937 
L 188.209756 74.005937 
" clip-path="url(#pe44391bd05)" style="fill: none; stroke: #1f77b4; stroke-width: 6"/>
   </g>
   <g id="LineCollection_18">
    <path d="M 441.35122 221.845937 
L 495.790244 221.845937 
" clip-path="url(#pe44391bd05)" style="fill: none; stroke: #1f77b4; stroke-width: 6"/>
   </g>
   <g id="LineCollection_19">
    <path d="M 276.673171 200.725937 
L 331.112195 200.725937 
" clip-path="url(#pe44391bd05)" style="fill: none; stroke: #1f77b4; stroke-width: 6"/>
   </g>
   <g id="LineCollection_20">
    <path d="M 67.082927 179.605937 
L 121.521951 179.605937 
" clip-path="url(#pe44391bd05)" style="fill: none; stroke: #1f77b4; stroke-width: 6"/>
   </g>
   <g id="LineCollection_21">
    <path d="M 132.409756 158.485938 
L 186.84878 158.485938 
" clip-path="url(#pe44391bd05)" style="fill: none; stroke: #1f77b4; stroke-width: 6"/>
   </g>
   <g id="LineCollection_22">
    <path d="M 250.814634 137.365938 
L 305.253659 137.365938 
" clip-path="url(#pe44391bd05)" style="fill: none; stroke: #1f77b4; stroke-width: 6"/>
   </g>
   <g id="LineCollection_23">
    <path d="M 133.770732 116.245937 
L 188.209756 116.245937 
" clip-path="url(#pe44391bd05)" style="fill: none; stroke: #1f77b4; stroke-width: 6"/>
   </g>
   <g id="LineCollection_24">
    <path d="M 472.653659 95.125938 
L 527.092683 95.125938 
" clip-path="url(#pe44391bd05)" style="fill: none; stroke: #1f77b4; stroke-width: 6"/>
   </g>
   <g id="LineCollection_25">
    <path d="M 238.565854 74.005937 
L 293.004878 74.005937 
" clip-path="url(#pe44391bd05)" style="fill: none; stroke: #1f77b4; stroke-width: 6"/>
   </g>
   <g id="LineCollection_26">
    <path d="M 48.029268 221.845937 
L 102.468293 221.845937 
" clip-path="url(#pe44391bd05)" style="fill: none; stroke: #1f77b4; stroke-width: 6"/>
   </g>
   <g id="LineCollection_27">
    <path d="M 467.209756 200.725937 
L 521.64878 200.725937 
" clip-path="url(#pe44391bd05)" style="fill: none; stroke: #1f77b4; stroke-width: 6"/>
   </g>
   <g id="LineCollection_28">
    <path d="M 111.995122 179.605937 
L 166.434146 179.605937 
" clip-path="url(#pe44391bd05)" style="fill: none; stroke: #1f77b4; stroke-width: 6"/>
   </g>
   <g id="LineCollection_29">
    <path d="M 374.663415 158.485938 
L 429.102439 158.485938 
" clip-path="url(#pe44391bd05)" style="fill: none; stroke: #1f77b4; stroke-width: 6"/>
   </g>
   <g id="LineCollection_30">
    <path d="M 170.517073 137.365938 
L 224.956098 137.365938 
" clip-path="url(#pe44391bd05)" style="fill: none; stroke: #1f77b4; stroke-width: 6"/>
   </g>
   <g id="LineCollection_31">
    <path d="M 344.721951 116.245937 
L 399.160976 116.245937 
" clip-path="url(#pe44391bd05)" style="fill: none; stroke: #1f77b4; stroke-width: 6"/>
   </g>
   <g id="LineCollection_32">
    <path d="M 282.117073 95.125938 
L 336.556098 95.125938 
" clip-path="url(#pe44391bd05)" style="fill: none; stroke: #1f77b4; stroke-width: 6"/>
   </g>
   <g id="LineCollection_33">
    <path d="M 469.931707 74.005937 
L 524.370732 74.005937 
" clip-path="url(#pe44391bd05)" style="fill: none; stroke: #1f77b4; stroke-width: 6"/>
   </g>
   <g id="LineCollection_34">
    <path d="M 474.014634 221.845937 
L 528.453659 221.845937 
" clip-path="url(#pe44391bd05)" style="fill: none; stroke: #1f77b4; stroke-width: 6"/>
   </g>
   <g id="LineCollection_35">
    <path d="M 148.741463 200.725937 
L 203.180488 200.725937 
" clip-path="url(#pe44391bd05)" style="fill: none; stroke: #1f77b4; stroke-width: 6"/>
   </g>
   <g id="LineCollection_36">
    <path d="M 254.897561 179.605937 
L 309.336585 179.605937 
" clip-path="url(#pe44391bd05)" style="fill: none; stroke: #1f77b4; stroke-width: 6"/>
   </g>
   <g id="LineCollection_37">
    <path d="M 344.721951 158.485938 
L 399.160976 158.485938 
" clip-path="url(#pe44391bd05)" style="fill: none; stroke: #1f77b4; stroke-width: 6"/>
   </g>
   <g id="LineCollection_38">
    <path d="M 401.882927 137.365938 
L 456.321951 137.365938 
" clip-path="url(#pe44391bd05)" style="fill: none; stroke: #1f77b4; stroke-width: 6"/>
   </g>
   <g id="LineCollection_39">
    <path d="M 214.068293 116.245937 
L 268.507317 116.245937 
" clip-path="url(#pe44391bd05)" style="fill: none; stroke: #1f77b4; stroke-width: 6"/>
   </g>
   <g id="LineCollection_40">
    <path d="M 214.068293 95.125938 
L 268.507317 95.125938 
" clip-path="url(#pe44391bd05)" style="fill: none; stroke: #1f77b4; stroke-width: 6"/>
   </g>
   <g id="LineCollection_41">
    <path d="M 405.965854 74.005937 
L 460.404878 74.005937 
" clip-path="url(#pe44391bd05)" style="fill: none; stroke: #1f77b4; stroke-width: 6"/>
   </g>
   <g id="LineCollection_42">
    <path d="M 374.663415 221.845937 
L 429.102439 221.845937 
" clip-path="url(#pe44391bd05)" style="fill: none; stroke: #1f77b4; stroke-width: 6"/>
   </g>
   <g id="LineCollection_43">
    <path d="M 265.785366 200.725937 
L 320.22439 200.725937 
" clip-path="url(#pe44391bd05)" style="fill: none; stroke: #1f77b4; stroke-width: 6"/>
   </g>
   <g id="LineCollection_44">
    <path d="M 186.84878 179.605937 
L 241.287805 179.605937 
" clip-path="url(#pe44391bd05)" style="fill: none; stroke: #1f77b4; stroke-width: 6"/>
   </g>
   <g id="LineCollection_45">
    <path d="M 57.556098 158.485938 
L 111.995122 158.485938 
" clip-path="url(#pe44391bd05)" style="fill: none; stroke: #1f77b4; stroke-width: 6"/>
   </g>
   <g id="LineCollection_46">
    <path d="M 56.195122 137.365938 
L 110.634146 137.365938 
" clip-path="url(#pe44391bd05)" style="fill: none; stroke: #1f77b4; stroke-width: 6"/>
   </g>
   <g id="LineCollection_47">
    <path d="M 288.921951 116.245937 
L 343.360976 116.245937 
" clip-path="url(#pe44391bd05)" style="fill: none; stroke: #1f77b4; stroke-width: 6"/>
   </g>
   <g id="LineCollection_48">
    <path d="M 346.082927 95.125938 
L 400.521951 95.125938 
" clip-path="url(#pe44391bd05)" style="fill: none; stroke: #1f77b4; stroke-width: 6"/>
   </g>
   <g id="LineCollection_49">
    <path d="M 219.512195 74.005937 
L 273.95122 74.005937 
" clip-path="url(#pe44391bd05)" style="fill: none; stroke: #1f77b4; stroke-width: 6"/>
   </g>
   <g id="LineCollection_50">
    <path d="M 235.843902 221.845937 
L 290.282927 221.845937 
" clip-path="url(#pe44391bd05)" style="fill: none; stroke: #1f77b4; stroke-width: 6"/>
   </g>
   <g id="LineCollection_51">
    <path d="M 263.063415 200.725937 
L 317.502439 200.725937 
" clip-path="url(#pe44391bd05)" style="fill: none; stroke: #1f77b4; stroke-width: 6"/>
   </g>
   <g id="LineCollection_52">
    <path d="M 52.112195 179.605937 
L 106.55122 179.605937 
" clip-path="url(#pe44391bd05)" style="fill: none; stroke: #1f77b4; stroke-width: 6"/>
   </g>
   <g id="LineCollection_53">
    <path d="M 408.687805 158.485938 
L 463.126829 158.485938 
" clip-path="url(#pe44391bd05)" style="fill: none; stroke: #1f77b4; stroke-width: 6"/>
   </g>
   <g id="LineCollection_54">
    <path d="M 188.209756 137.365938 
L 242.64878 137.365938 
" clip-path="url(#pe44391bd05)" style="fill: none; stroke: #1f77b4; stroke-width: 6"/>
   </g>
   <g id="LineCollection_55">
    <path d="M 188.209756 116.245937 
L 242.64878 116.245937 
" clip-path="url(#pe44391bd05)" style="fill: none; stroke: #1f77b4; stroke-width: 6"/>
   </g>
   <g id="LineCollection_56">
    <path d="M 86.136585 95.125938 
L 140.57561 95.125938 
" clip-path="url(#pe44391bd05)" style="fill: none; stroke: #1f77b4; stroke-width: 6"/>
   </g>
   <g id="LineCollection_57">
    <path d="M 65.721951 74.005937 
L 120.160976 74.005937 
" clip-path="url(#pe44391bd05)" style="fill: none; stroke: #1f77b4; stroke-width: 6"/>
   </g>
   <g id="LineCollection_58">
    <path d="M 346.082927 221.845937 
L 400.521951 221.845937 
" clip-path="url(#pe44391bd05)" style="fill: none; stroke: #1f77b4; stroke-width: 6"/>
   </g>
   <g id="LineCollection_59">
    <path d="M 385.55122 200.725937 
L 439.990244 200.725937 
" clip-path="url(#pe44391bd05)" style="fill: none; stroke: #1f77b4; stroke-width: 6"/>
   </g>
   <g id="LineCollection_60">
    <path d="M 469.931707 179.605937 
L 524.370732 179.605937 
" clip-path="url(#pe44391bd05)" style="fill: none; stroke: #1f77b4; stroke-width: 6"/>
   </g>
   <g id="LineCollection_61">
    <path d="M 156.907317 158.485938 
L 211.346341 158.485938 
" clip-path="url(#pe44391bd05)" style="fill: none; stroke: #1f77b4; stroke-width: 6"/>
   </g>
   <g id="LineCollection_62">
    <path d="M 71.165854 137.365938 
L 125.604878 137.365938 
" clip-path="url(#pe44391bd05)" style="fill: none; stroke: #1f77b4; stroke-width: 6"/>
   </g>
   <g id="LineCollection_63">
    <path d="M 56.195122 116.245937 
L 110.634146 116.245937 
" clip-path="url(#pe44391bd05)" style="fill: none; stroke: #1f77b4; stroke-width: 6"/>
   </g>
   <g id="LineCollection_64">
    <path d="M 363.77561 95.125938 
L 418.214634 95.125938 
" clip-path="url(#pe44391bd05)" style="fill: none; stroke: #1f77b4; stroke-width: 6"/>
   </g>
   <g id="LineCollection_65">
    <path d="M 450.878049 74.005937 
L 505.317073 74.005937 
" clip-path="url(#pe44391bd05)" style="fill: none; stroke: #1f77b4; stroke-width: 6"/>
   </g>
   <g id="LineCollection_66">
    <path d="M 91.580488 221.845937 
L 146.019512 221.845937 
" clip-path="url(#pe44391bd05)" style="fill: none; stroke: #1f77b4; stroke-width: 6"/>
   </g>
   <g id="LineCollection_67">
    <path d="M 410.04878 200.725937 
L 464.487805 200.725937 
" clip-path="url(#pe44391bd05)" style="fill: none; stroke: #1f77b4; stroke-width: 6"/>
   </g>
   <g id="LineCollection_68">
    <path d="M 501.234146 179.605937 
L 555.673171 179.605937 
" clip-path="url(#pe44391bd05)" style="fill: none; stroke: #1f77b4; stroke-width: 6"/>
   </g>
   <g id="LineCollection_69">
    <path d="M 175.960976 158.485938 
L 230.4 158.485938 
" clip-path="url(#pe44391bd05)" style="fill: none; stroke: #1f77b4; stroke-width: 6"/>
   </g>
   <g id="LineCollection_70">
    <path d="M 377.385366 137.365938 
L 431.82439 137.365938 
" clip-path="url(#pe44391bd05)" style="fill: none; stroke: #1f77b4; stroke-width: 6"/>
   </g>
   <g id="LineCollection_71">
    <path d="M 125.604878 116.245937 
L 180.043902 116.245937 
" clip-path="url(#pe44391bd05)" style="fill: none; stroke: #1f77b4; stroke-width: 6"/>
   </g>
   <g id="LineCollection_72">
    <path d="M 137.853659 95.125938 
L 192.292683 95.125938 
" clip-path="url(#pe44391bd05)" style="fill: none; stroke: #1f77b4; stroke-width: 6"/>
   </g>
   <g id="LineCollection_73">
    <path d="M 148.741463 74.005937 
L 203.180488 74.005937 
" clip-path="url(#pe44391bd05)" style="fill: none; stroke: #1f77b4; stroke-width: 6"/>
   </g>
   <g id="LineCollection_74">
    <path d="M 86.136585 221.845937 
L 140.57561 221.845937 
" clip-path="url(#pe44391bd05)" style="fill: none; stroke: #1f77b4; stroke-width: 6"/>
   </g>
   <g id="LineCollection_75">
    <path d="M 178.682927 200.725937 
L 233.121951 200.725937 
" clip-path="url(#pe44391bd05)" style="fill: none; stroke: #1f77b4; stroke-width: 6"/>
   </g>
   <g id="LineCollection_76">
    <path d="M 128.326829 179.605937 
L 182.765854 179.605937 
" clip-path="url(#pe44391bd05)" style="fill: none; stroke: #1f77b4; stroke-width: 6"/>
   </g>
   <g id="LineCollection_77">
    <path d="M 290.282927 158.485938 
L 344.721951 158.485938 
" clip-path="url(#pe44391bd05)" style="fill: none; stroke: #1f77b4; stroke-width: 6"/>
   </g>
   <g id="LineCollection_78">
    <path d="M 454.960976 137.365938 
L 509.4 137.365938 
" clip-path="url(#pe44391bd05)" style="fill: none; stroke: #1f77b4; stroke-width: 6"/>
   </g>
   <g id="LineCollection_79">
    <path d="M 370.580488 116.245937 
L 425.019512 116.245937 
" clip-path="url(#pe44391bd05)" style="fill: none; stroke: #1f77b4; stroke-width: 6"/>
   </g>
   <g id="LineCollection_80">
    <path d="M 77.970732 95.125938 
L 132.409756 95.125938 
" clip-path="url(#pe44391bd05)" style="fill: none; stroke: #1f77b4; stroke-width: 6"/>
   </g>
   <g id="LineCollection_81">
    <path d="M 186.84878 74.005937 
L 241.287805 74.005937 
" clip-path="url(#pe44391bd05)" style="fill: none; stroke: #1f77b4; stroke-width: 6"/>
   </g>
   <g id="text_1">
    <!-- 参照ゲノム領域 (例) -->
    <g transform="translate(16.726829 54.293937) scale(0.1 -0.1)">
     <defs>
      <path id="IPAexGothic-53c2" d="M 2600 3738 
Q 2488 3734 2131 3713 
Q 1556 3684 941 3675 
L 744 4109 
Q 1147 4116 1556 4116 
L 1759 4122 
Q 2269 4691 2663 5331 
L 3150 5166 
Q 2781 4672 2284 4134 
L 2547 4141 
Q 3547 4163 4250 4206 
L 4409 4213 
Q 4028 4509 3713 4731 
L 4091 4922 
Q 4781 4491 5509 3847 
L 5106 3591 
Q 4931 3769 4788 3894 
Q 4769 3888 4722 3888 
Q 4003 3803 3072 3759 
Q 2969 3506 2834 3278 
L 6016 3278 
L 6016 2894 
L 4313 2894 
Q 5019 2178 6150 1759 
L 5869 1363 
Q 4531 1916 3803 2894 
L 2591 2894 
Q 1850 1863 531 1203 
L 263 1563 
Q 1450 2109 2081 2894 
L 384 2894 
L 384 3278 
L 2350 3278 
Q 2503 3528 2600 3738 
z
M 1247 1441 
Q 2497 1794 3250 2606 
L 3641 2388 
Q 2816 1484 1509 1088 
L 1247 1441 
z
M 1300 744 
Q 2969 981 3994 2053 
L 4378 1831 
Q 3294 650 1544 353 
L 1300 744 
z
M 1281 -56 
Q 3681 209 4788 1497 
L 5209 1247 
Q 3934 -103 1550 -469 
L 1281 -56 
z
" transform="scale(0.015625)"/>
      <path id="IPAexGothic-7167" d="M 4219 4666 
Q 4056 3503 2991 3109 
L 2663 3422 
Q 3594 3731 3778 4666 
L 2803 4666 
L 2803 5044 
L 5806 5044 
Q 5766 4041 5684 3672 
Q 5597 3275 5050 3275 
Q 4672 3275 4291 3334 
L 4225 3750 
Q 4753 3666 5000 3666 
Q 5203 3666 5250 3825 
Q 5313 4034 5350 4666 
L 4219 4666 
z
M 2453 5031 
L 2453 1375 
L 706 1375 
L 706 5031 
L 2453 5031 
z
M 1122 4659 
L 1122 3425 
L 2038 3425 
L 2038 4659 
L 1122 4659 
z
M 1122 3053 
L 1122 1753 
L 2038 1753 
L 2038 3053 
L 1122 3053 
z
M 5697 3003 
L 5697 1344 
L 3078 1344 
L 3078 3003 
L 5697 3003 
z
M 3494 2631 
L 3494 1716 
L 5281 1716 
L 5281 2631 
L 3494 2631 
z
M 353 -191 
Q 853 356 1141 1081 
L 1563 909 
Q 1244 72 763 -506 
L 353 -191 
z
M 2375 -441 
Q 2300 297 2125 884 
L 2556 984 
Q 2763 391 2875 -325 
L 2375 -441 
z
M 3834 -341 
Q 3644 400 3356 947 
L 3791 1088 
Q 4034 647 4322 -153 
L 3834 -341 
z
M 5594 -366 
Q 5075 500 4647 984 
L 5038 1197 
Q 5650 547 6038 -78 
L 5594 -366 
z
" transform="scale(0.015625)"/>
      <path id="IPAexGothic-30b2" d="M 5653 3269 
L 4194 3269 
Q 4156 1966 3753 1228 
Q 3256 316 2166 -266 
L 1781 131 
Q 2947 672 3369 1638 
Q 3634 2256 3663 3269 
L 2113 3269 
Q 1709 2450 988 1778 
L 609 2122 
Q 1797 3197 2153 4959 
L 2644 4850 
Q 2519 4275 2319 3738 
L 5653 3738 
L 5653 3269 
z
M 5838 4366 
Q 5478 4906 5084 5234 
L 5384 5466 
Q 5769 5156 6159 4641 
L 5838 4366 
z
M 5191 3950 
Q 4903 4438 4456 4838 
L 4769 5081 
Q 5141 4775 5525 4225 
L 5191 3950 
z
" transform="scale(0.015625)"/>
      <path id="IPAexGothic-30ce" d="M 1159 500 
Q 3694 1525 4269 4591 
L 4828 4438 
Q 4106 1244 1550 78 
L 1159 500 
z
" transform="scale(0.015625)"/>
      <path id="IPAexGothic-30e0" d="M 609 891 
L 719 897 
L 884 903 
Q 1053 916 1263 925 
Q 1413 931 1447 934 
Q 2291 2888 2856 4706 
L 3394 4525 
Q 2841 2859 2019 981 
Q 3553 1109 4659 1275 
Q 4200 1950 3669 2588 
L 4122 2838 
Q 5075 1700 5788 513 
L 5319 194 
Q 5038 691 4922 866 
Q 2919 509 822 328 
L 609 891 
z
" transform="scale(0.015625)"/>
      <path id="IPAexGothic-9818" d="M 991 3431 
L 2541 3431 
L 2541 3041 
L 903 3041 
L 903 3322 
Q 681 3066 384 2784 
L 134 3150 
Q 1041 3941 1528 5294 
L 1959 5147 
Q 1919 5056 1869 4944 
Q 1831 4866 1825 4847 
Q 2344 4428 3028 3663 
L 2731 3291 
Q 2297 3884 1684 4428 
L 1644 4469 
Q 1347 3891 991 3431 
z
M 4531 4025 
L 5697 4025 
L 5697 794 
L 3278 794 
L 3278 4025 
L 4134 4025 
Q 4197 4222 4256 4581 
L 4269 4659 
L 2925 4659 
L 2925 5056 
L 6009 5056 
L 6009 4659 
L 4719 4659 
Q 4631 4325 4531 4025 
z
M 5288 3653 
L 3688 3653 
L 3688 3078 
L 5288 3078 
L 5288 3653 
z
M 3688 2713 
L 3688 2138 
L 5288 2138 
L 5288 2713 
L 3688 2713 
z
M 3688 1778 
L 3688 1166 
L 5288 1166 
L 5288 1778 
L 3688 1778 
z
M 2809 2463 
L 2809 747 
Q 2809 469 2694 381 
Q 2606 325 2394 325 
Q 2200 325 1925 375 
L 1875 791 
Q 2106 734 2247 734 
Q 2413 734 2413 913 
L 2413 2072 
L 1638 2072 
L 1638 -291 
L 1228 -291 
L 1228 2072 
L 422 2072 
L 422 2463 
L 2809 2463 
z
M 2719 -166 
Q 3469 213 3897 756 
L 4281 513 
Q 3741 -116 3066 -506 
L 2719 -166 
z
M 5747 -422 
Q 5213 159 4666 525 
L 5019 769 
Q 5547 444 6125 -116 
L 5747 -422 
z
" transform="scale(0.015625)"/>
      <path id="IPAexGothic-57df" d="M 4831 1731 
Q 5159 2334 5394 3259 
L 5809 3081 
Q 5453 1922 4984 1166 
Q 5281 341 5444 341 
Q 5538 341 5700 1275 
L 6103 969 
Q 5834 -356 5541 -356 
Q 5391 -356 5191 -106 
Q 4888 256 4691 731 
Q 4191 81 3409 -466 
L 3103 -113 
Q 3981 447 4525 1219 
Q 4303 2050 4197 3663 
L 2163 3663 
L 2163 3247 
L 1509 3247 
L 1509 1256 
Q 1941 1416 2169 1506 
L 2219 1134 
Q 1375 725 422 413 
L 263 872 
Q 738 994 1075 1109 
L 1075 3247 
L 359 3247 
L 359 3669 
L 1075 3669 
L 1075 5147 
L 1509 5147 
L 1509 3669 
L 2047 3669 
L 2047 4072 
L 4178 4072 
L 4166 4475 
Q 4144 5166 4141 5313 
L 4575 5313 
Q 4584 4528 4613 4097 
L 6022 4097 
L 6022 3688 
L 4631 3688 
L 4638 3656 
Q 4716 2375 4831 1731 
z
M 3938 3163 
L 3938 1613 
L 2375 1613 
L 2375 3163 
L 3938 3163 
z
M 2772 2791 
L 2772 1984 
L 3541 1984 
L 3541 2791 
L 2772 2791 
z
M 2009 813 
Q 3047 1000 4116 1356 
L 4128 972 
Q 3325 656 2169 372 
L 2009 813 
z
M 5428 4281 
Q 5156 4731 4897 5013 
L 5281 5203 
Q 5538 4928 5813 4513 
L 5428 4281 
z
" transform="scale(0.015625)"/>
      <path id="IPAexGothic-20" transform="scale(0.015625)"/>
      <path id="IPAexGothic-28" d="M 1928 -1016 
L 1653 -1166 
Q 488 69 488 1875 
Q 488 3678 1653 4909 
L 1928 4763 
Q 1006 3522 1006 1881 
Q 1006 203 1928 -1016 
z
" transform="scale(0.015625)"/>
      <path id="IPAexGothic-4f8b" d="M 2869 3713 
L 3750 3713 
L 4006 3522 
Q 3872 2134 3463 1241 
Q 3019 247 2094 -472 
L 1778 -128 
Q 2691 516 3163 1600 
Q 2791 1994 2388 2284 
Q 2163 1853 1928 1544 
L 1638 1888 
Q 2331 2806 2572 4488 
L 1906 4488 
L 1906 4891 
L 4206 4891 
L 4206 4488 
L 2997 4488 
L 2991 4450 
Q 2938 4013 2869 3713 
z
M 2772 3322 
Q 2659 2916 2534 2613 
Q 2997 2319 3316 2009 
Q 3338 2078 3341 2094 
Q 3519 2644 3566 3322 
L 2772 3322 
z
M 1400 3816 
L 1400 -447 
L 972 -447 
L 972 2797 
Q 753 2347 484 1966 
L 250 2363 
Q 981 3531 1388 5313 
L 1822 5203 
Q 1613 4419 1400 3816 
z
M 4378 4519 
L 4806 4519 
L 4806 959 
L 4378 959 
L 4378 4519 
z
M 5422 5088 
L 5850 5088 
L 5850 109 
Q 5850 -391 5300 -391 
Q 4925 -391 4544 -359 
L 4444 109 
Q 4863 44 5225 44 
Q 5422 44 5422 238 
L 5422 5088 
z
" transform="scale(0.015625)"/>
      <path id="IPAexGothic-29" d="M 466 4909 
Q 1638 3672 1638 1875 
Q 1638 75 466 -1166 
L 191 -1016 
Q 1119 216 1119 1881 
Q 1119 3509 191 4763 
L 466 4909 
z
" transform="scale(0.015625)"/>
     </defs>
     <use xlink:href="#IPAexGothic-53c2"/>
     <use xlink:href="#IPAexGothic-7167" transform="translate(100 0)"/>
     <use xlink:href="#IPAexGothic-30b2" transform="translate(200 0)"/>
     <use xlink:href="#IPAexGothic-30ce" transform="translate(300 0)"/>
     <use xlink:href="#IPAexGothic-30e0" transform="translate(400 0)"/>
     <use xlink:href="#IPAexGothic-9818" transform="translate(500 0)"/>
     <use xlink:href="#IPAexGothic-57df" transform="translate(600 0)"/>
     <use xlink:href="#IPAexGothic-20" transform="translate(700 0)"/>
     <use xlink:href="#IPAexGothic-28" transform="translate(727.001953 0)"/>
     <use xlink:href="#IPAexGothic-4f8b" transform="translate(760.302734 0)"/>
     <use xlink:href="#IPAexGothic-29" transform="translate(860.302734 0)"/>
    </g>
   </g>
   <g id="text_2">
    <!-- NGS: 多数の短いリード（short reads）が全ゲノムを覆う -->
    <g transform="translate(143.630547 234.165937) scale(0.11 -0.11)">
     <defs>
      <path id="IPAexGothic-4e" d="M 4244 63 
L 3731 63 
L 1697 3150 
Q 1466 3500 1141 4097 
L 1116 4097 
L 1128 3797 
Q 1159 2803 1159 2469 
L 1159 63 
L 609 63 
L 609 4634 
L 1366 4634 
L 3113 1978 
Q 3453 1447 3713 966 
L 3738 966 
Q 3694 1897 3694 2469 
L 3694 4634 
L 4244 4634 
L 4244 63 
z
" transform="scale(0.015625)"/>
      <path id="IPAexGothic-47" d="M 4403 781 
Q 4172 494 3731 250 
Q 3209 -31 2591 -31 
Q 1606 -31 988 628 
Q 378 1275 378 2325 
Q 378 3406 1013 4078 
Q 1619 4725 2534 4725 
Q 3800 4725 4325 3628 
L 3816 3391 
Q 3422 4238 2541 4238 
Q 1891 4238 1453 3744 
Q 994 3216 994 2328 
Q 994 1531 1397 1022 
Q 1844 459 2625 459 
Q 3459 459 3878 966 
L 3878 1856 
L 2859 1856 
L 2859 2291 
L 4403 2291 
L 4403 781 
z
" transform="scale(0.015625)"/>
      <path id="IPAexGothic-53" d="M 2919 3641 
Q 2563 4259 1853 4259 
Q 1453 4259 1213 4009 
Q 1028 3803 1028 3534 
Q 1028 3238 1266 3047 
Q 1444 2913 1984 2688 
L 2200 2597 
Q 2925 2306 3191 1953 
Q 3422 1644 3422 1259 
Q 3422 644 2969 288 
Q 2559 -31 1931 -31 
Q 881 -31 313 766 
L 753 1100 
Q 1203 459 1938 459 
Q 2288 459 2534 625 
Q 2841 847 2841 1216 
Q 2841 1503 2616 1728 
Q 2375 1959 1728 2206 
L 1541 2278 
Q 453 2694 453 3481 
Q 453 4006 806 4347 
Q 1203 4725 1863 4725 
Q 2841 4725 3359 3956 
L 2919 3641 
z
" transform="scale(0.015625)"/>
      <path id="IPAexGothic-3a" d="M 1369 2559 
L 672 2559 
L 672 3250 
L 1369 3250 
L 1369 2559 
z
M 1369 63 
L 672 63 
L 672 753 
L 1369 753 
L 1369 63 
z
" transform="scale(0.015625)"/>
      <path id="IPAexGothic-591a" d="M 3719 794 
Q 3313 1209 2834 1550 
Q 2309 1216 1638 984 
L 1350 1350 
Q 2997 1878 3969 3134 
L 4397 3022 
Q 4206 2759 4116 2656 
L 5563 2656 
L 5803 2425 
Q 4853 913 3700 281 
Q 2784 -209 1331 -447 
L 1025 0 
Q 2738 163 3719 794 
z
M 4097 1063 
L 4128 1088 
Q 4831 1650 5150 2259 
L 3744 2259 
Q 3447 1981 3181 1784 
Q 3625 1481 4097 1063 
z
M 2681 3072 
Q 2297 3456 1881 3763 
Q 1547 3528 1044 3269 
L 747 3622 
Q 2097 4191 2872 5313 
L 3309 5153 
Q 3116 4903 3028 4800 
L 4588 4800 
L 4813 4581 
Q 3981 3331 2791 2650 
Q 1925 2153 728 1856 
L 422 2259 
Q 1844 2541 2681 3072 
z
M 3059 3341 
Q 3747 3850 4141 4409 
L 2669 4409 
Q 2425 4178 2206 4000 
Q 2641 3709 3059 3341 
z
" transform="scale(0.015625)"/>
      <path id="IPAexGothic-6570" d="M 2847 1553 
Q 2741 1006 2425 534 
Q 2625 441 3091 203 
L 2809 -188 
Q 2541 0 2144 209 
Q 1569 -291 703 -500 
L 422 -125 
Q 1263 19 1747 406 
Q 1222 650 734 816 
Q 975 1172 1147 1503 
L 1172 1553 
L 359 1553 
L 359 1925 
L 1344 1925 
Q 1406 2066 1569 2475 
L 1691 2450 
L 1691 3372 
Q 1250 2738 550 2303 
L 275 2663 
Q 1019 3013 1528 3641 
L 378 3641 
L 378 4006 
L 1691 4006 
L 1691 5313 
L 2113 5313 
L 2113 4006 
L 3297 4006 
L 3297 3641 
L 2113 3641 
L 2113 3513 
Q 2659 3291 3175 2963 
L 2956 2584 
Q 2553 2922 2113 3159 
L 2113 2372 
L 1966 2372 
Q 1928 2288 1872 2141 
Q 1806 1975 1784 1925 
L 3378 1925 
L 3378 1553 
L 2847 1553 
z
M 2419 1553 
L 1613 1553 
Q 1478 1269 1313 997 
Q 1559 909 2047 703 
Q 2313 1047 2419 1553 
z
M 4363 1163 
Q 3953 1781 3738 2638 
Q 3575 2281 3428 2016 
L 3103 2406 
Q 3675 3444 3916 5291 
L 4363 5200 
Q 4284 4666 4197 4197 
L 6009 4197 
L 6009 3775 
L 5503 3775 
Q 5397 2275 4869 1191 
Q 5419 503 6144 75 
L 5822 -378 
Q 5188 106 4631 788 
Q 4113 34 3341 -463 
L 3031 -78 
Q 3888 406 4363 1163 
z
M 4588 1594 
Q 4938 2388 5059 3775 
L 4100 3775 
Q 4041 3519 3972 3288 
Q 3981 3250 3991 3194 
Q 4175 2256 4588 1594 
z
M 1003 4116 
Q 878 4544 638 4934 
L 1053 5094 
Q 1247 4788 1438 4269 
L 1003 4116 
z
M 2316 4269 
Q 2550 4688 2688 5131 
L 3128 4997 
Q 2966 4588 2675 4128 
L 2316 4269 
z
" transform="scale(0.015625)"/>
      <path id="IPAexGothic-306e" d="M 3119 469 
Q 5275 766 5275 2425 
Q 5275 3453 4413 3925 
Q 4041 4116 3547 4159 
Q 3394 2525 2850 1400 
Q 2322 306 1722 306 
Q 1384 306 1084 666 
Q 609 1244 609 2003 
Q 609 3025 1397 3794 
Q 2184 4563 3431 4563 
Q 4306 4563 4928 4122 
Q 5813 3506 5813 2425 
Q 5813 438 3431 6 
L 3119 469 
z
M 3053 4147 
Q 2378 4044 1891 3641 
Q 1097 2981 1097 1991 
Q 1097 1366 1434 978 
Q 1581 813 1719 813 
Q 2022 813 2416 1625 
Q 2909 2638 3053 4147 
z
" transform="scale(0.015625)"/>
      <path id="IPAexGothic-77ed" d="M 1941 4025 
L 1941 2772 
L 2791 2772 
L 2791 2375 
L 1934 2375 
Q 1919 2059 1900 1894 
Q 2503 1381 2969 756 
L 2650 391 
Q 2294 931 1838 1428 
Q 1600 253 666 -488 
L 353 -128 
Q 1044 384 1325 1191 
Q 1469 1644 1500 2375 
L 366 2375 
L 366 2772 
L 1506 2772 
L 1506 4025 
L 1209 4025 
Q 1022 3459 744 2997 
L 403 3272 
Q 872 4081 1044 5300 
L 1472 5234 
Q 1409 4781 1319 4416 
L 2650 4416 
L 2650 4025 
L 1941 4025 
z
M 5581 3731 
L 5581 1875 
L 3028 1875 
L 3028 3731 
L 5581 3731 
z
M 3456 3334 
L 3456 2266 
L 5153 2266 
L 5153 3334 
L 3456 3334 
z
M 4434 159 
Q 4716 822 4947 1734 
L 5416 1581 
Q 5141 700 4869 159 
L 6081 159 
L 6081 -256 
L 2559 -256 
L 2559 159 
L 4434 159 
z
M 2759 4850 
L 5888 4850 
L 5888 4434 
L 2759 4434 
L 2759 4850 
z
M 3675 294 
Q 3494 950 3206 1538 
L 3616 1691 
Q 3881 1150 4097 469 
L 3675 294 
z
" transform="scale(0.015625)"/>
      <path id="IPAexGothic-3044" d="M 3369 1447 
Q 2906 122 2278 122 
Q 1966 122 1647 481 
Q 1209 966 1044 1966 
Q 891 2888 891 4313 
L 1422 4313 
Q 1413 2444 1666 1550 
Q 1913 678 2278 678 
Q 2619 678 2925 1791 
L 3369 1447 
z
M 5378 1294 
Q 4928 2797 4034 3809 
L 4488 4031 
Q 5375 3000 5881 1563 
L 5378 1294 
z
" transform="scale(0.015625)"/>
      <path id="IPAexGothic-30ea" d="M 1678 4788 
L 2222 4788 
L 2222 1900 
L 1678 1900 
L 1678 4788 
z
M 4084 4909 
L 4628 4909 
L 4628 2753 
Q 4628 1563 4150 794 
Q 3725 119 2772 -353 
L 2394 78 
Q 3334 494 3706 1094 
Q 4084 1703 4084 2725 
L 4084 4909 
z
" transform="scale(0.015625)"/>
      <path id="IPAexGothic-30fc" d="M 588 2688 
L 5809 2688 
L 5809 2175 
L 588 2175 
L 588 2688 
z
" transform="scale(0.015625)"/>
      <path id="IPAexGothic-30c9" d="M 2247 4959 
L 2766 4959 
L 2766 3169 
Q 4050 2581 5178 1850 
L 4841 1331 
Q 3781 2138 2766 2650 
L 2766 -225 
L 2247 -225 
L 2247 4959 
z
M 5263 3847 
Q 4900 4388 4506 4716 
L 4806 4947 
Q 5191 4638 5581 4122 
L 5263 3847 
z
M 4666 3378 
Q 4375 3869 3931 4269 
L 4244 4513 
Q 4616 4206 5000 3653 
L 4666 3378 
z
" transform="scale(0.015625)"/>
      <path id="IPAexGothic-ff08" d="M 5419 -434 
Q 4197 769 4197 2438 
Q 4197 4097 5419 5300 
L 5919 5300 
Q 4678 4078 4678 2425 
Q 4678 788 5919 -434 
L 5419 -434 
z
" transform="scale(0.015625)"/>
      <path id="IPAexGothic-73" d="M 2234 2547 
Q 1938 2931 1484 2931 
Q 891 2931 891 2475 
Q 891 2153 1531 1944 
L 1741 1875 
Q 2650 1578 2650 894 
Q 2650 434 2272 172 
Q 1972 -31 1497 -31 
Q 766 -31 256 503 
L 603 819 
Q 997 397 1516 397 
Q 2131 397 2131 875 
Q 2131 1238 1453 1478 
L 1234 1553 
Q 378 1853 378 2431 
Q 378 2797 628 3047 
Q 928 3347 1453 3347 
Q 2156 3347 2606 2859 
L 2234 2547 
z
" transform="scale(0.015625)"/>
      <path id="IPAexGothic-68" d="M 3347 63 
L 2797 63 
L 2797 2041 
Q 2797 2853 2131 2853 
Q 1447 2853 1131 2041 
L 1131 63 
L 581 63 
L 581 4794 
L 1131 4794 
L 1131 2706 
Q 1566 3316 2247 3316 
Q 3347 3316 3347 2072 
L 3347 63 
z
" transform="scale(0.015625)"/>
      <path id="IPAexGothic-6f" d="M 1919 3341 
Q 2594 3341 3056 2888 
Q 3531 2413 3531 1638 
Q 3531 888 3066 422 
Q 2609 -31 1919 -31 
Q 1228 -31 781 416 
Q 313 881 313 1656 
Q 313 2413 788 2888 
Q 1241 3341 1919 3341 
z
M 1919 2919 
Q 1519 2919 1241 2631 
Q 888 2278 888 1650 
Q 888 1031 1234 684 
Q 1516 403 1919 403 
Q 2331 403 2609 691 
Q 2956 1038 2956 1672 
Q 2956 2269 2603 2631 
Q 2316 2919 1919 2919 
z
" transform="scale(0.015625)"/>
      <path id="IPAexGothic-72" d="M 2309 3316 
L 2213 2769 
Q 2106 2791 2022 2791 
Q 1653 2791 1413 2444 
Q 1113 2006 1113 1675 
L 1113 63 
L 563 63 
L 563 3250 
L 1081 3250 
L 1056 2303 
L 1069 2303 
Q 1422 3341 2097 3341 
Q 2206 3341 2309 3316 
z
" transform="scale(0.015625)"/>
      <path id="IPAexGothic-74" d="M 2125 241 
Q 1769 -6 1397 -6 
Q 653 -6 653 831 
L 653 2859 
L 219 2859 
L 219 3250 
L 653 3250 
L 653 3966 
L 1178 4228 
L 1178 3250 
L 2063 3250 
L 2063 2859 
L 1178 2859 
L 1178 906 
Q 1178 416 1513 416 
Q 1738 416 1941 588 
L 2125 241 
z
" transform="scale(0.015625)"/>
      <path id="IPAexGothic-65" d="M 863 1594 
Q 891 1041 1209 722 
Q 1534 397 1997 397 
Q 2606 397 2963 966 
L 3322 728 
Q 2869 -31 1931 -31 
Q 1222 -31 766 422 
Q 306 884 306 1641 
Q 306 2444 788 2925 
Q 1216 3353 1856 3353 
Q 2459 3353 2866 2956 
Q 3322 2494 3322 1722 
L 3322 1594 
L 863 1594 
z
M 2756 1997 
Q 2709 2431 2450 2681 
Q 2194 2938 1844 2938 
Q 1438 2938 1150 2591 
Q 953 2356 894 1997 
L 2756 1997 
z
" transform="scale(0.015625)"/>
      <path id="IPAexGothic-61" d="M 3156 63 
L 2672 63 
Q 2559 303 2531 556 
L 2509 556 
Q 2147 -25 1428 -25 
Q 934 -25 622 288 
Q 347 563 347 959 
Q 347 1947 2050 1997 
L 2478 2009 
L 2478 2175 
Q 2478 2509 2288 2700 
Q 2088 2900 1775 2900 
Q 1238 2900 969 2378 
L 494 2597 
Q 938 3328 1788 3328 
Q 2375 3328 2691 3000 
Q 2984 2706 2984 2169 
L 2984 997 
Q 2984 400 3156 63 
z
M 2491 1625 
L 2141 1619 
Q 903 1591 903 953 
Q 903 728 1050 581 
Q 1231 403 1525 403 
Q 1934 403 2234 703 
Q 2491 969 2491 1344 
L 2491 1625 
z
" transform="scale(0.015625)"/>
      <path id="IPAexGothic-64" d="M 3391 63 
L 2891 63 
L 2891 619 
Q 2441 -31 1753 -31 
Q 1181 -31 788 372 
Q 313 844 313 1663 
Q 313 2466 772 2938 
Q 1169 3341 1753 3341 
Q 2384 3341 2847 2809 
L 2847 4794 
L 3391 4794 
L 3391 63 
z
M 2847 1303 
L 2847 2097 
Q 2847 2413 2456 2706 
Q 2181 2906 1853 2906 
Q 1484 2906 1228 2650 
Q 888 2309 888 1678 
Q 888 1109 1169 750 
Q 1441 409 1847 409 
Q 2322 409 2656 875 
Q 2847 1134 2847 1303 
z
" transform="scale(0.015625)"/>
      <path id="IPAexGothic-ff09" d="M 481 -434 
Q 1722 788 1722 2431 
Q 1722 4066 481 5300 
L 981 5300 
Q 2203 4097 2203 2431 
Q 2203 769 981 -434 
L 481 -434 
z
" transform="scale(0.015625)"/>
      <path id="IPAexGothic-304c" d="M 659 3384 
Q 1434 3503 2113 3581 
Q 2313 4341 2394 4972 
L 2900 4875 
Q 2759 4147 2619 3628 
L 2719 3634 
Q 2894 3641 3041 3641 
Q 4072 3641 4072 2369 
Q 4072 1128 3700 384 
Q 3478 -56 3003 -56 
Q 2591 -56 2113 231 
L 2138 775 
Q 2631 444 2925 444 
Q 3169 444 3297 706 
Q 3566 1294 3566 2388 
Q 3566 3219 3016 3219 
Q 2825 3219 2497 3194 
Q 2388 2763 2113 2047 
Q 1634 797 1119 -38 
L 678 244 
Q 1356 1238 1863 2750 
Q 1888 2819 1991 3128 
Q 1594 3081 769 2916 
L 659 3384 
z
M 5441 1838 
Q 4913 3038 4091 3916 
L 4475 4184 
Q 5350 3269 5888 2156 
L 5441 1838 
z
M 5913 4275 
Q 5553 4819 5159 5147 
L 5459 5375 
Q 5844 5066 6234 4550 
L 5913 4275 
z
M 5344 3788 
Q 5053 4278 4609 4678 
L 4922 4922 
Q 5294 4613 5678 4063 
L 5344 3788 
z
" transform="scale(0.015625)"/>
      <path id="IPAexGothic-5168" d="M 3416 2778 
L 3416 1747 
L 5284 1747 
L 5284 1338 
L 3416 1338 
L 3416 184 
L 5859 184 
L 5859 -231 
L 547 -231 
L 547 184 
L 2941 184 
L 2941 1338 
L 1116 1338 
L 1116 1747 
L 2941 1747 
L 2941 2778 
L 1666 2778 
L 1666 3091 
Q 1188 2744 597 2472 
L 316 2847 
Q 2006 3569 2888 5197 
L 3441 5197 
Q 4491 3763 6116 3041 
L 5816 2619 
Q 4231 3413 3172 4775 
Q 2603 3834 1788 3181 
L 4803 3181 
L 4803 2778 
L 3416 2778 
z
" transform="scale(0.015625)"/>
      <path id="IPAexGothic-3092" d="M 1094 4263 
Q 1544 4222 2359 4222 
Q 2581 4734 2700 5163 
L 3175 5028 
Q 2997 4538 2859 4256 
Q 3516 4284 4294 4459 
L 4356 4019 
Q 3603 3869 2656 3819 
Q 2391 3284 2059 2797 
Q 2531 3200 2963 3200 
Q 3638 3200 3859 2378 
Q 4556 2681 5338 2950 
L 5575 2528 
Q 4641 2253 3941 1956 
Q 3981 1678 3994 1028 
L 3513 991 
Q 3513 1456 3494 1753 
Q 2388 1194 2388 716 
Q 2388 428 2753 328 
Q 3066 241 3806 241 
Q 4394 241 5178 344 
L 5216 -128 
Q 4434 -213 3653 -213 
Q 2656 -213 2244 41 
Q 1913 244 1913 631 
Q 1913 1094 2344 1497 
Q 2709 1841 3428 2181 
Q 3266 2797 2878 2797 
Q 2238 2797 1209 1419 
L 838 1694 
Q 1625 2716 2163 3800 
Q 1522 3800 1088 3825 
L 1094 4263 
z
" transform="scale(0.015625)"/>
      <path id="IPAexGothic-8986" d="M 2259 4475 
L 2259 4806 
L 447 4806 
L 447 5159 
L 5947 5159 
L 5947 4806 
L 4103 4806 
L 4103 4475 
L 5581 4475 
L 5581 3456 
L 813 3456 
L 813 4475 
L 2259 4475 
z
M 2675 4475 
L 3688 4475 
L 3688 4806 
L 2675 4806 
L 2675 4475 
z
M 2259 4150 
L 1253 4150 
L 1253 3781 
L 2259 3781 
L 2259 4150 
z
M 2675 4150 
L 2675 3781 
L 3688 3781 
L 3688 4150 
L 2675 4150 
z
M 4103 4150 
L 4103 3781 
L 5141 3781 
L 5141 4150 
L 4103 4150 
z
M 3284 1306 
L 2675 1306 
L 2675 2369 
Q 2469 2100 2266 1931 
L 2053 2216 
Q 1831 1884 1566 1600 
L 1566 -447 
L 1150 -447 
L 1150 1184 
Q 872 934 544 731 
L 306 1088 
Q 1175 1631 1766 2463 
L 2078 2266 
Q 2591 2709 2859 3450 
L 3231 3347 
Q 3203 3272 3128 3109 
L 5947 3109 
L 5947 2778 
L 2956 2778 
Q 2922 2728 2869 2647 
Q 2816 2563 2797 2534 
L 5459 2534 
L 5459 1306 
L 3744 1306 
Q 3644 1169 3553 1069 
L 5191 1069 
L 5441 872 
Q 5003 475 4488 181 
Q 5094 25 6144 -44 
L 5934 -434 
Q 4713 -328 3994 -50 
Q 3178 -381 2053 -497 
L 1847 -166 
Q 2906 -63 3541 147 
Q 3231 306 2944 544 
Q 2703 378 2341 206 
L 2097 494 
Q 2872 819 3284 1306 
z
M 3072 1581 
L 5069 1581 
L 5069 1791 
L 3072 1791 
L 3072 1581 
z
M 3072 2053 
L 5069 2053 
L 5069 2259 
L 3072 2259 
L 3072 2053 
z
M 4000 334 
Q 4356 494 4734 756 
L 3219 756 
Q 3531 506 4000 334 
z
M 325 2359 
Q 1147 2756 1631 3347 
L 1969 3128 
Q 1359 2422 563 2047 
L 325 2359 
z
" transform="scale(0.015625)"/>
      <path id="IPAexGothic-3046" d="M 3897 4025 
Q 3203 4456 2144 4728 
L 2381 5166 
Q 3353 4928 4166 4481 
L 3897 4025 
z
M 1172 3050 
Q 2872 3628 3566 3628 
Q 4269 3628 4603 3181 
Q 4847 2850 4847 2253 
Q 4847 372 2619 -275 
L 2278 159 
Q 3356 397 3881 994 
Q 4328 1503 4328 2228 
Q 4328 3181 3534 3181 
Q 2909 3181 1397 2553 
L 1172 3050 
z
" transform="scale(0.015625)"/>
     </defs>
     <use xlink:href="#IPAexGothic-4e"/>
     <use xlink:href="#IPAexGothic-47" transform="translate(75.976562 0)"/>
     <use xlink:href="#IPAexGothic-53" transform="translate(151.269531 0)"/>
     <use xlink:href="#IPAexGothic-3a" transform="translate(209.765625 0)"/>
     <use xlink:href="#IPAexGothic-20" transform="translate(241.748047 0)"/>
     <use xlink:href="#IPAexGothic-591a" transform="translate(268.75 0)"/>
     <use xlink:href="#IPAexGothic-6570" transform="translate(368.75 0)"/>
     <use xlink:href="#IPAexGothic-306e" transform="translate(468.75 0)"/>
     <use xlink:href="#IPAexGothic-77ed" transform="translate(568.75 0)"/>
     <use xlink:href="#IPAexGothic-3044" transform="translate(668.75 0)"/>
     <use xlink:href="#IPAexGothic-30ea" transform="translate(768.75 0)"/>
     <use xlink:href="#IPAexGothic-30fc" transform="translate(868.75 0)"/>
     <use xlink:href="#IPAexGothic-30c9" transform="translate(968.75 0)"/>
     <use xlink:href="#IPAexGothic-ff08" transform="translate(1068.75 0)"/>
     <use xlink:href="#IPAexGothic-73" transform="translate(1168.75 0)"/>
     <use xlink:href="#IPAexGothic-68" transform="translate(1214.941406 0)"/>
     <use xlink:href="#IPAexGothic-6f" transform="translate(1275.634766 0)"/>
     <use xlink:href="#IPAexGothic-72" transform="translate(1336.035156 0)"/>
     <use xlink:href="#IPAexGothic-74" transform="translate(1373.046875 0)"/>
     <use xlink:href="#IPAexGothic-20" transform="translate(1407.666016 0)"/>
     <use xlink:href="#IPAexGothic-72" transform="translate(1434.667969 0)"/>
     <use xlink:href="#IPAexGothic-65" transform="translate(1471.679688 0)"/>
     <use xlink:href="#IPAexGothic-61" transform="translate(1528.564453 0)"/>
     <use xlink:href="#IPAexGothic-64" transform="translate(1583.544922 0)"/>
     <use xlink:href="#IPAexGothic-73" transform="translate(1645.947266 0)"/>
     <use xlink:href="#IPAexGothic-ff09" transform="translate(1692.138672 0)"/>
     <use xlink:href="#IPAexGothic-304c" transform="translate(1792.138672 0)"/>
     <use xlink:href="#IPAexGothic-5168" transform="translate(1892.138672 0)"/>
     <use xlink:href="#IPAexGothic-30b2" transform="translate(1992.138672 0)"/>
     <use xlink:href="#IPAexGothic-30ce" transform="translate(2092.138672 0)"/>
     <use xlink:href="#IPAexGothic-30e0" transform="translate(2192.138672 0)"/>
     <use xlink:href="#IPAexGothic-3092" transform="translate(2292.138672 0)"/>
     <use xlink:href="#IPAexGothic-8986" transform="translate(2392.138672 0)"/>
     <use xlink:href="#IPAexGothic-3046" transform="translate(2492.138672 0)"/>
    </g>
   </g>
   <g id="text_3">
    <!-- 第二世代 — 次世代シーケンサー (NGS): 出力のイメージ -->
    <g transform="translate(110.334844 18.725937) scale(0.14 -0.14)">
     <defs>
      <path id="IPAexGothic-7b2c" d="M 2256 4416 
Q 2394 4172 2513 3841 
L 2084 3666 
Q 1953 4150 1822 4416 
L 1419 4416 
Q 1122 3888 784 3513 
L 459 3769 
Q 1066 4406 1381 5313 
L 1797 5203 
Q 1731 5044 1613 4788 
L 3178 4788 
L 3178 4416 
L 2256 4416 
z
M 3031 1153 
Q 2178 222 888 -288 
L 559 78 
Q 1819 509 2713 1363 
L 1381 1363 
Q 1294 1013 1272 941 
L 831 1038 
Q 1047 1803 1150 2688 
L 3031 2688 
L 3031 3231 
L 956 3231 
L 956 3603 
L 5444 3603 
L 5444 2072 
L 5009 2072 
L 5009 2328 
L 3478 2328 
L 3478 1734 
L 5834 1734 
Q 5794 675 5713 353 
Q 5606 -31 5119 -31 
Q 4684 -31 4247 19 
L 4156 472 
Q 4609 391 4963 391 
Q 5225 391 5284 594 
Q 5322 763 5359 1319 
L 5359 1363 
L 3478 1363 
L 3478 -447 
L 3031 -447 
L 3031 1153 
z
M 5009 2688 
L 5009 3231 
L 3478 3231 
L 3478 2688 
L 5009 2688 
z
M 1547 2328 
Q 1522 2066 1456 1734 
L 3031 1734 
L 3031 2328 
L 1547 2328 
z
M 3947 4788 
L 5863 4788 
L 5863 4416 
L 4672 4416 
Q 4813 4225 4991 3847 
L 4575 3672 
Q 4434 4094 4222 4416 
L 3775 4416 
Q 3553 3981 3281 3641 
L 2938 3884 
Q 3428 4472 3691 5319 
L 4106 5222 
Q 4028 4978 3947 4788 
z
" transform="scale(0.015625)"/>
      <path id="IPAexGothic-4e8c" d="M 994 4331 
L 5403 4331 
L 5403 3838 
L 994 3838 
L 994 4331 
z
M 513 859 
L 5881 859 
L 5881 359 
L 513 359 
L 513 859 
z
" transform="scale(0.015625)"/>
      <path id="IPAexGothic-4e16" d="M 1281 3513 
L 1281 4813 
L 1756 4813 
L 1756 3513 
L 2869 3513 
L 2869 5094 
L 3328 5094 
L 3328 3513 
L 4553 3513 
L 4553 5094 
L 5013 5094 
L 5013 3513 
L 6009 3513 
L 6009 3097 
L 5013 3097 
L 5013 1069 
L 4553 1069 
L 4553 1453 
L 3328 1453 
L 3328 1069 
L 2869 1069 
L 2869 3097 
L 1756 3097 
L 1756 459 
L 5759 459 
L 5759 31 
L 1756 31 
L 1756 -353 
L 1281 -353 
L 1281 3097 
L 384 3097 
L 384 3513 
L 1281 3513 
z
M 4553 3097 
L 3328 3097 
L 3328 1844 
L 4553 1844 
L 4553 3097 
z
" transform="scale(0.015625)"/>
      <path id="IPAexGothic-4ee3" d="M 1588 3688 
L 1588 -447 
L 1119 -447 
L 1119 2753 
Q 897 2356 531 1869 
L 269 2259 
Q 1188 3456 1594 5184 
L 2069 5069 
Q 1847 4291 1588 3688 
z
M 3278 2925 
L 1825 2809 
L 1797 3250 
L 3219 3366 
Q 3131 4088 3084 5153 
L 3572 5153 
Q 3622 4038 3700 3406 
L 5869 3578 
L 5900 3128 
L 3756 2963 
Q 3759 2956 3763 2938 
Q 3766 2916 3769 2906 
Q 3991 1406 4634 666 
Q 4991 250 5184 250 
Q 5391 250 5581 1313 
L 6009 972 
Q 5731 -359 5281 -359 
Q 5041 -359 4609 6 
Q 3591 850 3284 2869 
Q 3278 2888 3278 2925 
z
M 5013 3700 
Q 4706 4219 4269 4684 
L 4634 4972 
Q 5050 4556 5409 4038 
L 5013 3700 
z
" transform="scale(0.015625)"/>
      <path id="IPAexGothic-2014" d="M 366 2681 
L 5781 2681 
L 5781 2181 
L 366 2181 
L 366 2681 
z
" transform="scale(0.015625)"/>
      <path id="IPAexGothic-6b21" d="M 3519 3750 
L 2950 3750 
Q 2678 3041 2231 2444 
L 1853 2772 
Q 2600 3756 2878 5184 
L 3353 5094 
Q 3241 4603 3103 4166 
L 5541 4166 
L 5841 3928 
Q 5406 2903 4906 2222 
L 4484 2481 
Q 4963 3072 5247 3750 
L 3994 3750 
L 3994 3263 
Q 3994 1384 6028 91 
L 5681 -353 
Q 4166 622 3794 2194 
Q 3669 1413 3391 922 
Q 2903 72 1931 -488 
L 1613 -72 
Q 3519 888 3519 3359 
L 3519 3750 
z
M 1438 3200 
Q 959 3884 509 4294 
L 881 4628 
Q 1413 4153 1841 3597 
L 1438 3200 
z
M 325 250 
Q 984 938 1600 2003 
L 1950 1656 
Q 1319 538 697 -184 
L 325 250 
z
" transform="scale(0.015625)"/>
      <path id="IPAexGothic-30b7" d="M 2828 3531 
Q 2219 4056 1613 4359 
L 1913 4781 
Q 2503 4491 3169 3981 
L 2828 3531 
z
M 1163 500 
Q 3944 1094 5338 3525 
L 5688 3128 
Q 4297 700 1484 0 
L 1163 500 
z
M 2072 2278 
Q 1466 2800 831 3109 
L 1131 3541 
Q 1806 3213 2406 2725 
L 2072 2278 
z
" transform="scale(0.015625)"/>
      <path id="IPAexGothic-30b1" d="M 5638 3275 
L 4178 3275 
Q 4141 1972 3738 1234 
Q 3241 322 2150 -256 
L 1766 141 
Q 2931 678 3353 1644 
Q 3619 2263 3647 3275 
L 2097 3275 
Q 1694 2456 972 1784 
L 594 2128 
Q 1781 3203 2138 4966 
L 2628 4856 
Q 2503 4281 2303 3744 
L 5638 3744 
L 5638 3275 
z
" transform="scale(0.015625)"/>
      <path id="IPAexGothic-30f3" d="M 2444 3084 
Q 1816 3656 1056 4084 
L 1381 4519 
Q 2063 4191 2816 3559 
L 2444 3084 
z
M 1100 609 
Q 3984 1106 5216 3828 
L 5619 3469 
Q 4413 794 1434 103 
L 1100 609 
z
" transform="scale(0.015625)"/>
      <path id="IPAexGothic-30b5" d="M 3994 4919 
L 4506 4919 
L 4506 3531 
L 5888 3531 
L 5888 3072 
L 4506 3072 
Q 4488 1719 4153 1063 
Q 3728 222 2644 -325 
L 2266 38 
Q 3325 525 3713 1319 
Q 3975 1853 3994 3072 
L 2331 3072 
L 2331 1575 
L 1819 1575 
L 1819 3072 
L 513 3072 
L 513 3531 
L 1819 3531 
L 1819 4797 
L 2331 4797 
L 2331 3531 
L 3994 3531 
L 3994 4919 
z
" transform="scale(0.015625)"/>
      <path id="IPAexGothic-51fa" d="M 3419 2956 
L 4928 2956 
L 4928 4500 
L 5397 4500 
L 5397 2203 
L 4928 2203 
L 4928 2541 
L 3419 2541 
L 3419 384 
L 5194 384 
L 5194 1813 
L 5653 1813 
L 5653 -447 
L 5194 -447 
L 5194 -31 
L 1203 -31 
L 1203 -447 
L 744 -447 
L 744 1813 
L 1203 1813 
L 1203 384 
L 2938 384 
L 2938 2541 
L 1459 2541 
L 1459 2203 
L 1000 2203 
L 1000 4500 
L 1459 4500 
L 1459 2956 
L 2938 2956 
L 2938 5144 
L 3419 5144 
L 3419 2956 
z
" transform="scale(0.015625)"/>
      <path id="IPAexGothic-529b" d="M 3303 3944 
L 5653 3944 
Q 5622 1247 5428 356 
Q 5303 -231 4647 -231 
Q 4159 -231 3456 -147 
L 3381 416 
Q 4022 263 4456 263 
Q 4881 263 4947 616 
Q 5106 1509 5134 3303 
L 5141 3509 
L 3291 3509 
Q 3234 2200 2741 1281 
Q 2194 297 878 -416 
L 525 -6 
Q 2709 963 2778 3450 
L 641 3450 
L 641 3891 
L 2784 3891 
L 2784 5147 
L 3303 5147 
L 3303 3944 
z
" transform="scale(0.015625)"/>
      <path id="IPAexGothic-30a4" d="M 3131 -231 
L 3131 2875 
Q 2091 2088 1106 1656 
L 781 2059 
Q 3016 3000 4469 4916 
L 4916 4641 
Q 4384 3938 3675 3316 
L 3675 -231 
L 3131 -231 
z
" transform="scale(0.015625)"/>
      <path id="IPAexGothic-30e1" d="M 2041 3641 
Q 2678 3259 3359 2747 
Q 3906 3678 4281 4819 
L 4784 4609 
Q 4347 3384 3756 2425 
Q 4225 2031 4925 1369 
L 4544 972 
Q 4031 1519 3475 1997 
Q 2522 650 1259 -172 
L 863 206 
Q 2197 1006 3091 2328 
Q 2456 2844 1700 3263 
L 2041 3641 
z
" transform="scale(0.015625)"/>
      <path id="IPAexGothic-30b8" d="M 2759 3481 
Q 2150 4006 1544 4309 
L 1844 4731 
Q 2434 4441 3100 3931 
L 2759 3481 
z
M 1094 447 
Q 3875 1041 5269 3475 
L 5619 3078 
Q 4228 650 1416 -50 
L 1094 447 
z
M 2003 2228 
Q 1397 2747 763 3059 
L 1063 3488 
Q 1738 3159 2338 2675 
L 2003 2228 
z
M 5594 4219 
Q 5234 4759 4841 5088 
L 5141 5319 
Q 5525 5009 5916 4494 
L 5594 4219 
z
M 5000 3750 
Q 4709 4241 4263 4641 
L 4578 4884 
Q 4947 4575 5331 4025 
L 5000 3750 
z
" transform="scale(0.015625)"/>
     </defs>
     <use xlink:href="#IPAexGothic-7b2c"/>
     <use xlink:href="#IPAexGothic-4e8c" transform="translate(100 0)"/>
     <use xlink:href="#IPAexGothic-4e16" transform="translate(200 0)"/>
     <use xlink:href="#IPAexGothic-4ee3" transform="translate(300 0)"/>
     <use xlink:href="#IPAexGothic-20" transform="translate(400 0)"/>
     <use xlink:href="#IPAexGothic-2014" transform="translate(427.001953 0)"/>
     <use xlink:href="#IPAexGothic-20" transform="translate(522.998047 0)"/>
     <use xlink:href="#IPAexGothic-6b21" transform="translate(550 0)"/>
     <use xlink:href="#IPAexGothic-4e16" transform="translate(650 0)"/>
     <use xlink:href="#IPAexGothic-4ee3" transform="translate(750 0)"/>
     <use xlink:href="#IPAexGothic-30b7" transform="translate(850 0)"/>
     <use xlink:href="#IPAexGothic-30fc" transform="translate(950 0)"/>
     <use xlink:href="#IPAexGothic-30b1" transform="translate(1050 0)"/>
     <use xlink:href="#IPAexGothic-30f3" transform="translate(1150 0)"/>
     <use xlink:href="#IPAexGothic-30b5" transform="translate(1250 0)"/>
     <use xlink:href="#IPAexGothic-30fc" transform="translate(1350 0)"/>
     <use xlink:href="#IPAexGothic-20" transform="translate(1450 0)"/>
     <use xlink:href="#IPAexGothic-28" transform="translate(1477.001953 0)"/>
     <use xlink:href="#IPAexGothic-4e" transform="translate(1510.302734 0)"/>
     <use xlink:href="#IPAexGothic-47" transform="translate(1586.279297 0)"/>
     <use xlink:href="#IPAexGothic-53" transform="translate(1661.572266 0)"/>
     <use xlink:href="#IPAexGothic-29" transform="translate(1720.068359 0)"/>
     <use xlink:href="#IPAexGothic-3a" transform="translate(1753.369141 0)"/>
     <use xlink:href="#IPAexGothic-20" transform="translate(1785.351562 0)"/>
     <use xlink:href="#IPAexGothic-51fa" transform="translate(1812.353516 0)"/>
     <use xlink:href="#IPAexGothic-529b" transform="translate(1912.353516 0)"/>
     <use xlink:href="#IPAexGothic-306e" transform="translate(2012.353516 0)"/>
     <use xlink:href="#IPAexGothic-30a4" transform="translate(2112.353516 0)"/>
     <use xlink:href="#IPAexGothic-30e1" transform="translate(2212.353516 0)"/>
     <use xlink:href="#IPAexGothic-30fc" transform="translate(2312.353516 0)"/>
     <use xlink:href="#IPAexGothic-30b8" transform="translate(2412.353516 0)"/>
    </g>
   </g>
  </g>
 </g>
 <defs>
  <clipPath id="pe44391bd05">
   <rect x="7.2" y="24.725937" width="558" height="221.76"/>
  </clipPath>
 </defs>
</svg>
