<?xml version="1.0" encoding="utf-8" standalone="no"?>
<!DOCTYPE svg PUBLIC "-//W3C//DTD SVG 1.1//EN"
  "http://www.w3.org/Graphics/SVG/1.1/DTD/svg11.dtd">
<svg xmlns:xlink="http://www.w3.org/1999/xlink" width="572.4pt" height="198.396875pt" viewBox="0 0 572.4 198.396875" xmlns="http://www.w3.org/2000/svg" version="1.1">
 <metadata>
  <rdf:RDF xmlns:dc="http://purl.org/dc/elements/1.1/" xmlns:cc="http://creativecommons.org/ns#" xmlns:rdf="http://www.w3.org/1999/02/22-rdf-syntax-ns#">
   <cc:Work>
    <dc:type rdf:resource="http://purl.org/dc/dcmitype/StillImage"/>
    <dc:date>2025-08-19T00:28:42.586723</dc:date>
    <dc:format>image/svg+xml</dc:format>
    <dc:creator>
     <cc:Agent>
      <dc:title>Matplotlib v3.10.0, https://matplotlib.org/</dc:title>
     </cc:Agent>
    </dc:creator>
   </cc:Work>
  </rdf:RDF>
 </metadata>
 <defs>
  <style type="text/css">*{stroke-linejoin: round; stroke-linecap: butt}</style>
 </defs>
 <g id="figure_1">
  <g id="patch_1">
   <path d="M 0 198.396875 
L 572.4 198.396875 
L 572.4 0 
L 0 0 
z
" style="fill: #ffffff"/>
  </g>
  <g id="axes_1">
   <g id="LineCollection_1">
    <path d="M 14.004878 163.476875 
L 558.395122 163.476875 
" clip-path="url(#p23090b4371)" style="fill: none; stroke: #1f77b4; stroke-width: 2"/>
   </g>
   <g id="LineCollection_2">
    <path d="M 469.931707 135.756875 
L 558.395122 135.756875 
" clip-path="url(#p23090b4371)" style="fill: none; stroke: #1f77b4; stroke-width: 8"/>
   </g>
   <g id="LineCollection_3">
    <path d="M 209.985366 113.580875 
L 558.395122 113.580875 
" clip-path="url(#p23090b4371)" style="fill: none; stroke: #1f77b4; stroke-width: 8"/>
   </g>
   <g id="LineCollection_4">
    <path d="M 189.570732 91.404875 
L 558.395122 91.404875 
" clip-path="url(#p23090b4371)" style="fill: none; stroke: #1f77b4; stroke-width: 8"/>
   </g>
   <g id="LineCollection_5">
    <path d="M 110.634146 69.228875 
L 558.395122 69.228875 
" clip-path="url(#p23090b4371)" style="fill: none; stroke: #1f77b4; stroke-width: 8"/>
   </g>
   <g id="LineCollection_6">
    <path d="M 336.556098 47.052875 
L 558.395122 47.052875 
" clip-path="url(#p23090b4371)" style="fill: none; stroke: #1f77b4; stroke-width: 8"/>
   </g>
   <g id="text_1">
    <!-- 参照ゲノム領域 (例) -->
    <g transform="translate(16.726829 63.684875) scale(0.1 -0.1)">
     <defs>
      <path id="Meiryo-53c2" d="M 2328 3150 
Q 1522 2372 334 1875 
L 125 2191 
Q 975 2522 1722 3150 
L 303 3150 
L 303 3522 
L 2109 3522 
Q 2328 3763 2491 4038 
L 766 3972 
L 700 4363 
Q 916 4363 1466 4372 
Q 1997 4947 2228 5363 
L 2731 5250 
Q 2497 4906 1972 4381 
Q 3778 4422 4591 4481 
Q 4347 4706 4016 4997 
L 4369 5213 
Q 4541 5103 5603 4088 
L 5213 3872 
Q 5075 4022 4909 4181 
Q 4275 4128 3013 4063 
Q 2872 3781 2669 3522 
L 6125 3522 
L 6125 3150 
L 4319 3150 
Q 5197 2541 6244 2228 
L 5981 1850 
Q 5509 1994 4798 2397 
Q 4088 2800 3728 3150 
L 2328 3150 
z
M 688 1222 
L 531 1538 
Q 1078 1691 1834 2072 
Q 2591 2453 3109 2919 
L 3481 2672 
Q 3025 2259 2214 1840 
Q 1403 1422 688 1222 
z
M 850 413 
L 706 747 
Q 2750 1225 4141 2234 
L 4513 1941 
Q 3922 1503 2919 1072 
Q 1916 641 850 413 
z
M 994 -422 
L 856 -56 
Q 2106 125 3307 548 
Q 4509 972 5184 1478 
L 5575 1184 
Q 4850 653 3594 204 
Q 2338 -244 994 -422 
z
" transform="scale(0.015625)"/>
      <path id="Meiryo-7167" d="M 2613 3041 
L 2444 3372 
Q 3591 3769 3744 4738 
L 2678 4738 
L 2678 5103 
L 5934 5103 
Q 5934 4419 5892 4083 
Q 5850 3747 5740 3572 
Q 5631 3397 5482 3300 
Q 5334 3203 5167 3176 
Q 5000 3150 4519 3150 
L 4331 3150 
L 4272 3550 
L 4813 3550 
Q 5175 3550 5317 3773 
Q 5459 3997 5459 4738 
L 4219 4738 
Q 4125 4113 3748 3702 
Q 3372 3291 2613 3041 
z
M 941 1475 
L 941 1219 
L 491 1219 
L 491 5056 
L 2209 5056 
L 2209 1475 
L 941 1475 
z
M 1756 4706 
L 941 4706 
L 941 3509 
L 1756 3509 
L 1756 4706 
z
M 941 3166 
L 941 1841 
L 1756 1841 
L 1756 3166 
L 941 3166 
z
M 2703 1088 
L 2703 2806 
L 5753 2806 
L 5753 1088 
L 2703 1088 
z
M 3169 1453 
L 5284 1453 
L 5284 2453 
L 3169 2453 
L 3169 1453 
z
M 5584 -347 
Q 5209 338 4878 756 
L 5341 925 
Q 5653 519 6094 -153 
L 5584 -347 
z
M 688 -419 
L 269 -209 
Q 422 -47 639 283 
Q 856 613 963 834 
L 1406 678 
Q 1322 475 1069 92 
Q 816 -291 688 -419 
z
M 3841 -369 
Q 3672 56 3397 703 
L 3859 816 
Q 3966 603 4356 -256 
L 3841 -369 
z
M 2266 -394 
L 1928 684 
L 2391 781 
Q 2503 509 2769 -288 
L 2266 -394 
z
" transform="scale(0.015625)"/>
      <path id="Meiryo-30b2" d="M 4641 3384 
Q 4547 1763 3683 872 
Q 2819 -19 1106 -275 
L 947 159 
Q 2563 413 3286 1214 
Q 4009 2016 4075 3384 
L 1913 3384 
Q 1331 2534 366 1944 
L 91 2297 
Q 881 2816 1387 3553 
Q 1894 4291 2094 5119 
L 2656 5050 
Q 2519 4453 2191 3847 
L 6309 3847 
L 6309 3384 
L 4641 3384 
z
M 6144 4466 
L 5784 4319 
Q 5572 4816 5338 5184 
L 5663 5338 
Q 5916 4947 6144 4466 
z
M 5234 4275 
L 4878 4116 
Q 4663 4606 4422 4991 
L 4763 5144 
Q 5031 4728 5234 4275 
z
" transform="scale(0.015625)"/>
      <path id="Meiryo-30ce" d="M 5388 4825 
Q 5153 2669 3987 1401 
Q 2822 134 863 -219 
L 684 244 
Q 1991 491 2897 1141 
Q 3803 1791 4284 2812 
Q 4766 3834 4825 4856 
L 5388 4825 
z
" transform="scale(0.015625)"/>
      <path id="Meiryo-30e0" d="M 5341 334 
Q 3566 53 263 -103 
L 184 391 
Q 459 394 866 409 
Q 1294 1231 1851 2632 
Q 2409 4034 2669 4953 
L 3231 4850 
Q 2878 3791 2361 2506 
Q 1844 1222 1428 431 
Q 4150 581 5128 734 
Q 4600 1691 3841 2706 
L 4256 2938 
Q 5175 1850 6150 -47 
L 5600 -231 
Q 5478 63 5341 334 
z
" transform="scale(0.015625)"/>
      <path id="Meiryo-9818" d="M 3216 3841 
L 2934 3509 
Q 2231 4028 1731 4884 
Q 1438 4316 1089 3919 
Q 741 3522 278 3156 
L 41 3475 
Q 441 3784 819 4257 
Q 1197 4731 1394 5266 
L 2013 5266 
Q 2184 4850 2565 4436 
Q 2947 4022 3216 3841 
z
M 3397 794 
L 3397 4141 
L 4219 4141 
L 4381 4744 
L 3116 4744 
L 3116 5100 
L 6163 5100 
L 6163 4744 
L 4875 4744 
L 4650 4141 
L 5916 4141 
L 5916 794 
L 3397 794 
z
M 3872 3163 
L 5434 3163 
L 5434 3791 
L 3872 3791 
L 3872 3163 
z
M 3872 2184 
L 5434 2184 
L 5434 2822 
L 3872 2822 
L 3872 2184 
z
M 5434 1844 
L 3872 1844 
L 3872 1144 
L 5434 1144 
L 5434 1844 
z
M 766 3188 
L 766 3553 
L 2606 3553 
L 2606 3188 
L 766 3188 
z
M 1041 -388 
L 1041 2144 
L 356 2144 
L 356 2503 
L 2850 2503 
L 2850 656 
Q 2850 450 2709 314 
Q 2569 178 2359 178 
L 1891 178 
L 1838 578 
L 2156 578 
Q 2384 578 2384 788 
L 2384 2144 
L 1525 2144 
L 1525 -388 
L 1041 -388 
z
M 2925 -369 
L 2709 -56 
Q 3372 166 4003 688 
L 4303 363 
Q 3503 -219 2925 -369 
z
M 6091 -381 
Q 5866 -291 5480 -45 
Q 5094 200 4897 369 
L 5203 681 
Q 5713 250 6378 -31 
L 6091 -381 
z
" transform="scale(0.015625)"/>
      <path id="Meiryo-57df" d="M 5228 1106 
Q 5294 919 5444 626 
Q 5594 334 5651 271 
Q 5709 209 5763 209 
L 5772 209 
Q 5875 228 5909 538 
L 5909 534 
L 5947 881 
Q 5966 1069 5969 1222 
L 6347 1144 
L 6306 466 
Q 6284 97 6237 -65 
Q 6191 -228 6087 -303 
Q 5984 -378 5825 -378 
Q 5691 -378 5583 -312 
Q 5475 -247 5272 33 
Q 5069 313 4913 669 
Q 4422 50 3822 -384 
L 3528 -134 
Q 4206 403 4731 1147 
Q 4419 2131 4384 3894 
L 2194 3894 
L 2194 4303 
L 4378 4303 
L 4375 5350 
L 4872 5350 
L 4869 4513 
L 4869 4303 
L 6197 4303 
L 6197 3894 
L 4872 3894 
Q 4881 2603 5069 1694 
Q 5409 2322 5591 3025 
L 6041 2906 
Q 5978 2628 5747 2084 
Q 5516 1541 5228 1106 
z
M 119 603 
L 28 1022 
Q 419 1094 875 1203 
L 875 3559 
L 222 3559 
L 222 3938 
L 875 3938 
L 875 5291 
L 1366 5291 
L 1366 3938 
L 1941 3938 
L 1941 3559 
L 1366 3559 
L 1366 1331 
Q 1794 1450 2025 1528 
L 2056 1163 
Q 1363 884 119 603 
z
M 5650 4397 
Q 5516 4691 5250 5119 
L 5650 5278 
Q 5797 5047 6066 4572 
L 5650 4397 
z
M 2234 1484 
L 2234 3306 
L 3978 3306 
L 3978 1484 
L 2234 1484 
z
M 3522 2953 
L 2684 2953 
L 2684 1838 
L 3522 1838 
L 3522 2953 
z
M 1875 106 
L 1750 538 
Q 3453 894 4219 1144 
L 4303 784 
Q 3731 556 1875 106 
z
" transform="scale(0.015625)"/>
      <path id="Meiryo-20" transform="scale(0.015625)"/>
      <path id="Meiryo-28" d="M 2397 -1303 
L 1731 -1303 
Q 1094 -563 808 184 
Q 522 931 522 1809 
Q 522 3506 1731 4919 
L 2397 4919 
L 2397 4888 
Q 1775 4341 1401 3523 
Q 1028 2706 1028 1809 
Q 1028 909 1400 95 
Q 1772 -719 2397 -1272 
L 2397 -1303 
z
" transform="scale(0.015625)"/>
      <path id="Meiryo-4f8b" d="M 863 -388 
L 863 2656 
Q 625 2197 359 1838 
L 47 2053 
Q 538 2838 883 3781 
Q 1228 4725 1300 5284 
L 1772 5231 
Q 1716 4822 1606 4473 
Q 1497 4125 1153 3281 
L 1322 3281 
L 1322 -388 
L 863 -388 
z
M 5309 -303 
L 4681 -303 
L 4616 141 
L 5153 141 
Q 5413 141 5413 363 
L 5413 5244 
L 5903 5244 
L 5903 191 
Q 5903 -303 5309 -303 
z
M 2091 -363 
L 1816 -81 
Q 2625 528 3113 1641 
Q 2694 1981 2259 2288 
Q 2109 1981 1947 1741 
L 1600 1947 
Q 1897 2400 2125 3150 
Q 2353 3900 2425 4663 
L 1966 4663 
L 1966 5022 
L 4088 5022 
L 4088 4663 
L 2891 4663 
Q 2844 4244 2772 3847 
L 4003 3847 
Q 4003 2544 3522 1420 
Q 3041 297 2091 -363 
z
M 3275 2066 
Q 3506 2778 3506 3503 
L 2700 3503 
Q 2600 3084 2422 2650 
Q 3078 2225 3275 2066 
z
M 4403 1066 
L 4403 4722 
L 4866 4722 
L 4866 1066 
L 4403 1066 
z
" transform="scale(0.015625)"/>
      <path id="Meiryo-29" d="M 1081 -1303 
L 416 -1303 
L 416 -1272 
Q 1044 -713 1414 98 
Q 1784 909 1784 1809 
Q 1784 2706 1412 3520 
Q 1041 4334 416 4888 
L 416 4919 
L 1081 4919 
Q 2291 3506 2291 1809 
Q 2291 934 2008 190 
Q 1725 -553 1081 -1303 
z
" transform="scale(0.015625)"/>
     </defs>
     <use xlink:href="#Meiryo-53c2"/>
     <use xlink:href="#Meiryo-7167" transform="translate(100 0)"/>
     <use xlink:href="#Meiryo-30b2" transform="translate(200 0)"/>
     <use xlink:href="#Meiryo-30ce" transform="translate(300 0)"/>
     <use xlink:href="#Meiryo-30e0" transform="translate(400 0)"/>
     <use xlink:href="#Meiryo-9818" transform="translate(500 0)"/>
     <use xlink:href="#Meiryo-57df" transform="translate(600 0)"/>
     <use xlink:href="#Meiryo-20" transform="translate(700 0)"/>
     <use xlink:href="#Meiryo-28" transform="translate(733.984375 0)"/>
     <use xlink:href="#Meiryo-4f8b" transform="translate(777.929688 0)"/>
     <use xlink:href="#Meiryo-29" transform="translate(877.929688 0)"/>
    </g>
   </g>
   <g id="text_2">
    <!-- TGS: 非常に長いリード（long reads）でゲノムの大部分をカバー -->
    <g transform="translate(122.086016 177.336875) scale(0.11 -0.11)">
     <defs>
      <path id="Meiryo-54" d="M 1744 0 
L 1744 4203 
L 72 4203 
L 72 4709 
L 3997 4709 
L 3997 4203 
L 2325 4203 
L 2325 0 
L 1744 0 
z
" transform="scale(0.015625)"/>
      <path id="Meiryo-47" d="M 4319 350 
Q 3306 -91 2663 -91 
Q 1538 -91 914 546 
Q 291 1184 291 2359 
Q 291 3500 925 4147 
Q 1559 4794 2663 4794 
Q 3478 4794 4316 4366 
L 4316 3681 
L 4272 3681 
Q 3506 4303 2563 4303 
Q 1788 4303 1342 3784 
Q 897 3266 897 2378 
Q 897 1450 1361 926 
Q 1825 403 2634 403 
Q 3228 403 3744 628 
L 3744 1841 
L 2522 1841 
L 2522 2347 
L 4319 2347 
L 4319 350 
z
" transform="scale(0.015625)"/>
      <path id="Meiryo-53" d="M 2022 -84 
Q 1228 -84 356 309 
L 356 1019 
L 397 1019 
Q 1116 406 2028 406 
Q 2591 406 2911 636 
Q 3231 866 3231 1247 
Q 3231 1541 3095 1708 
Q 2959 1875 2622 1969 
L 1572 2181 
Q 988 2303 686 2623 
Q 384 2944 384 3456 
Q 384 4038 853 4416 
Q 1322 4794 2075 4794 
Q 2863 4794 3650 4447 
L 3650 3763 
L 3606 3763 
Q 2956 4303 2075 4303 
Q 1588 4303 1289 4087 
Q 991 3872 991 3522 
Q 991 2938 1672 2769 
Q 2066 2697 2548 2589 
Q 3031 2481 3239 2364 
Q 3447 2247 3576 2097 
Q 3706 1947 3770 1756 
Q 3834 1566 3834 1334 
Q 3834 722 3337 319 
Q 2841 -84 2022 -84 
z
" transform="scale(0.015625)"/>
      <path id="Meiryo-3a" d="M 1731 2678 
L 1022 2678 
L 1022 3531 
L 1731 3531 
L 1731 2678 
z
M 1731 0 
L 1022 0 
L 1022 853 
L 1731 853 
L 1731 0 
z
" transform="scale(0.015625)"/>
      <path id="Meiryo-975e" d="M 4200 1647 
L 6119 1647 
L 6119 1263 
L 4200 1263 
L 4200 -331 
L 3722 -331 
L 3722 5272 
L 4200 5272 
L 4200 4519 
L 6034 4519 
L 6034 4141 
L 4200 4141 
L 4200 3116 
L 5872 3116 
L 5872 2731 
L 4200 2731 
L 4200 1647 
z
M 303 1144 
L 203 1544 
Q 881 1641 2106 1856 
Q 2116 1975 2116 2191 
L 2116 2731 
L 453 2731 
L 453 3116 
L 2116 3116 
L 2116 4141 
L 434 4141 
L 434 4519 
L 2116 4519 
L 2116 5225 
L 2594 5225 
L 2594 2256 
Q 2594 2100 2584 1941 
Q 2844 1988 3084 2041 
L 3084 1681 
Q 2900 1631 2541 1556 
Q 2416 769 2014 317 
Q 1613 -134 928 -388 
L 719 -69 
Q 1128 94 1514 444 
Q 1900 794 2047 1456 
Q 1244 1303 303 1144 
z
" transform="scale(0.015625)"/>
      <path id="Meiryo-5e38" d="M 1344 4369 
L 1013 5081 
L 1469 5166 
L 1831 4369 
L 2919 4369 
L 2919 5303 
L 3422 5303 
L 3422 4369 
L 4544 4369 
L 4931 5166 
L 5406 5063 
L 5003 4369 
L 6066 4369 
L 6066 3325 
L 5628 3325 
L 5628 4009 
L 741 4009 
L 741 3325 
L 316 3325 
L 316 4369 
L 1344 4369 
z
M 5250 -94 
L 4494 -94 
L 4422 334 
L 5053 334 
Q 5303 334 5303 544 
L 5303 1328 
L 3384 1328 
L 3384 -409 
L 2888 -409 
L 2888 1328 
L 1091 1328 
L 1091 -103 
L 628 -103 
L 628 1694 
L 2888 1694 
L 2888 2209 
L 1275 2209 
L 1275 3566 
L 5059 3566 
L 5059 2209 
L 3384 2209 
L 3384 1694 
L 5784 1694 
L 5784 350 
Q 5784 159 5634 32 
Q 5484 -94 5250 -94 
z
M 4597 3234 
L 1713 3234 
L 1713 2534 
L 4597 2534 
L 4597 3234 
z
" transform="scale(0.015625)"/>
      <path id="Meiryo-306b" d="M 1550 -63 
L 1103 -166 
Q 781 863 781 2066 
Q 781 3378 1209 4897 
L 1691 4813 
Q 1259 3391 1259 2041 
Q 1259 931 1550 -63 
z
M 5781 4066 
Q 5284 4075 4844 4075 
Q 4197 4075 2503 3988 
Q 2503 4128 2484 4409 
Q 4094 4503 5100 4503 
Q 5600 4503 5766 4494 
L 5766 4466 
Q 5766 4322 5781 4066 
z
M 5819 91 
Q 5166 22 4541 22 
Q 3672 22 3242 123 
Q 2813 225 2591 459 
Q 2369 694 2369 1063 
Q 2369 1600 2838 2197 
L 3200 2003 
Q 2816 1581 2816 1091 
Q 2816 847 3023 697 
Q 3231 547 3579 498 
Q 3928 450 4569 450 
Q 5219 450 5819 525 
L 5819 91 
z
" transform="scale(0.015625)"/>
      <path id="Meiryo-9577" d="M 516 -381 
L 438 31 
L 1269 109 
L 1269 1903 
L 281 1903 
L 281 2275 
L 1269 2275 
L 1269 5078 
L 5634 5078 
L 5634 4725 
L 1731 4725 
L 1731 4125 
L 5406 4125 
L 5406 3784 
L 1731 3784 
L 1731 3216 
L 5381 3216 
L 5381 2872 
L 1731 2872 
L 1731 2275 
L 6072 2275 
L 6072 1903 
L 3484 1903 
Q 3769 1406 4200 1006 
Q 4959 1359 5466 1734 
L 5791 1428 
Q 5256 1072 4513 750 
Q 5094 325 6106 25 
L 5844 -369 
Q 4900 -138 4134 465 
Q 3369 1069 2984 1903 
L 1731 1903 
L 1731 156 
Q 3178 309 3631 391 
L 3638 6 
Q 3313 -53 2188 -193 
Q 1063 -334 516 -381 
z
" transform="scale(0.015625)"/>
      <path id="Meiryo-3044" d="M 3150 1650 
Q 3044 1353 2814 925 
Q 2584 497 2345 211 
Q 2106 -75 1850 -75 
Q 1694 -75 1572 0 
Q 1450 75 1253 290 
Q 1056 506 892 882 
Q 728 1259 650 1671 
Q 572 2084 572 2475 
Q 572 2825 644 3466 
Q 719 4138 725 4447 
L 1250 4447 
Q 1238 4166 1150 3466 
Q 1072 2841 1072 2478 
Q 1072 1934 1186 1501 
Q 1300 1069 1517 756 
Q 1734 444 1834 444 
Q 1997 444 2272 889 
Q 2547 1334 2766 1850 
L 3150 1650 
z
M 6009 731 
L 5484 716 
L 5484 772 
Q 5484 1697 5184 2572 
Q 4884 3447 4328 4134 
L 4713 4378 
Q 5988 2919 6009 731 
z
" transform="scale(0.015625)"/>
      <path id="Meiryo-30ea" d="M 5344 2509 
Q 5344 1775 4997 1176 
Q 4650 578 3848 197 
Q 3047 -184 1766 -269 
L 1644 184 
Q 3294 316 4047 912 
Q 4800 1509 4800 2631 
L 4800 5003 
L 5344 5003 
L 5344 2509 
z
M 1709 1741 
L 1166 1741 
L 1166 4897 
L 1709 4897 
L 1709 1741 
z
" transform="scale(0.015625)"/>
      <path id="Meiryo-30fc" d="M 5756 2069 
L 588 2069 
L 588 2531 
L 5756 2531 
L 5756 2069 
z
" transform="scale(0.015625)"/>
      <path id="Meiryo-30c9" d="M 5947 1944 
L 5619 1509 
Q 4969 1944 4066 2362 
Q 3163 2781 2456 2994 
L 2456 -322 
L 1900 -322 
L 1900 5150 
L 2463 5150 
L 2463 3475 
Q 4316 2919 5947 1944 
z
M 5656 4122 
L 5300 3975 
Q 5100 4447 4850 4838 
L 5178 4991 
Q 5425 4609 5656 4122 
z
M 4750 3928 
L 4391 3769 
Q 4163 4288 3938 4647 
L 4275 4800 
Q 4550 4375 4750 3928 
z
" transform="scale(0.015625)"/>
      <path id="Meiryo-ff08" d="M 6003 -453 
L 5388 -453 
Q 4300 853 4300 2459 
Q 4300 4053 5388 5369 
L 6003 5369 
L 6003 5338 
Q 5491 4863 5169 4178 
Q 4788 3366 4788 2459 
Q 4788 1547 5169 731 
Q 5491 47 6003 -428 
L 6003 -453 
z
" transform="scale(0.015625)"/>
      <path id="Meiryo-6c" d="M 1088 0 
L 538 0 
L 538 4919 
L 1088 4919 
L 1088 0 
z
" transform="scale(0.015625)"/>
      <path id="Meiryo-6f" d="M 1900 -97 
Q 1147 -97 709 401 
Q 272 900 272 1763 
Q 272 2625 712 3128 
Q 1153 3631 1900 3631 
Q 2647 3631 3087 3131 
Q 3528 2631 3528 1763 
Q 3528 894 3089 398 
Q 2650 -97 1900 -97 
z
M 1900 3163 
Q 1391 3163 1116 2803 
Q 841 2444 841 1763 
Q 841 1091 1116 731 
Q 1391 372 1900 372 
Q 2409 372 2684 731 
Q 2959 1091 2959 1763 
Q 2959 3163 1900 3163 
z
" transform="scale(0.015625)"/>
      <path id="Meiryo-6e" d="M 3450 0 
L 2900 0 
L 2900 1978 
Q 2900 2666 2719 2889 
Q 2538 3113 2122 3113 
Q 1631 3113 1081 2656 
L 1081 0 
L 531 0 
L 531 3531 
L 1081 3531 
L 1081 3106 
Q 1703 3631 2309 3631 
Q 2856 3631 3153 3289 
Q 3450 2947 3450 2300 
L 3450 0 
z
" transform="scale(0.015625)"/>
      <path id="Meiryo-67" d="M 3353 400 
Q 3353 -1338 1706 -1338 
Q 1166 -1338 631 -1191 
L 631 -622 
L 656 -622 
Q 1203 -847 1738 -847 
Q 2278 -847 2540 -605 
Q 2803 -363 2803 178 
L 2803 528 
Q 2238 53 1619 53 
Q 991 53 634 515 
Q 278 978 278 1797 
Q 278 2616 717 3123 
Q 1156 3631 1806 3631 
Q 2319 3631 2803 3353 
L 2844 3531 
L 3353 3531 
L 3353 400 
z
M 2803 972 
L 2803 2925 
Q 2338 3141 1934 3141 
Q 1419 3141 1133 2800 
Q 847 2459 847 1825 
Q 847 563 1784 563 
Q 2281 563 2803 972 
z
" transform="scale(0.015625)"/>
      <path id="Meiryo-72" d="M 531 0 
L 531 3531 
L 1081 3531 
L 1081 2988 
Q 1744 3531 2303 3531 
Q 2500 3531 2700 3500 
L 2700 2925 
L 2678 2925 
Q 2419 2988 2153 2988 
Q 1622 2988 1081 2538 
L 1081 0 
L 531 0 
z
" transform="scale(0.015625)"/>
      <path id="Meiryo-65" d="M 834 2131 
L 2906 2131 
Q 2881 3184 1941 3184 
Q 1466 3184 1172 2903 
Q 878 2622 834 2131 
z
M 2125 -81 
Q 1244 -81 758 395 
Q 272 872 272 1744 
Q 272 2609 737 3120 
Q 1203 3631 1972 3631 
Q 2672 3631 3058 3212 
Q 3444 2794 3444 2019 
L 3444 1716 
L 834 1716 
Q 834 1078 1179 736 
Q 1525 394 2134 394 
Q 2741 394 3347 816 
L 3372 816 
L 3372 219 
Q 2619 -81 2125 -81 
z
" transform="scale(0.015625)"/>
      <path id="Meiryo-61" d="M 2663 841 
L 2663 1866 
Q 1497 1813 1164 1608 
Q 831 1403 831 1044 
Q 831 409 1600 409 
Q 2122 409 2663 841 
z
M 2663 0 
L 2663 394 
Q 2222 75 1937 -11 
Q 1653 -97 1359 -97 
Q 888 -97 575 215 
Q 263 528 263 1009 
Q 263 1625 727 1936 
Q 1191 2247 2663 2306 
L 2663 2413 
Q 2663 2781 2444 2957 
Q 2225 3134 1675 3134 
Q 1191 3134 597 2884 
L 572 2884 
L 572 3456 
Q 1156 3616 1697 3616 
Q 2481 3616 2845 3323 
Q 3209 3031 3209 2416 
L 3209 0 
L 2663 0 
z
" transform="scale(0.015625)"/>
      <path id="Meiryo-64" d="M 2813 838 
L 2813 2928 
Q 2350 3141 1947 3141 
Q 1428 3141 1137 2777 
Q 847 2413 847 1753 
Q 847 422 1800 422 
Q 2334 422 2813 838 
z
M 2813 0 
L 2813 391 
Q 2209 -97 1644 -97 
Q 1019 -97 648 393 
Q 278 884 278 1734 
Q 278 2575 725 3103 
Q 1172 3631 1828 3631 
Q 2288 3631 2813 3353 
L 2813 4919 
L 3363 4919 
L 3363 0 
L 2813 0 
z
" transform="scale(0.015625)"/>
      <path id="Meiryo-73" d="M 1528 -84 
Q 866 -84 284 206 
L 284 844 
L 306 844 
Q 938 375 1559 375 
Q 2431 375 2431 925 
Q 2431 1141 2315 1259 
Q 2200 1378 1834 1463 
Q 1528 1522 1131 1615 
Q 734 1709 517 1945 
Q 300 2181 300 2550 
Q 300 3019 681 3317 
Q 1063 3616 1700 3616 
Q 2356 3616 2853 3359 
L 2853 2753 
L 2831 2753 
Q 2284 3156 1672 3156 
Q 1294 3156 1075 3017 
Q 856 2878 856 2631 
Q 856 2413 973 2297 
Q 1091 2181 1441 2094 
L 2131 1944 
Q 2559 1850 2775 1614 
Q 2991 1378 2991 1003 
Q 2991 519 2594 217 
Q 2197 -84 1528 -84 
z
" transform="scale(0.015625)"/>
      <path id="Meiryo-ff09" d="M 2059 2463 
Q 2059 856 972 -450 
L 359 -450 
L 359 -425 
Q 872 50 1194 734 
Q 1575 1550 1575 2463 
Q 1575 3369 1194 4181 
Q 872 4866 359 5341 
L 359 5375 
L 972 5375 
Q 2059 4059 2059 2463 
z
" transform="scale(0.015625)"/>
      <path id="Meiryo-3067" d="M 5781 4066 
L 4216 4066 
Q 3644 3822 3101 3173 
Q 2559 2525 2559 1825 
Q 2559 1284 2846 923 
Q 3134 563 3615 395 
Q 4097 228 4891 228 
Q 5075 228 5269 238 
L 5238 -225 
L 5222 -225 
Q 4644 -225 4262 -204 
Q 3881 -184 3459 -51 
Q 3038 81 2716 353 
Q 2394 625 2237 981 
Q 2081 1338 2081 1788 
Q 2081 2416 2464 3033 
Q 2847 3650 3475 4078 
L 341 4078 
L 341 4494 
L 5781 4494 
L 5781 4066 
z
M 5916 2925 
L 5556 2778 
Q 5347 3263 5109 3641 
L 5441 3803 
Q 5656 3466 5916 2925 
z
M 5006 2734 
L 4647 2572 
Q 4422 3078 4194 3450 
L 4531 3603 
Q 4803 3181 5006 2734 
z
" transform="scale(0.015625)"/>
      <path id="Meiryo-306e" d="M 3338 -128 
L 3216 294 
Q 4222 384 4936 878 
Q 5650 1372 5650 2353 
Q 5650 3228 5073 3706 
Q 4497 4184 3466 4213 
Q 3431 2531 2862 1406 
Q 2294 281 1438 281 
Q 906 281 601 732 
Q 297 1184 297 1834 
Q 297 2906 1222 3761 
Q 2147 4616 3413 4616 
Q 4603 4616 5375 4020 
Q 6147 3425 6147 2394 
Q 6147 1219 5369 597 
Q 4591 -25 3338 -128 
z
M 2975 4172 
Q 2069 4034 1416 3351 
Q 763 2669 763 1809 
Q 763 1353 953 1036 
Q 1144 719 1484 719 
Q 2069 719 2503 1811 
Q 2938 2903 2975 4172 
z
" transform="scale(0.015625)"/>
      <path id="Meiryo-5927" d="M 6081 63 
L 5759 -331 
Q 4888 166 4228 1016 
Q 3569 1866 3231 2728 
Q 2928 1697 2211 895 
Q 1494 94 394 -309 
L 213 56 
Q 1238 425 1978 1339 
Q 2719 2253 2850 3259 
L 369 3259 
L 369 3672 
L 2941 3672 
L 2941 5244 
L 3463 5244 
L 3463 3672 
L 6034 3672 
L 6034 3259 
L 3516 3259 
Q 3772 2378 4484 1448 
Q 5197 519 6081 63 
z
" transform="scale(0.015625)"/>
      <path id="Meiryo-90e8" d="M 219 2600 
L 219 2959 
L 1063 2959 
L 738 4175 
L 341 4175 
L 341 4553 
L 1731 4553 
L 1731 5266 
L 2222 5266 
L 2222 4553 
L 3516 4553 
L 3516 4175 
L 3213 4175 
L 2797 2959 
L 3547 2959 
L 3547 2600 
L 219 2600 
z
M 1525 2959 
L 2359 2959 
L 2728 4175 
L 1213 4175 
L 1525 2959 
z
M 4734 513 
L 4644 922 
Q 5078 922 5195 955 
Q 5313 988 5398 1091 
Q 5484 1194 5528 1378 
Q 5572 1563 5572 1825 
Q 5572 2456 5041 3109 
Q 5009 3181 5009 3213 
Q 5009 3238 5016 3253 
Q 5131 3575 5276 4087 
Q 5422 4600 5422 4722 
L 4375 4722 
L 4375 -363 
L 3906 -363 
L 3906 5081 
L 5944 5081 
L 6016 4991 
Q 5975 4781 5754 4120 
Q 5534 3459 5441 3272 
Q 5791 2753 5917 2462 
Q 6044 2172 6053 1856 
L 6056 1772 
Q 6056 1369 5956 1095 
Q 5856 822 5662 684 
Q 5469 547 5292 530 
Q 5116 513 4734 513 
z
M 2772 -44 
L 988 -44 
L 988 -309 
L 519 -309 
L 519 1988 
L 3247 1988 
L 3247 -309 
L 2772 -309 
L 2772 -44 
z
M 988 334 
L 2772 334 
L 2772 1622 
L 988 1622 
L 988 334 
z
" transform="scale(0.015625)"/>
      <path id="Meiryo-5206" d="M 591 -394 
L 400 -69 
Q 1394 253 1898 931 
Q 2403 1609 2434 2738 
L 1203 2738 
L 1203 3116 
L 5181 3116 
Q 4181 4044 3703 5122 
L 4166 5259 
Q 4841 3866 6222 2900 
L 5856 2544 
Q 5503 2822 5203 3097 
L 5203 1647 
Q 5203 1053 5118 656 
Q 5034 259 4903 79 
Q 4772 -100 4587 -194 
Q 4403 -288 4203 -309 
Q 4003 -331 3419 -331 
L 3169 -331 
L 3091 106 
L 3913 106 
Q 4269 106 4486 390 
Q 4703 675 4703 1641 
L 4703 2738 
L 2941 2738 
Q 2878 1366 2245 625 
Q 1613 -116 591 -394 
z
M 400 2581 
L 131 2888 
Q 725 3284 1314 3954 
Q 1903 4625 2138 5200 
L 2631 5075 
Q 1881 3578 400 2581 
z
" transform="scale(0.015625)"/>
      <path id="Meiryo-3092" d="M 4059 794 
L 3597 794 
L 3597 1819 
Q 3597 2000 3588 2128 
Q 2150 1406 2150 819 
Q 2150 525 2472 351 
Q 2794 178 3828 178 
Q 5056 178 5788 294 
L 5819 -159 
Q 5075 -247 4100 -247 
Q 2597 -247 2140 15 
Q 1684 278 1684 766 
Q 1681 1200 2086 1625 
Q 2491 2050 3494 2544 
Q 3366 2825 3034 2825 
Q 2659 2825 2226 2689 
Q 1794 2553 1153 2006 
L 634 1569 
L 366 1888 
Q 1509 2775 2072 3938 
L 616 3938 
L 616 4344 
L 2244 4344 
Q 2388 4716 2466 5094 
L 2984 5050 
Q 2906 4691 2772 4344 
L 5094 4344 
L 5094 3938 
L 2606 3938 
Q 2431 3578 1997 2988 
L 2044 2963 
Q 2166 3041 2525 3114 
Q 2884 3188 3078 3188 
Q 3684 3188 3906 2734 
L 5747 3444 
L 5953 3022 
Q 5303 2809 4022 2331 
Q 4059 2097 4059 1741 
L 4059 794 
z
" transform="scale(0.015625)"/>
      <path id="Meiryo-30ab" d="M 3041 5125 
L 3041 3934 
L 5778 3934 
L 5778 3694 
Q 5778 2606 5747 2220 
Q 5716 1834 5652 1403 
Q 5588 972 5473 661 
Q 5359 350 5211 178 
Q 5063 6 4828 -84 
Q 4594 -175 4184 -175 
Q 3747 -175 3072 -53 
L 3084 422 
Q 3647 306 4125 306 
Q 4350 306 4554 378 
Q 4759 450 4912 759 
Q 5066 1069 5152 1673 
Q 5238 2278 5238 3088 
L 5234 3488 
L 3003 3488 
Q 2906 2047 2275 1144 
Q 1644 241 622 -300 
L 359 56 
Q 1322 638 1847 1436 
Q 2372 2234 2469 3488 
L 622 3488 
L 622 3934 
L 2491 3934 
L 2491 5125 
L 3041 5125 
z
" transform="scale(0.015625)"/>
      <path id="Meiryo-30d0" d="M 6156 281 
L 5753 -72 
Q 5228 466 4804 1316 
Q 4381 2166 4215 3212 
Q 4050 4259 4050 4869 
L 4569 4869 
L 4569 4819 
Q 4569 3475 4944 2304 
Q 5319 1134 6156 281 
z
M 2394 4831 
Q 2347 2991 1822 1839 
Q 1297 688 331 -128 
L 19 209 
Q 378 531 650 868 
Q 922 1206 1125 1595 
Q 1328 1984 1492 2396 
Q 1656 2809 1748 3417 
Q 1841 4025 1863 4831 
L 2394 4831 
z
M 6309 4569 
L 5953 4422 
Q 5753 4894 5503 5284 
L 5831 5441 
Q 6072 5069 6309 4569 
z
M 5422 4378 
L 5063 4216 
Q 4834 4734 4609 5094 
L 4947 5247 
Q 5225 4816 5422 4378 
z
" transform="scale(0.015625)"/>
     </defs>
     <use xlink:href="#Meiryo-54"/>
     <use xlink:href="#Meiryo-47" transform="translate(61.699219 0)"/>
     <use xlink:href="#Meiryo-53" transform="translate(134.501953 0)"/>
     <use xlink:href="#Meiryo-3a" transform="translate(197.978516 0)"/>
     <use xlink:href="#Meiryo-20" transform="translate(240.947266 0)"/>
     <use xlink:href="#Meiryo-975e" transform="translate(274.931641 0)"/>
     <use xlink:href="#Meiryo-5e38" transform="translate(374.931641 0)"/>
     <use xlink:href="#Meiryo-306b" transform="translate(474.931641 0)"/>
     <use xlink:href="#Meiryo-9577" transform="translate(574.931641 0)"/>
     <use xlink:href="#Meiryo-3044" transform="translate(674.931641 0)"/>
     <use xlink:href="#Meiryo-30ea" transform="translate(774.931641 0)"/>
     <use xlink:href="#Meiryo-30fc" transform="translate(874.931641 0)"/>
     <use xlink:href="#Meiryo-30c9" transform="translate(974.931641 0)"/>
     <use xlink:href="#Meiryo-ff08" transform="translate(1074.931641 0)"/>
     <use xlink:href="#Meiryo-6c" transform="translate(1174.931641 0)"/>
     <use xlink:href="#Meiryo-6f" transform="translate(1200.322266 0)"/>
     <use xlink:href="#Meiryo-6e" transform="translate(1259.697266 0)"/>
     <use xlink:href="#Meiryo-67" transform="translate(1321.513672 0)"/>
     <use xlink:href="#Meiryo-20" transform="translate(1382.207031 0)"/>
     <use xlink:href="#Meiryo-72" transform="translate(1416.191406 0)"/>
     <use xlink:href="#Meiryo-65" transform="translate(1457.5 0)"/>
     <use xlink:href="#Meiryo-61" transform="translate(1515.214844 0)"/>
     <use xlink:href="#Meiryo-64" transform="translate(1573.222656 0)"/>
     <use xlink:href="#Meiryo-73" transform="translate(1634.0625 0)"/>
     <use xlink:href="#Meiryo-ff09" transform="translate(1683.867188 0)"/>
     <use xlink:href="#Meiryo-3067" transform="translate(1783.867188 0)"/>
     <use xlink:href="#Meiryo-30b2" transform="translate(1883.867188 0)"/>
     <use xlink:href="#Meiryo-30ce" transform="translate(1983.867188 0)"/>
     <use xlink:href="#Meiryo-30e0" transform="translate(2083.867188 0)"/>
     <use xlink:href="#Meiryo-306e" transform="translate(2183.867188 0)"/>
     <use xlink:href="#Meiryo-5927" transform="translate(2283.867188 0)"/>
     <use xlink:href="#Meiryo-90e8" transform="translate(2383.867188 0)"/>
     <use xlink:href="#Meiryo-5206" transform="translate(2483.867188 0)"/>
     <use xlink:href="#Meiryo-3092" transform="translate(2583.867188 0)"/>
     <use xlink:href="#Meiryo-30ab" transform="translate(2683.867188 0)"/>
     <use xlink:href="#Meiryo-30d0" transform="translate(2783.867188 0)"/>
     <use xlink:href="#Meiryo-30fc" transform="translate(2883.867188 0)"/>
    </g>
   </g>
   <g id="text_3">
    <!-- 第三世代 — 一分子長鎖シーケンサー (TGS): 出力のイメージ -->
    <g transform="translate(92.664219 18.876875) scale(0.14 -0.14)">
     <defs>
      <path id="Meiryo-7b2c" d="M 6028 4525 
L 4828 4525 
L 5103 4016 
L 4666 3919 
L 4359 4525 
L 3809 4525 
Q 3497 4094 3234 3881 
L 2909 4088 
Q 3378 4566 3744 5316 
L 4213 5219 
Q 4153 5097 4025 4859 
L 6028 4859 
L 6028 4525 
z
M 3006 4525 
L 2188 4525 
L 2438 4031 
L 2013 3931 
L 1731 4525 
L 1213 4525 
Q 831 4031 453 3738 
L 178 3972 
Q 884 4644 1178 5303 
L 1641 5219 
Q 1553 5031 1447 4859 
L 3006 4859 
L 3006 4525 
z
M 5991 1713 
Q 5991 1128 5934 779 
Q 5878 431 5790 293 
Q 5703 156 5570 82 
Q 5438 9 5283 -14 
Q 5128 -38 4719 -38 
L 4300 -38 
L 4247 375 
L 4900 375 
Q 5144 375 5287 487 
Q 5431 600 5468 789 
Q 5506 978 5506 1359 
L 3438 1359 
L 3438 -397 
L 2959 -397 
L 2959 1194 
Q 1994 278 447 -241 
L 266 100 
Q 1722 650 2488 1359 
L 1075 1359 
L 1047 1209 
L 584 1209 
L 825 2763 
L 2959 2763 
L 2959 3391 
L 741 3391 
L 741 3738 
L 5681 3738 
L 5681 2425 
L 3438 2425 
L 3438 1713 
L 5991 1713 
z
M 5213 2763 
L 5213 3391 
L 3438 3391 
L 3438 2763 
L 5213 2763 
z
M 2959 1713 
L 2959 2425 
L 1256 2425 
L 1131 1713 
L 2959 1713 
z
" transform="scale(0.015625)"/>
      <path id="Meiryo-4e09" d="M 694 4359 
L 694 4744 
L 5634 4744 
L 5634 4359 
L 694 4359 
z
M 1078 2291 
L 1078 2688 
L 5269 2688 
L 5269 2291 
L 1078 2291 
z
M 394 -81 
L 394 331 
L 5928 331 
L 5928 -81 
L 394 -81 
z
" transform="scale(0.015625)"/>
      <path id="Meiryo-4e16" d="M 1466 250 
L 5981 250 
L 5981 -147 
L 1466 -147 
L 1466 -369 
L 975 -369 
L 975 3259 
L 203 3259 
L 203 3647 
L 975 3647 
L 975 5147 
L 1466 5147 
L 1466 3647 
L 2738 3647 
L 2738 5225 
L 3213 5225 
L 3213 3647 
L 4584 3647 
L 4584 5219 
L 5069 5219 
L 5069 3647 
L 6106 3647 
L 6106 3259 
L 5069 3259 
L 5069 1447 
L 2738 1447 
L 2738 3259 
L 1466 3259 
L 1466 250 
z
M 4584 3259 
L 3213 3259 
L 3213 1831 
L 4584 1831 
L 4584 3259 
z
" transform="scale(0.015625)"/>
      <path id="Meiryo-4ee3" d="M 6147 1322 
Q 6084 353 5981 29 
Q 5878 -294 5538 -325 
L 5503 -325 
Q 5266 -325 5084 -211 
Q 4903 -97 4561 311 
Q 4219 719 3937 1406 
Q 3656 2094 3506 3028 
L 2053 2922 
L 2019 3313 
L 3450 3416 
Q 3384 3981 3384 4978 
L 3384 5278 
L 3888 5278 
L 3888 4997 
Q 3888 3956 3947 3453 
L 5963 3600 
L 6009 3216 
L 4003 3066 
Q 4250 1634 4701 929 
Q 5153 225 5416 225 
Q 5563 225 5623 484 
Q 5684 744 5728 1419 
L 6147 1322 
z
M 2191 5166 
Q 1991 4541 1413 3416 
L 1634 3416 
L 1634 -397 
L 1153 -397 
L 1153 2944 
Q 847 2428 416 1884 
L 75 2138 
Q 469 2622 976 3580 
Q 1484 4538 1681 5259 
L 2191 5166 
z
M 5603 4141 
L 5225 3869 
Q 4788 4375 4350 4756 
L 4691 5022 
Q 5169 4628 5603 4141 
z
" transform="scale(0.015625)"/>
      <path id="Meiryo-2014" d="M 5922 1828 
L 478 1828 
L 478 2291 
L 5922 2291 
L 5922 1828 
z
" transform="scale(0.015625)"/>
      <path id="Meiryo-4e00" d="M 381 2606 
L 381 3050 
L 6006 3050 
L 6006 2606 
L 381 2606 
z
" transform="scale(0.015625)"/>
      <path id="Meiryo-5b50" d="M 2906 -378 
L 1906 -378 
L 1850 72 
L 2709 72 
Q 2838 72 2928 147 
Q 3019 222 3019 331 
L 3019 2266 
L 250 2266 
L 250 2663 
L 3019 2663 
L 3019 3584 
L 3463 3584 
Q 4369 4103 4753 4569 
L 856 4569 
L 856 4959 
L 5309 4959 
L 5550 4713 
Q 5200 4325 4625 3901 
Q 4050 3478 3519 3213 
L 3519 2663 
L 6150 2663 
L 6150 2266 
L 3519 2266 
L 3519 163 
Q 3519 -72 3339 -225 
Q 3159 -378 2906 -378 
z
" transform="scale(0.015625)"/>
      <path id="Meiryo-9396" d="M 3091 772 
L 3091 3894 
L 4234 3894 
L 4234 5338 
L 4709 5338 
L 4709 3894 
L 5931 3894 
L 5931 772 
L 3091 772 
z
M 3550 2984 
L 5463 2984 
L 5463 3553 
L 3550 3553 
L 3550 2984 
z
M 3550 2091 
L 5463 2091 
L 5463 2659 
L 3550 2659 
L 3550 2091 
z
M 5463 1766 
L 3550 1766 
L 3550 1131 
L 5463 1131 
L 5463 1766 
z
M 297 -303 
L 206 69 
Q 628 122 1381 256 
L 1381 2191 
L 381 2191 
L 381 2556 
L 1381 2556 
L 1381 3366 
L 800 3366 
L 800 3684 
Q 547 3416 297 3209 
L 44 3475 
Q 394 3756 787 4289 
Q 1181 4822 1344 5278 
L 1922 5278 
Q 2191 4744 2803 4241 
L 2509 3931 
Q 2078 4266 1675 4931 
Q 1403 4331 825 3709 
L 2484 3709 
L 2484 3366 
L 1831 3366 
L 1831 2556 
L 2713 2556 
L 2713 2191 
L 1831 2191 
L 1831 338 
Q 2278 419 2681 506 
L 2700 172 
Q 1900 -69 297 -303 
z
M 3353 4097 
L 2947 5009 
L 3359 5141 
L 3750 4241 
L 3353 4097 
z
M 5578 4050 
L 5200 4159 
L 5613 5134 
L 6056 5016 
Q 5953 4800 5578 4050 
z
M 2484 741 
L 2131 800 
L 2334 1803 
L 2741 1766 
L 2484 741 
z
M 625 572 
L 422 1659 
L 828 1738 
L 1022 656 
L 625 572 
z
M 2759 -428 
L 2538 -122 
Q 3300 225 3756 681 
L 4097 388 
Q 3366 -213 2759 -428 
z
M 6075 -416 
Q 5347 -78 4847 388 
L 5163 675 
Q 5675 231 6344 -56 
L 6075 -416 
z
" transform="scale(0.015625)"/>
      <path id="Meiryo-30b7" d="M 3803 4109 
L 3541 3666 
Q 2763 4041 1113 4506 
L 1325 4888 
Q 1766 4800 2495 4575 
Q 3225 4350 3803 4109 
z
M 3150 2559 
L 2894 2106 
Q 1922 2528 459 2900 
L 653 3309 
Q 1709 3109 3150 2559 
z
M 6163 2822 
Q 5438 1547 4067 759 
Q 2697 -28 909 -200 
L 781 263 
Q 1844 394 2669 675 
Q 3494 956 4053 1339 
Q 4613 1722 4963 2065 
Q 5313 2409 5716 3047 
L 6163 2822 
z
" transform="scale(0.015625)"/>
      <path id="Meiryo-30b1" d="M 4641 3384 
Q 4547 1763 3683 872 
Q 2819 -19 1106 -275 
L 947 159 
Q 2563 413 3286 1214 
Q 4009 2016 4075 3384 
L 1913 3384 
Q 1331 2534 366 1944 
L 91 2297 
Q 881 2816 1387 3553 
Q 1894 4291 2094 5119 
L 2656 5050 
Q 2519 4453 2191 3847 
L 6309 3847 
L 6309 3384 
L 4641 3384 
z
" transform="scale(0.015625)"/>
      <path id="Meiryo-30f3" d="M 3334 3622 
L 2981 3213 
Q 1866 3900 756 4372 
L 1025 4763 
Q 2194 4325 3334 3622 
z
M 6059 2828 
Q 5534 1913 4696 1245 
Q 3859 578 2954 251 
Q 2050 -75 825 -206 
L 716 275 
Q 1734 378 2540 648 
Q 3347 919 3908 1301 
Q 4469 1684 4853 2061 
Q 5238 2438 5631 3097 
L 6059 2828 
z
" transform="scale(0.015625)"/>
      <path id="Meiryo-30b5" d="M 1972 1644 
L 1428 1644 
L 1428 3225 
L 191 3225 
L 191 3678 
L 1428 3678 
L 1428 4997 
L 1972 4997 
L 1972 3678 
L 4563 3678 
L 4563 5088 
L 5106 5088 
L 5106 3678 
L 6284 3678 
L 6284 3225 
L 5106 3225 
L 5106 2469 
Q 5106 -150 1491 -269 
L 1388 197 
Q 3138 259 3850 864 
Q 4563 1469 4563 2456 
L 4563 3225 
L 1972 3225 
L 1972 1644 
z
" transform="scale(0.015625)"/>
      <path id="Meiryo-51fa" d="M 503 -309 
L 503 2209 
L 981 2209 
L 981 375 
L 2863 375 
L 2866 2744 
L 806 2744 
L 806 4822 
L 1300 4822 
L 1300 3116 
L 2866 3116 
L 2869 5213 
L 3363 5213 
L 3363 3116 
L 4975 3116 
L 4975 4822 
L 5478 4822 
L 5478 2744 
L 3359 2744 
L 3356 375 
L 5347 375 
L 5347 2209 
L 5844 2209 
L 5844 -309 
L 5347 -309 
L 5347 -9 
L 981 -9 
L 981 -309 
L 503 -309 
z
" transform="scale(0.015625)"/>
      <path id="Meiryo-529b" d="M 2950 3559 
Q 2916 2259 2314 1246 
Q 1713 234 509 -291 
L 269 69 
Q 1325 544 1876 1478 
Q 2428 2413 2428 3481 
L 2428 3559 
L 553 3559 
L 553 3959 
L 2428 3959 
L 2428 5225 
L 2950 5225 
L 2950 3959 
L 5641 3959 
L 5641 2841 
Q 5641 1953 5564 1358 
Q 5488 763 5331 353 
Q 5250 134 5061 -11 
Q 4872 -156 4650 -203 
Q 4503 -234 3734 -234 
L 3375 -234 
L 3309 219 
L 4238 219 
Q 4809 219 4967 853 
Q 5125 1488 5125 2900 
L 5125 3559 
L 2950 3559 
z
" transform="scale(0.015625)"/>
      <path id="Meiryo-30a4" d="M 3994 -300 
L 3438 -300 
L 3438 2813 
Q 2066 2084 513 1722 
L 347 2150 
Q 2375 2672 3547 3459 
Q 4719 4247 5306 5088 
L 5819 4888 
Q 5250 4038 3994 3175 
L 3994 -300 
z
" transform="scale(0.015625)"/>
      <path id="Meiryo-30e1" d="M 5228 4922 
Q 4984 3556 4119 2313 
Q 5069 1666 5766 1063 
L 5356 672 
Q 4922 1103 3803 1897 
Q 2500 309 603 -231 
L 384 203 
Q 2109 703 3375 2203 
Q 2656 2703 1228 3456 
L 1528 3834 
Q 2794 3181 3681 2606 
Q 4450 3716 4691 4991 
L 5228 4922 
z
" transform="scale(0.015625)"/>
      <path id="Meiryo-30b8" d="M 3803 4109 
L 3541 3666 
Q 2763 4041 1113 4506 
L 1325 4888 
Q 1766 4800 2495 4575 
Q 3225 4350 3803 4109 
z
M 3150 2559 
L 2894 2106 
Q 1922 2528 459 2900 
L 653 3309 
Q 1709 3109 3150 2559 
z
M 6163 2822 
Q 5438 1547 4067 759 
Q 2697 -28 909 -200 
L 781 263 
Q 1844 394 2669 675 
Q 3494 956 4053 1339 
Q 4613 1722 4963 2065 
Q 5313 2409 5716 3047 
L 6163 2822 
z
M 5991 4069 
L 5631 3922 
Q 5419 4419 5184 4788 
L 5509 4941 
Q 5763 4550 5991 4069 
z
M 5081 3878 
L 4722 3719 
Q 4497 4228 4269 4594 
L 4609 4747 
Q 4878 4331 5081 3878 
z
" transform="scale(0.015625)"/>
     </defs>
     <use xlink:href="#Meiryo-7b2c"/>
     <use xlink:href="#Meiryo-4e09" transform="translate(100 0)"/>
     <use xlink:href="#Meiryo-4e16" transform="translate(200 0)"/>
     <use xlink:href="#Meiryo-4ee3" transform="translate(300 0)"/>
     <use xlink:href="#Meiryo-20" transform="translate(400 0)"/>
     <use xlink:href="#Meiryo-2014" transform="translate(433.984375 0)"/>
     <use xlink:href="#Meiryo-20" transform="translate(533.984375 0)"/>
     <use xlink:href="#Meiryo-4e00" transform="translate(567.96875 0)"/>
     <use xlink:href="#Meiryo-5206" transform="translate(667.96875 0)"/>
     <use xlink:href="#Meiryo-5b50" transform="translate(767.96875 0)"/>
     <use xlink:href="#Meiryo-9577" transform="translate(867.96875 0)"/>
     <use xlink:href="#Meiryo-9396" transform="translate(967.96875 0)"/>
     <use xlink:href="#Meiryo-30b7" transform="translate(1067.96875 0)"/>
     <use xlink:href="#Meiryo-30fc" transform="translate(1167.96875 0)"/>
     <use xlink:href="#Meiryo-30b1" transform="translate(1267.96875 0)"/>
     <use xlink:href="#Meiryo-30f3" transform="translate(1367.96875 0)"/>
     <use xlink:href="#Meiryo-30b5" transform="translate(1467.96875 0)"/>
     <use xlink:href="#Meiryo-30fc" transform="translate(1567.96875 0)"/>
     <use xlink:href="#Meiryo-20" transform="translate(1667.96875 0)"/>
     <use xlink:href="#Meiryo-28" transform="translate(1701.953125 0)"/>
     <use xlink:href="#Meiryo-54" transform="translate(1745.898438 0)"/>
     <use xlink:href="#Meiryo-47" transform="translate(1807.597656 0)"/>
     <use xlink:href="#Meiryo-53" transform="translate(1880.400391 0)"/>
     <use xlink:href="#Meiryo-29" transform="translate(1943.876953 0)"/>
     <use xlink:href="#Meiryo-3a" transform="translate(1987.822266 0)"/>
     <use xlink:href="#Meiryo-20" transform="translate(2030.791016 0)"/>
     <use xlink:href="#Meiryo-51fa" transform="translate(2064.775391 0)"/>
     <use xlink:href="#Meiryo-529b" transform="translate(2164.775391 0)"/>
     <use xlink:href="#Meiryo-306e" transform="translate(2264.775391 0)"/>
     <use xlink:href="#Meiryo-30a4" transform="translate(2364.775391 0)"/>
     <use xlink:href="#Meiryo-30e1" transform="translate(2464.775391 0)"/>
     <use xlink:href="#Meiryo-30fc" transform="translate(2564.775391 0)"/>
     <use xlink:href="#Meiryo-30b8" transform="translate(2664.775391 0)"/>
    </g>
   </g>
  </g>
 </g>
 <defs>
  <clipPath id="p23090b4371">
   <rect x="7.2" y="24.876875" width="558" height="166.32"/>
  </clipPath>
 </defs>
</svg>
